<svg width="80" height="80" viewBox="0 0 80 80" fill="none" xmlns="http://www.w3.org/2000/svg">
<path d="M20 21.25H8.75C8.41848 21.25 8.10054 21.3817 7.86612 21.6161C7.6317 21.8505 7.5 22.1685 7.5 22.5C7.5 22.8315 7.6317 23.1495 7.86612 23.3839C8.10054 23.6183 8.41848 23.75 8.75 23.75H20C20.3315 23.75 20.6495 23.6183 20.8839 23.3839C21.1183 23.1495 21.25 22.8315 21.25 22.5C21.25 22.1685 21.1183 21.8505 20.8839 21.6161C20.6495 21.3817 20.3315 21.25 20 21.25Z" fill="#BBBAB6"/>
<path d="M29.9882 68.5206L24.9882 32.3289C24.9469 32.0299 24.7987 31.7559 24.5711 31.5576C24.3435 31.3592 24.0518 31.25 23.7499 31.25H21.2499C20.9553 31.25 20.6701 31.3541 20.4448 31.5439C20.2194 31.7337 20.0683 31.997 20.0182 32.2873L13.7682 68.4791C13.7372 68.6586 13.7458 68.8426 13.7935 69.0185C13.8411 69.1943 13.9265 69.3576 14.0439 69.4969C14.1612 69.6362 14.3076 69.7482 14.4727 69.8251C14.6378 69.9019 14.8178 69.9417 14.9999 69.9417H28.7499C28.9286 69.9417 29.1052 69.9034 29.2679 69.8294C29.4305 69.7554 29.5754 69.6474 29.6927 69.5126C29.8101 69.3779 29.8972 69.2196 29.9482 69.0483C29.9991 68.877 30.0128 68.6968 29.9882 68.5198V68.5206ZM24.9062 50H19.4968L20.3603 45H24.2154L24.9062 50ZM22.3031 33.75H22.6612L23.0067 36.25H21.8713L22.3031 33.75ZM21.4396 38.75H23.3515L23.8696 42.5H20.7915L21.4396 38.75ZM16.4843 67.4417L19.0646 52.5H25.251L27.3153 67.4417H16.4843Z" fill="#9E9E9E"/>
<path d="M10 61.25C9.66848 61.25 9.35054 61.1183 9.11612 60.8839C8.8817 60.6495 8.75 60.3315 8.75 60V56.25C8.75 55.9185 8.8817 55.6005 9.11612 55.3661C9.35054 55.1317 9.66848 55 10 55C10.3315 55 10.6495 55.1317 10.8839 55.3661C11.1183 55.6005 11.25 55.9185 11.25 56.25V60C11.25 60.3315 11.1183 60.6495 10.8839 60.8839C10.6495 61.1183 10.3315 61.25 10 61.25Z" fill="#BBBAB6"/>
<path d="M23.75 48.75H21.5691C21.2902 48.75 21.0164 48.6753 20.776 48.5338C20.5357 48.3922 20.3377 48.1889 20.2025 47.9449C20.0673 47.701 19.9998 47.4253 20.0071 47.1465C20.0145 46.8676 20.0963 46.5959 20.2441 46.3594L25 38.75L39.6852 30.1837C39.7808 30.128 39.8894 30.0986 40 30.0986C40.1107 30.0986 40.2193 30.128 40.3149 30.1837L55 38.75L59.756 46.3594C59.9038 46.5959 59.9856 46.8676 59.9929 47.1465C60.0003 47.4253 59.9328 47.701 59.7976 47.9449C59.6624 48.1889 59.4644 48.3922 59.224 48.5338C58.9837 48.6753 58.7099 48.75 58.431 48.75H23.75Z" fill="#DCDBD6"/>
<path d="M56.25 68.75H23.75V48.75L28.625 41.25L40 35L51.375 41.25L56.25 48.75V68.75Z" fill="#81171B"/>
<path d="M56.25 68.75H23.75V51.25L29.5625 42.5L40 36.7188L50.4375 42.5L56.25 51.25V68.75Z" fill="#AA232E"/>
<path d="M37.5 43.75H42.5V48.75H37.5V43.75Z" fill="#961B20"/>
<path d="M23.75 61.25H56.25V68.75H23.75V61.25Z" fill="#915628"/>
<path d="M23.75 66.25H56.25V68.75H23.75V66.25Z" fill="#7A4922"/>
<path d="M23.75 61.25H56.25V62.1875H23.75V61.25Z" fill="#DCDBD6"/>
<path d="M23.75 60V55C23.75 54.6685 23.6183 54.3505 23.3839 54.1161C23.1495 53.8817 22.8315 53.75 22.5 53.75H17.2747C16.9857 53.75 16.7057 53.8502 16.4823 54.0334C16.2588 54.2166 16.1057 54.4715 16.0491 54.7548L15 60H23.75Z" fill="#92D1F7"/>
<path d="M23.75 60V55C23.75 54.6685 23.6183 54.3505 23.3839 54.1161C23.1495 53.8817 22.8315 53.75 22.5 53.75H18.5247C18.2357 53.75 17.9557 53.8502 17.7323 54.0334C17.5088 54.2166 17.3557 54.4715 17.2991 54.7548L16.25 60H23.75Z" fill="#A6DEFF"/>
<path d="M7.5 61.25V65H23.75V60H8.75C8.41848 60 8.10054 60.1317 7.86612 60.3661C7.6317 60.6005 7.5 60.9185 7.5 61.25Z" fill="#5F967C"/>
<path d="M7.5 63.3157H23.8697V64.9525H7.5V63.3157Z" fill="#55876F"/>
<path d="M35.625 53.75H44.375C44.7065 53.75 45.0245 53.8817 45.2589 54.1161C45.4933 54.3505 45.625 54.6685 45.625 55V68.75H34.375V55C34.375 54.6685 34.5067 54.3505 34.7411 54.1161C34.9755 53.8817 35.2935 53.75 35.625 53.75Z" fill="#961B20"/>
<path d="M42.5 50H37.5C37.1685 50 36.8505 49.8683 36.6161 49.6339C36.3817 49.3995 36.25 49.0815 36.25 48.75V43.75C36.25 43.4185 36.3817 43.1005 36.6161 42.8661C36.8505 42.6317 37.1685 42.5 37.5 42.5H42.5C42.8315 42.5 43.1495 42.6317 43.3839 42.8661C43.6183 43.1005 43.75 43.4185 43.75 43.75V48.75C43.75 49.0815 43.6183 49.3995 43.3839 49.6339C43.1495 49.8683 42.8315 50 42.5 50ZM38.75 47.5H41.25V45H38.75V47.5Z" fill="#EAE9E4"/>
<path d="M76.25 65C75.9185 65 75.6005 64.8683 75.3661 64.6339C75.1317 64.3995 75 64.0815 75 63.75C74.9996 63.4186 74.8678 63.1009 74.6335 62.8665C74.3991 62.6322 74.0814 62.5004 73.75 62.5C73.4185 62.5 73.1005 62.3683 72.8661 62.1339C72.6317 61.8995 72.5 61.5815 72.5 61.25C72.5 60.9185 72.6317 60.6005 72.8661 60.3661C73.1005 60.1317 73.4185 60 73.75 60C74.7442 60.0012 75.6974 60.3966 76.4004 61.0996C77.1034 61.8026 77.4988 62.7558 77.5 63.75C77.5 64.0815 77.3683 64.3995 77.1339 64.6339C76.8995 64.8683 76.5815 65 76.25 65Z" fill="#CDCCC8"/>
<path d="M76.25 45C76.25 42.2386 74.0114 40 71.25 40C68.4886 40 66.25 42.2386 66.25 45V50C66.25 52.7614 68.4886 55 71.25 55C74.0114 55 76.25 52.7614 76.25 50V45Z" fill="#79A73A"/>
<path d="M71.25 69.7281C70.9185 69.7281 70.6005 69.5964 70.3661 69.362C70.1317 69.1276 70 68.8096 70 68.4781V51.25C70 50.9185 70.1317 50.6005 70.3661 50.3661C70.6005 50.1317 70.9185 50 71.25 50C71.5815 50 71.8995 50.1317 72.1339 50.3661C72.3683 50.6005 72.5 50.9185 72.5 51.25V68.4781C72.5 68.8096 72.3683 69.1276 72.1339 69.362C71.8995 69.5964 71.5815 69.7281 71.25 69.7281Z" fill="#A3612D"/>
<path d="M56.25 52.5L63.75 55V56.5625L56.25 54.0625V52.5Z" fill="#CDCCC8"/>
<path d="M56.25 54.0625L63.75 56.5625V68.75H56.25V54.0625Z" fill="#961B20"/>
<path d="M32.5718 22.7969L23.852 21.3516L23.0984 23.7353L31.0648 27.5644L32.5718 22.7969Z" fill="#7A4922"/>
<path d="M26.0621 12.5764L21.9929 20.423L24.0271 21.8761L30.1306 15.483L26.0621 12.5764Z" fill="#7A4922"/>
<path d="M14.3301 15.6093L20.5351 21.904L22.5459 20.4183L18.3515 12.6382L14.3301 15.6093Z" fill="#7A4922"/>
<path d="M13.5895 27.7042L21.4935 23.7481L20.702 21.3767L12.0063 22.9616L13.5895 27.7042Z" fill="#7A4922"/>
<path d="M24.8634 32.1463L23.5434 23.4065L21.0435 23.4267L19.8635 32.1863L24.8634 32.1463Z" fill="#7A4922"/>
<path d="M3.75 20V25L8.75 23.75V21.25L3.75 20Z" fill="#7A4922"/>
<path d="M55 25C57.0711 25 58.75 23.3211 58.75 21.25C58.75 19.1789 57.0711 17.5 55 17.5C52.9289 17.5 51.25 19.1789 51.25 21.25C51.25 23.3211 52.9289 25 55 25Z" fill="#F4A95A"/>
<path d="M55 15C54.6685 15 54.3505 14.8683 54.1161 14.6339C53.8817 14.3995 53.75 14.0815 53.75 13.75V11.25C53.75 10.9185 53.8817 10.6005 54.1161 10.3661C54.3505 10.1317 54.6685 10 55 10C55.3315 10 55.6495 10.1317 55.8839 10.3661C56.1183 10.6005 56.25 10.9185 56.25 11.25V13.75C56.25 14.0815 56.1183 14.3995 55.8839 14.6339C55.6495 14.8683 55.3315 15 55 15Z" fill="#FFB05E"/>
<path d="M49.6967 17.1967C49.5325 17.1969 49.3699 17.1646 49.2182 17.1018C49.0665 17.039 48.9286 16.9468 48.8126 16.8306L47.045 15.0625C46.8173 14.8267 46.6913 14.511 46.6941 14.1832C46.697 13.8555 46.8284 13.542 47.0602 13.3102C47.292 13.0784 47.6055 12.947 47.9332 12.9441C48.261 12.9413 48.5767 13.0673 48.8125 13.295L50.5806 15.0625C50.7555 15.2373 50.8746 15.46 50.9229 15.7025C50.9711 15.9451 50.9464 16.1964 50.8518 16.4249C50.7571 16.6533 50.5969 16.8486 50.3913 16.9859C50.1857 17.1233 49.944 17.1967 49.6967 17.1967Z" fill="#FFB05E"/>
<path d="M47.5 22.5H45C44.6685 22.5 44.3505 22.3683 44.1161 22.1339C43.8817 21.8995 43.75 21.5815 43.75 21.25C43.75 20.9185 43.8817 20.6005 44.1161 20.3661C44.3505 20.1317 44.6685 20 45 20H47.5C47.8315 20 48.1495 20.1317 48.3839 20.3661C48.6183 20.6005 48.75 20.9185 48.75 21.25C48.75 21.5815 48.6183 21.8995 48.3839 22.1339C48.1495 22.3683 47.8315 22.5 47.5 22.5Z" fill="#FFB05E"/>
<path d="M47.929 29.5711C47.6818 29.5711 47.4401 29.4978 47.2345 29.3605C47.0289 29.2231 46.8687 29.0279 46.7741 28.7995C46.6795 28.5711 46.6547 28.3197 46.703 28.0773C46.7512 27.8348 46.8703 27.612 47.0451 27.4372L48.8126 25.6694C49.0471 25.4349 49.3651 25.3032 49.6967 25.3032C50.0282 25.3032 50.3463 25.4349 50.5807 25.6694C50.8152 25.9039 50.9469 26.2219 50.9469 26.5535C50.9469 26.8851 50.8152 27.2031 50.5807 27.4375L48.8126 29.205C48.6967 29.3213 48.559 29.4134 48.4073 29.4762C48.2557 29.5391 48.0931 29.5713 47.929 29.5711Z" fill="#FFB05E"/>
<path d="M55 32.5C54.6685 32.5 54.3505 32.3683 54.1161 32.1339C53.8817 31.8995 53.75 31.5815 53.75 31.25V28.75C53.75 28.4185 53.8817 28.1005 54.1161 27.8661C54.3505 27.6317 54.6685 27.5 55 27.5C55.3315 27.5 55.6495 27.6317 55.8839 27.8661C56.1183 28.1005 56.25 28.4185 56.25 28.75V31.25C56.25 31.5815 56.1183 31.8995 55.8839 32.1339C55.6495 32.3683 55.3315 32.5 55 32.5Z" fill="#FFB05E"/>
<path d="M62.0711 29.5711C61.9069 29.5714 61.7443 29.5391 61.5926 29.4763C61.441 29.4135 61.3032 29.3213 61.1872 29.205L59.4194 27.4375C59.1849 27.2031 59.0532 26.8851 59.0532 26.5535C59.0532 26.2219 59.1849 25.9039 59.4194 25.6694C59.6539 25.4349 59.9719 25.3032 60.3035 25.3032C60.6351 25.3032 60.9531 25.4349 61.1875 25.6694L62.955 27.4375C63.1299 27.6124 63.2489 27.8351 63.2972 28.0776C63.3454 28.3201 63.3206 28.5714 63.226 28.7998C63.1314 29.0282 62.9712 29.2234 62.7656 29.3608C62.56 29.4981 62.3184 29.5715 62.0711 29.5714V29.5711Z" fill="#FFB05E"/>
<path d="M65 22.5H62.5C62.1685 22.5 61.8505 22.3683 61.6161 22.1339C61.3817 21.8995 61.25 21.5815 61.25 21.25C61.25 20.9185 61.3817 20.6005 61.6161 20.3661C61.8505 20.1317 62.1685 20 62.5 20H65C65.3315 20 65.6495 20.1317 65.8839 20.3661C66.1183 20.6005 66.25 20.9185 66.25 21.25C66.25 21.5815 66.1183 21.8995 65.8839 22.1339C65.6495 22.3683 65.3315 22.5 65 22.5Z" fill="#FFB05E"/>
<path d="M60.3033 17.1967C60.056 17.1968 59.8143 17.1235 59.6086 16.9861C59.403 16.8488 59.2427 16.6535 59.1481 16.425C59.0535 16.1965 59.0288 15.9451 59.077 15.7026C59.1253 15.46 59.2445 15.2373 59.4194 15.0625L61.1876 13.295C61.4233 13.0673 61.7391 12.9413 62.0668 12.9441C62.3946 12.947 62.7081 13.0784 62.9398 13.3102C63.1716 13.542 63.3031 13.8555 63.3059 14.1832C63.3087 14.511 63.1828 14.8267 62.9551 15.0625L61.1876 16.8306C61.0715 16.9468 60.9337 17.039 60.782 17.1018C60.6302 17.1647 60.4676 17.1969 60.3033 17.1967Z" fill="#FFB05E"/>
<path d="M33.75 54.375V68.75H46.25V54.375C46.25 54.2092 46.1842 54.0503 46.0669 53.9331C45.9497 53.8158 45.7908 53.75 45.625 53.75H34.375C34.2092 53.75 34.0503 53.8158 33.9331 53.9331C33.8158 54.0503 33.75 54.2092 33.75 54.375ZM42.5387 56.25L40 59.2969L37.4612 56.25H42.5387ZM36.25 58.7031L38.3734 61.25L36.25 63.7969V58.7031ZM37.4612 66.25L40 63.2031L42.5387 66.25H37.4612ZM43.75 63.7969L41.6266 61.25L43.75 58.7031V63.7969Z" fill="#EAE9E4"/>
<path d="M8.75 68.75C10.1307 68.75 11.25 67.6307 11.25 66.25C11.25 64.8693 10.1307 63.75 8.75 63.75C7.36929 63.75 6.25 64.8693 6.25 66.25C6.25 67.6307 7.36929 68.75 8.75 68.75Z" fill="#EAE9E4"/>
<path d="M21.25 68.75C23.0622 68.75 24.5312 67.2809 24.5312 65.4688C24.5312 63.6566 23.0622 62.1875 21.25 62.1875C19.4378 62.1875 17.9688 63.6566 17.9688 65.4688C17.9688 67.2809 19.4378 68.75 21.25 68.75Z" fill="#EAE9E4"/>
<path d="M8.75 70C8.00832 70 7.2833 69.7801 6.66661 69.368C6.04993 68.956 5.56928 68.3703 5.28545 67.6851C5.00162 66.9998 4.92736 66.2458 5.07206 65.5184C5.21675 64.791 5.5739 64.1228 6.09835 63.5984C6.6228 63.0739 7.29098 62.7168 8.01841 62.5721C8.74584 62.4274 9.49984 62.5016 10.1851 62.7855C10.8703 63.0693 11.456 63.5499 11.868 64.1666C12.2801 64.7833 12.5 65.5083 12.5 66.25C12.4988 67.2442 12.1034 68.1974 11.4004 68.9004C10.6974 69.6034 9.74421 69.9988 8.75 70ZM8.75 65C8.50277 65 8.2611 65.0733 8.05554 65.2107C7.84998 65.348 7.68976 65.5432 7.59515 65.7716C7.50054 66.0001 7.47579 66.2514 7.52402 66.4939C7.57225 66.7363 7.6913 66.9591 7.86612 67.1339C8.04093 67.3087 8.26366 67.4278 8.50614 67.476C8.74861 67.5242 8.99995 67.4995 9.22836 67.4048C9.45676 67.3102 9.65199 67.15 9.78934 66.9445C9.92669 66.7389 10 66.4972 10 66.25C9.99963 65.9186 9.86781 65.6009 9.63347 65.3665C9.39913 65.1322 9.08141 65.0004 8.75 65Z" fill="#6A6C65"/>
<path d="M21.25 70C20.3538 70 19.4777 69.7342 18.7326 69.2363C17.9874 68.7384 17.4066 68.0308 17.0637 67.2028C16.7207 66.3748 16.631 65.4637 16.8058 64.5847C16.9807 63.7058 17.4122 62.8984 18.0459 62.2647C18.6796 61.631 19.487 61.1994 20.366 61.0246C21.245 60.8497 22.1561 60.9395 22.984 61.2824C23.812 61.6254 24.5197 62.2062 25.0176 62.9513C25.5155 63.6965 25.7813 64.5726 25.7813 65.4688C25.7798 66.6701 25.302 67.8218 24.4525 68.6713C23.6031 69.5207 22.4513 69.9986 21.25 70ZM21.25 63.4375C20.8483 63.4375 20.4555 63.5566 20.1215 63.7798C19.7875 64.003 19.5271 64.3203 19.3734 64.6914C19.2196 65.0626 19.1794 65.471 19.2578 65.865C19.3362 66.2591 19.5296 66.621 19.8137 66.9051C20.0978 67.1891 20.4597 67.3826 20.8537 67.461C21.2477 67.5394 21.6562 67.4991 22.0273 67.3454C22.3985 67.1916 22.7157 66.9313 22.9389 66.5973C23.1621 66.2632 23.2813 65.8705 23.2813 65.4688C23.2806 64.9302 23.0664 64.4139 22.6856 64.0331C22.3048 63.6523 21.7885 63.4381 21.25 63.4375Z" fill="#6A6C65"/>
<path d="M22.2832 24.6667C23.6639 24.6667 24.7832 23.5475 24.7832 22.1667C24.7832 20.786 23.6639 19.6667 22.2832 19.6667C20.9025 19.6667 19.7832 20.786 19.7832 22.1667C19.7832 23.5475 20.9025 24.6667 22.2832 24.6667Z" fill="#DCDBD6"/>
<path d="M56.25 54.0625L63.75 56.5625V58.125L56.25 55.625V54.0625Z" fill="#81171B"/>
<path d="M63.75 62.3438L62.0138 62.3978C61.7649 62.3832 61.531 62.274 61.3599 62.0926C61.1889 61.9111 61.0937 61.6712 61.0938 61.4219V61.1847C61.0936 60.9088 61.2008 60.6436 61.3927 60.4453C61.5846 60.247 61.8461 60.1311 62.1219 60.1222L62.4372 60.112L63.4375 59.0625L63.75 57.5L65.1562 58.75H70.6109C71.4435 58.75 72.2419 59.0808 72.8305 59.6695C73.4192 60.2581 73.75 61.0565 73.75 61.8891V64.8438L73.13 65.595L72.8125 68.75H71.7188L70.7812 64.6875C69.465 65.0953 68.0586 65.1122 66.733 64.7359L66.5625 64.6875L65.9375 68.75H64.5312L64.375 64.5312C63.9722 64.0721 63.75 63.4821 63.75 62.8713V62.3438Z" fill="#E6E5E0"/>
<path d="M73.75 61.8891L71.775 61.9781C71.7454 61.9797 71.7157 61.9797 71.686 61.9797C71.435 61.9795 71.1866 61.9299 70.9548 61.8336C70.7231 61.7374 70.5125 61.5965 70.3352 61.4189C70.1579 61.2413 70.0173 61.0305 69.9215 60.7986C69.8256 60.5667 69.7764 60.3181 69.7766 60.0672V58.75H70.611C71.0232 58.7499 71.4315 58.831 71.8124 58.9887C72.1933 59.1464 72.5394 59.3776 72.8309 59.6691C73.1224 59.9607 73.3536 60.3067 73.5114 60.6877C73.6691 61.0686 73.7502 61.4768 73.75 61.8891Z" fill="#6A6C65"/>
<path d="M65.1562 58.75V60.5817C65.1565 60.6893 65.1993 60.7925 65.2755 60.8685C65.3517 60.9445 65.4549 60.9872 65.5625 60.9872H66.1278C66.2353 60.987 66.3383 60.9442 66.4143 60.8682C66.4903 60.7922 66.5331 60.6892 66.5333 60.5817C66.5333 60.4742 66.576 60.3711 66.652 60.2951C66.728 60.2191 66.8311 60.1764 66.9386 60.1764H67.0389C67.1426 60.1764 67.2423 60.1367 67.3176 60.0654C67.3929 59.9941 67.438 59.8966 67.4436 59.7931L67.5 58.75H65.1562Z" fill="#6A6C65"/>
<path d="M67.4707 62.1875C67.3643 62.1875 67.2589 62.2085 67.1606 62.2492C67.0623 62.2899 66.9729 62.3496 66.8977 62.4249C66.8224 62.5001 66.7628 62.5895 66.722 62.6878C66.6813 62.7862 66.6604 62.8915 66.6604 62.998V63.125H66.5746C66.3597 63.125 66.1535 63.2104 66.0015 63.3624C65.8496 63.5144 65.7642 63.7205 65.7642 63.9355C65.7642 64.0023 65.7773 64.0684 65.8029 64.1301C65.8284 64.1918 65.8659 64.2478 65.9131 64.295C65.9604 64.3423 66.0164 64.3797 66.0781 64.4053C66.1398 64.4308 66.206 64.4439 66.2728 64.4439H68.6379C68.8124 64.4439 68.9806 64.3783 69.109 64.2602C69.2374 64.142 69.3167 63.9799 69.3312 63.8059C69.3004 63.6159 69.203 63.4431 69.0565 63.3183C68.9099 63.1935 68.7237 63.125 68.5312 63.125H68.2812V62.998C68.2812 62.783 68.1958 62.5769 68.0438 62.4249C67.8918 62.2729 67.6857 62.1875 67.4707 62.1875Z" fill="#6A6C65"/>
<path d="M72.0755 64.1375V64.1452H71.9661C71.9131 64.1452 71.8606 64.1556 71.8116 64.1759C71.7626 64.1963 71.7181 64.226 71.6806 64.2635C71.6432 64.301 71.6134 64.3455 71.5932 64.3945C71.5729 64.4435 71.5625 64.496 71.5625 64.5491C71.5625 64.6543 71.6036 64.7554 71.677 64.8308C71.7505 64.9062 71.8504 64.9499 71.9556 64.9527L73.75 64.8438V63.125H73.0878C72.8193 63.125 72.5618 63.2317 72.372 63.4216C72.1821 63.6115 72.0755 63.869 72.0755 64.1375Z" fill="#6A6C65"/>
<path d="M63.8517 60.6106C64.1025 60.6106 64.3059 60.4072 64.3059 60.1564C64.3059 59.9055 64.1025 59.7021 63.8517 59.7021C63.6008 59.7021 63.3975 59.9055 63.3975 60.1564C63.3975 60.4072 63.6008 60.6106 63.8517 60.6106Z" fill="#6A6C65"/>
<path d="M76.25 70H3.75C3.41848 70 3.10054 69.8683 2.86612 69.6339C2.6317 69.3995 2.5 69.0815 2.5 68.75C2.5 68.4185 2.6317 68.1005 2.86612 67.8661C3.10054 67.6317 3.41848 67.5 3.75 67.5H76.25C76.5815 67.5 76.8995 67.6317 77.1339 67.8661C77.3683 68.1005 77.5 68.4185 77.5 68.75C77.5 69.0815 77.3683 69.3995 77.1339 69.6339C76.8995 69.8683 76.5815 70 76.25 70Z" fill="#79A73A"/>
<path d="M33.75 66.25H46.25V67.5H33.75V66.25Z" fill="#CDCCC8"/>
<path d="M72.8059 27.5135C72.1655 26.7893 71.2695 26.3414 70.3059 26.2635C69.8731 25.7751 69.3204 25.4082 68.7023 25.1989C68.0843 24.9896 67.4223 24.9452 66.7818 25.0701C66.1413 25.1949 65.5445 25.4848 65.0504 25.911C64.5562 26.3371 64.1819 26.8849 63.9642 27.5H63.75C62.7554 27.5 61.8016 27.8951 61.0984 28.5984C60.3951 29.3016 60 30.2555 60 31.25C60 32.2446 60.3951 33.1984 61.0984 33.9017C61.8016 34.605 62.7554 35 63.75 35H72.5C73.4946 35 74.4484 34.605 75.1516 33.9017C75.8549 33.1984 76.25 32.2446 76.25 31.25C76.2498 30.3086 75.8954 29.4017 75.2574 28.7094C74.6193 28.0172 73.7442 27.5903 72.8059 27.5135Z" fill="#ECEBE6"/>
</svg>
