<svg width="80" height="80" viewBox="0 0 80 80" fill="none" xmlns="http://www.w3.org/2000/svg">
<g clip-path="url(#clip0_308_398)">
<path d="M73.1386 55.9557H20.6111V23.0718L46.8748 5.31787L73.1386 22.5265V55.9557Z" fill="#FDD79B"/>
<path d="M68.4514 19.4548V55.9555H73.1389V22.5262L68.4514 19.4548Z" fill="#FBC56D"/>
<path d="M77.415 60.6998H2.585C1.80453 60.6998 1.17188 60.0672 1.17188 59.2867V57.2608C1.17188 56.4803 1.80453 55.8477 2.585 55.8477H77.415C78.1955 55.8477 78.8281 56.4803 78.8281 57.2608V59.2867C78.8281 60.0672 78.1955 60.6998 77.415 60.6998Z" fill="#AA693B"/>
<path d="M74.2124 65.2992H5.78776C5.02292 65.2992 4.40308 64.6792 4.40308 63.9145V60.6997H75.5974V63.9145C75.5973 64.6792 74.9773 65.2992 74.2124 65.2992Z" fill="#EA9B58"/>
<path d="M20.2123 65.2993H13.0637V78.8281H20.2123V65.2993Z" fill="#C57A44"/>
<path d="M66.9364 65.2993H59.7878V78.8281H66.9364V65.2993Z" fill="#C57A44"/>
<path d="M20.2122 65.2993H13.0637V69.9901H20.2122V65.2993Z" fill="#AA693B"/>
<path d="M66.9363 65.2993H59.7878V69.9901H66.9363V65.2993Z" fill="#AA693B"/>
<path d="M73.1384 47.2471H20.6111V55.9557H73.1384V47.2471Z" fill="#D8AA5E"/>
<path d="M68.4511 47.2471C68.4511 49.4679 66.6508 51.2682 64.43 51.2682H20.6111V55.9557H73.1384V47.2471H68.4511Z" fill="#C99C56"/>
<path d="M53.0021 55.9555H40.9116V34.7029C40.9116 33.8594 41.5954 33.1755 42.439 33.1755H51.4749C52.3183 33.1755 53.0022 33.8593 53.0022 34.7029V55.9555H53.0021Z" fill="#D88A55"/>
<path d="M73.2006 26.4218V22.5265L46.9368 5.31787L20.6731 23.0716V26.4218H73.2006Z" fill="#AA693B"/>
<path d="M39.0654 10.6386V26.4216H44.0539V7.2666L39.0654 10.6386Z" fill="#D88A55"/>
<path d="M28.4341 17.8252V26.4217H33.4225V14.4531L28.4341 17.8252Z" fill="#D88A55"/>
<path d="M49.6963 7.12573V26.4215H54.6847V10.3942L49.6963 7.12573Z" fill="#D88A55"/>
<path d="M60.3274 14.0918V26.4218H65.3158V17.3602L60.3274 14.0918Z" fill="#D88A55"/>
<path d="M74.6589 26.8062L46.875 7.11887L19.0909 26.8062C18.7295 27.0623 18.2289 26.977 17.9727 26.6154L15.8103 23.5639C15.5542 23.2025 15.6395 22.7018 16.0011 22.4456L45.33 1.66371C46.2556 1.00793 47.4944 1.00793 48.4198 1.66371L77.7487 22.4457C78.1102 22.7018 78.1956 23.2025 77.9395 23.564L75.7772 26.6156C75.5209 26.9768 75.0203 27.0623 74.6589 26.8062Z" fill="#E9B665"/>
<path d="M33.6052 47.2469H27.4893C26.9347 47.2469 26.4854 46.7974 26.4854 46.243V37.2374C26.4854 34.9941 28.3039 33.1755 30.5472 33.1755C32.7905 33.1755 34.6091 34.9941 34.6091 37.2374V46.243C34.6091 46.7974 34.1597 47.2469 33.6052 47.2469Z" fill="#FAF3F1"/>
<path d="M60.3079 47.2469H66.4238C66.9783 47.2469 67.4277 46.7974 67.4277 46.243V37.2374C67.4277 34.9941 65.6091 33.1755 63.3658 33.1755C61.1225 33.1755 59.304 34.9941 59.304 37.2374V46.243C59.304 46.7974 59.7535 47.2469 60.3079 47.2469Z" fill="#FAF3F1"/>
<path d="M53.0021 51.2683H40.9116V55.9558H53.0021V51.2683Z" fill="#C57A44"/>
<path d="M20.2123 65.2993H13.0637V78.8281H20.2123V65.2993Z" stroke="black" stroke-width="2.34375" stroke-miterlimit="10" stroke-linecap="round" stroke-linejoin="round"/>
<path d="M66.9364 65.2993H59.7878V78.8281H66.9364V65.2993Z" stroke="black" stroke-width="2.34375" stroke-miterlimit="10" stroke-linecap="round" stroke-linejoin="round"/>
<path d="M1.17188 43.5334H20.6113" stroke="black" stroke-width="2.34375" stroke-miterlimit="10" stroke-linecap="round" stroke-linejoin="round"/>
<path d="M15.4285 43.7651V55.8475" stroke="black" stroke-width="2.34375" stroke-miterlimit="10" stroke-linecap="round" stroke-linejoin="round"/>
<path d="M10.0598 43.7651V55.8475" stroke="black" stroke-width="2.34375" stroke-miterlimit="10" stroke-linecap="round" stroke-linejoin="round"/>
<path d="M4.69165 43.7651V55.8475" stroke="black" stroke-width="2.34375" stroke-miterlimit="10" stroke-linecap="round" stroke-linejoin="round"/>
<path d="M20.6111 55.3307V25.729" stroke="black" stroke-width="2.34375" stroke-miterlimit="10" stroke-linecap="round" stroke-linejoin="round"/>
<path d="M73.1389 25.729V55.3306" stroke="black" stroke-width="2.34375" stroke-miterlimit="10" stroke-linecap="round" stroke-linejoin="round"/>
<path d="M26.4853 15.0166L45.33 1.66347C46.2556 1.00769 47.4944 1.00769 48.4198 1.66347L77.7488 22.4455C78.1102 22.7016 78.1956 23.2022 77.9395 23.5638L75.7772 26.6153C75.5211 26.9767 75.0205 27.0622 74.6591 26.8061L46.875 7.11878L19.0909 26.8061C18.7295 27.0622 18.2289 26.9769 17.9727 26.6153L15.8103 23.5638C15.5542 23.2024 15.6395 22.7017 16.0011 22.4455L21.598 18.4796" stroke="black" stroke-width="2.34375" stroke-miterlimit="10" stroke-linecap="round" stroke-linejoin="round"/>
<path d="M20.6111 26.4216H73.1386" stroke="black" stroke-width="2.34375" stroke-miterlimit="10" stroke-linecap="round" stroke-linejoin="round"/>
<path d="M28.4341 20.4375V25.7291" stroke="black" stroke-width="2.34375" stroke-miterlimit="10" stroke-linecap="round" stroke-linejoin="round"/>
<path d="M33.4226 17.4209V25.7289" stroke="black" stroke-width="2.34375" stroke-miterlimit="10" stroke-linecap="round" stroke-linejoin="round"/>
<path d="M39.0654 12.6528V25.7289" stroke="black" stroke-width="2.34375" stroke-miterlimit="10" stroke-linecap="round" stroke-linejoin="round"/>
<path d="M44.0537 9.11792V25.7287" stroke="black" stroke-width="2.34375" stroke-miterlimit="10" stroke-linecap="round" stroke-linejoin="round"/>
<path d="M65.3159 20.4375V25.7291" stroke="black" stroke-width="2.34375" stroke-miterlimit="10" stroke-linecap="round" stroke-linejoin="round"/>
<path d="M60.3274 17.4209V25.7289" stroke="black" stroke-width="2.34375" stroke-miterlimit="10" stroke-linecap="round" stroke-linejoin="round"/>
<path d="M54.6846 12.6528V25.7289" stroke="black" stroke-width="2.34375" stroke-miterlimit="10" stroke-linecap="round" stroke-linejoin="round"/>
<path d="M49.6963 9.11792V25.7287" stroke="black" stroke-width="2.34375" stroke-miterlimit="10" stroke-linecap="round" stroke-linejoin="round"/>
<path d="M40.9116 55.4868V34.7029C40.9116 33.8594 41.5954 33.1755 42.439 33.1755H51.4749C52.3183 33.1755 53.0022 33.8593 53.0022 34.7029V55.4868" stroke="black" stroke-width="2.34375" stroke-miterlimit="10" stroke-linecap="round" stroke-linejoin="round"/>
<path d="M33.6052 47.2469H27.4893C26.9347 47.2469 26.4854 46.7974 26.4854 46.243V37.2374C26.4854 34.9941 28.3039 33.1755 30.5472 33.1755C32.7905 33.1755 34.6091 34.9941 34.6091 37.2374V46.243C34.6091 46.7974 34.1597 47.2469 33.6052 47.2469Z" stroke="black" stroke-width="2.34375" stroke-miterlimit="10" stroke-linecap="round" stroke-linejoin="round"/>
<path d="M30.5471 33.1755V47.2469" stroke="black" stroke-width="2.34375" stroke-miterlimit="10" stroke-linecap="round" stroke-linejoin="round"/>
<path d="M26.4854 40.2114H34.6091" stroke="black" stroke-width="2.34375" stroke-miterlimit="10" stroke-linecap="round" stroke-linejoin="round"/>
<path d="M60.3079 47.2469H66.4238C66.9783 47.2469 67.4277 46.7974 67.4277 46.243V37.2374C67.4277 34.9941 65.6091 33.1755 63.3658 33.1755C61.1225 33.1755 59.304 34.9941 59.304 37.2374V46.243C59.304 46.7974 59.7535 47.2469 60.3079 47.2469Z" stroke="black" stroke-width="2.34375" stroke-miterlimit="10" stroke-linecap="round" stroke-linejoin="round"/>
<path d="M63.3657 33.1755V47.2469" stroke="black" stroke-width="2.34375" stroke-miterlimit="10" stroke-linecap="round" stroke-linejoin="round"/>
<path d="M67.4277 40.2114H59.304" stroke="black" stroke-width="2.34375" stroke-miterlimit="10" stroke-linecap="round" stroke-linejoin="round"/>
<path d="M20.6111 47.2471H40.9112" stroke="black" stroke-width="2.34375" stroke-miterlimit="10" stroke-linecap="round" stroke-linejoin="round"/>
<path d="M73.1385 47.2471H53.3071" stroke="black" stroke-width="2.34375" stroke-miterlimit="10" stroke-linecap="round" stroke-linejoin="round"/>
<path d="M47.0283 44.5657V45.1343" stroke="black" stroke-width="2.34375" stroke-miterlimit="10" stroke-linecap="round" stroke-linejoin="round"/>
<path d="M51.4214 60.6998H2.585C1.80453 60.6998 1.17188 60.0672 1.17188 59.2867V57.2608C1.17188 56.4803 1.80453 55.8477 2.585 55.8477H77.415C78.1955 55.8477 78.8281 56.4803 78.8281 57.2608V59.2867C78.8281 60.0672 78.1955 60.6998 77.415 60.6998H57.0464" stroke="black" stroke-width="2.34375" stroke-miterlimit="10" stroke-linecap="round" stroke-linejoin="round"/>
<path d="M75.5973 60.6997V63.9146C75.5973 64.6794 74.9773 65.2992 74.2126 65.2992H5.78776C5.02292 65.2992 4.40308 64.6792 4.40308 63.9146V60.6997H47.8901" stroke="black" stroke-width="2.34375" stroke-miterlimit="10" stroke-linecap="round" stroke-linejoin="round"/>
</g>
<defs>
<clipPath id="clip0_308_398">
<rect width="80" height="80" fill="white"/>
</clipPath>
</defs>
</svg>
