<svg width="46" height="46" viewBox="0 0 46 46" fill="none" xmlns="http://www.w3.org/2000/svg">
<circle opacity="0.5" cx="23" cy="23" r="23" fill="#51C5D0"/>
<g clip-path="url(#clip0_421_741)">
<path d="M23 34.3203C29.252 34.3203 34.3203 29.252 34.3203 23C34.3203 16.748 29.252 11.6797 23 11.6797C16.748 11.6797 11.6797 16.748 11.6797 23C11.6797 29.252 16.748 34.3203 23 34.3203Z" fill="#F0C48A"/>
<path d="M34.6195 17.3254C32.4954 21.1353 31.6735 22.6096 31.6735 22.6096C31.6735 22.6096 31.5056 22.8332 30.2409 22.8332C28.9762 22.8332 28.1043 23.0428 28.1043 23.0428L25.2298 25.9174L25.1626 30.3713H29.0134L29.0834 28.3754L30.0072 27.4515C30.1672 27.2915 30.3674 27.1774 30.5866 27.1213L33.3601 26.4109C33.3601 26.4109 33.803 26.539 34.1391 25.6319C34.4752 24.7247 36.3825 18.0575 36.3825 18.0575C36.3825 18.0575 36.0903 16.1445 34.6195 17.3254Z" fill="white"/>
<path d="M35.9024 17.0945L33.3468 24.4886C33.1572 25.0374 32.7109 25.4586 32.1521 25.6162L30.0189 26.2177C29.7269 26.3001 29.4608 26.456 29.2463 26.6705L28.9573 26.9595C28.4963 27.4206 28.2373 28.0458 28.2373 28.6978V30.3713H29.0128V28.9921L29.3877 28.0705L30.0067 27.4515C30.1667 27.2915 30.3668 27.1774 30.5861 27.1213L33.3595 26.4109C33.3595 26.4109 33.8024 26.5391 34.1385 25.6319C34.4746 24.7248 36.3819 18.0575 36.3819 18.0575C36.3819 18.0575 36.2814 17.4007 35.9024 17.0945Z" fill="#D3E6F8"/>
<path d="M29.7685 30.3713H24.3599V32.1334H29.7685V30.3713Z" fill="#D3E6F8"/>
<path d="M29.7684 30.3713H28.498V32.1334H29.7684V30.3713Z" fill="#A4CFF2"/>
<path d="M30.5042 32.1333H23.6245V36.6795H30.5042V32.1333Z" fill="#A4CFF2"/>
<path d="M30.5043 32.1333H29.0835V36.6795H30.5043V32.1333Z" fill="#7BABF1"/>
<path d="M30.5041 31.8127H23.6243C23.4473 31.8127 23.3037 31.9563 23.3037 32.1334V36.6794C23.3037 36.8565 23.4473 37 23.6243 37H30.5041C30.6812 37 30.8247 36.8565 30.8247 36.6794V32.1334C30.8247 31.9563 30.6811 31.8127 30.5041 31.8127ZM30.1835 36.3588H23.945V32.454H30.1835V36.3588Z" fill="#4C4372"/>
<path d="M29.7686 30.0508H24.3602C24.1831 30.0508 24.0396 30.1943 24.0396 30.3714V32.1334C24.0396 32.3104 24.1831 32.454 24.3602 32.454H29.7686C29.9456 32.454 30.0892 32.3104 30.0892 32.1334V30.3714C30.0892 30.1943 29.9456 30.0508 29.7686 30.0508ZM29.448 31.8128H24.6809V30.692H29.448V31.8128Z" fill="#4C4372"/>
<path d="M30.785 22.5125H28.976C28.3767 22.5125 27.8133 22.7458 27.3895 23.1696L25.5586 25.0005C25.0964 25.4627 24.8418 26.0773 24.8418 26.7311V30.3712C24.8418 30.5482 24.9854 30.6918 25.1624 30.6918C25.3395 30.6918 25.4831 30.5482 25.4831 30.3712V26.7311C25.4831 26.2486 25.671 25.795 26.0121 25.4539L27.843 23.623C28.1456 23.3203 28.548 23.1537 28.9761 23.1537H30.7851C31.1099 23.1537 31.3742 23.418 31.3742 23.7428C31.3742 24.0677 31.1099 24.332 30.7851 24.332H28.8527C28.6756 24.332 28.5321 24.4755 28.5321 24.6526C28.5321 24.8296 28.6756 24.9732 28.8527 24.9732H30.7851C31.4635 24.9732 32.0155 24.4212 32.0155 23.7428C32.0155 23.0644 31.4635 22.5125 30.785 22.5125Z" fill="#4C4372"/>
<path d="M36.5732 17.1613C36.4022 16.8598 36.1236 16.6445 35.7887 16.5551C35.2211 16.4035 34.6253 16.6562 34.3392 17.1692L31.13 22.9254C31.0438 23.08 31.0992 23.2753 31.2539 23.3615C31.4086 23.4478 31.6038 23.3923 31.6901 23.2376L34.8993 17.4815C35.0422 17.2251 35.3398 17.0991 35.6234 17.1746C35.7908 17.2193 35.9299 17.3269 36.0154 17.4775C36.1007 17.6281 36.1215 17.8028 36.0739 17.9693L33.89 25.6033C33.8148 25.8663 33.5909 26.0584 33.3194 26.0928C33.306 26.0945 33.2927 26.097 33.2796 26.1004L30.5096 26.8154C30.236 26.886 29.9857 27.0289 29.7859 27.2288L29.166 27.8486C28.8606 28.154 28.6924 28.5602 28.6924 28.9921V30.3713C28.6924 30.5483 28.8359 30.6919 29.013 30.6919C29.1901 30.6919 29.3336 30.5483 29.3336 30.3713V28.9921C29.3336 28.7314 29.4351 28.4863 29.6195 28.302L30.2393 27.6822C30.3582 27.5633 30.5071 27.4782 30.6699 27.4362L33.4216 26.7261C33.9382 26.6521 34.3627 26.2827 34.5066 25.7796L36.6905 18.1456C36.7857 17.8124 36.7441 17.4628 36.5732 17.1613Z" fill="#4C4372"/>
<path d="M20.7704 25.9174L17.8958 23.0428C17.8958 23.0428 17.024 22.8332 15.7592 22.8332C14.4945 22.8332 14.3267 22.6096 14.3267 22.6096C14.3267 22.6096 13.5048 21.1353 11.3806 17.3253C9.90982 16.1445 9.61768 18.0575 9.61768 18.0575C9.61768 18.0575 11.525 24.7248 11.8611 25.6319C12.1972 26.5391 12.6401 26.4109 12.6401 26.4109L15.4136 27.1213C15.6328 27.1775 15.833 27.2915 15.993 27.4516L16.9168 28.3754L16.9868 30.3713H20.8376L20.7704 25.9174Z" fill="white"/>
<path d="M20.7703 25.9176L19.9844 25.1316V30.3714H20.8375L20.7703 25.9176Z" fill="#D3E6F8"/>
<path d="M14.3265 22.6097C14.3265 22.6097 13.5045 21.1354 11.3804 17.3255C10.9879 17.0104 10.6795 16.9157 10.438 16.946L14.3049 24.1125C14.3049 24.1125 14.3825 23.3655 14.589 22.727C14.3717 22.6693 14.3265 22.6097 14.3265 22.6097Z" fill="#D3E6F8"/>
<path d="M21.64 30.3713H16.2314V32.1334H21.64V30.3713Z" fill="#D3E6F8"/>
<path d="M21.6395 30.3713H20.3691V32.1334H21.6395V30.3713Z" fill="#A4CFF2"/>
<path d="M22.3753 32.1333H15.4956V36.6795H22.3753V32.1333Z" fill="#A4CFF2"/>
<path d="M22.3754 32.1333H20.9546V36.6795H22.3754V32.1333Z" fill="#7BABF1"/>
<path d="M22.3757 31.8127H15.4959C15.3188 31.8127 15.1753 31.9563 15.1753 32.1334V36.6794C15.1753 36.8565 15.3188 37 15.4959 37H22.3757C22.5527 37 22.6963 36.8565 22.6963 36.6794V32.1334C22.6963 31.9563 22.5527 31.8127 22.3757 31.8127ZM22.055 36.3588H15.8166V32.454H22.055V36.3588Z" fill="#4C4372"/>
<path d="M21.6401 30.0508H16.2318C16.0547 30.0508 15.9111 30.1943 15.9111 30.3714V32.1334C15.9111 32.3104 16.0547 32.454 16.2318 32.454H21.6401C21.8172 32.454 21.9608 32.3104 21.9608 32.1334V30.3714C21.9608 30.1943 21.8172 30.0508 21.6401 30.0508ZM21.3196 31.8128H16.5525V30.692H21.3196V31.8128Z" fill="#4C4372"/>
<path d="M20.4412 25.0007L18.6103 23.1698C18.1865 22.746 17.6231 22.5127 17.0238 22.5127H15.2148C14.5363 22.5127 13.9844 23.0647 13.9844 23.7431C13.9844 24.4215 14.5363 24.9735 15.2148 24.9735H17.1472C17.3242 24.9735 17.4678 24.8299 17.4678 24.6529C17.4678 24.4758 17.3242 24.3323 17.1472 24.3323H15.2148C14.8899 24.3323 14.6256 24.068 14.6256 23.7431C14.6256 23.4183 14.8899 23.154 15.2148 23.154H17.0238C17.4518 23.154 17.8542 23.3206 18.1569 23.6233L19.9877 25.4542C20.3289 25.7953 20.5168 26.2489 20.5168 26.7314V30.3715C20.5168 30.5485 20.6604 30.6921 20.8374 30.6921C21.0145 30.6921 21.1581 30.5485 21.1581 30.3715V26.7314C21.158 26.0776 20.9034 25.4629 20.4412 25.0007Z" fill="#4C4372"/>
<path d="M16.8337 27.8486L16.2139 27.2288C16.014 27.029 15.7638 26.886 15.4901 26.8154L12.7201 26.1004C12.707 26.097 12.6937 26.0945 12.6803 26.0928C12.4089 26.0584 12.1849 25.8662 12.1097 25.6033L9.92581 17.9693C9.87817 17.8029 9.89901 17.6282 9.98438 17.4776C10.0698 17.3269 10.209 17.2194 10.3763 17.1747C10.6599 17.0991 10.9576 17.2252 11.1004 17.4815L14.3097 23.2377C14.3959 23.3923 14.5911 23.4478 14.7459 23.3616C14.9005 23.2754 14.956 23.0802 14.8698 22.9254L11.6605 17.1693C11.3745 16.6562 10.7784 16.4034 10.211 16.5552C9.87604 16.6445 9.59746 16.8598 9.42656 17.1614C9.25567 17.4629 9.21405 17.8125 9.30937 18.1457L11.4933 25.7797C11.6372 26.2827 12.0617 26.6521 12.5782 26.7262L15.3299 27.4363C15.4927 27.4783 15.6416 27.5633 15.7605 27.6822L16.3804 28.302C16.5646 28.4864 16.6662 28.7316 16.6662 28.9921V30.3714C16.6662 30.5484 16.8098 30.6919 16.9868 30.6919C17.1639 30.6919 17.3075 30.5484 17.3075 30.3714V28.9921C17.3073 28.5602 17.1391 28.1541 16.8337 27.8486Z" fill="#4C4372"/>
<path d="M24.5876 19.4898C23.6445 19.9479 23.0707 20.8603 23 21.8358C23.8106 22.3832 24.8825 22.4962 25.8255 22.0381C26.7686 21.5799 27.3424 20.6675 27.4131 19.6919C26.6025 19.1446 25.5307 19.0316 24.5876 19.4898Z" fill="#FD919E"/>
<path d="M24.5877 19.4897C24.4075 19.5773 24.2411 19.6816 24.0889 19.7995C24.3776 19.7269 24.6711 19.7018 24.9592 19.7206C25.8955 19.7819 26.4052 20.83 25.8748 21.604C25.7119 21.8417 25.5113 22.0564 25.2766 22.2383C25.4625 22.1916 25.6464 22.1252 25.8256 22.0382C26.7687 21.58 27.3424 20.6676 27.4132 19.6921C26.6026 19.1446 25.5308 19.0316 24.5877 19.4897Z" fill="#E8677D"/>
<path d="M31.3038 9.32056H14.6963V18.0449H31.3038V9.32056Z" fill="#D3E6F8"/>
<path d="M31.3032 9.32056H28.8789V18.0449H31.3032V9.32056Z" fill="#A4CFF2"/>
<path d="M28.996 10.3298H17.0043L15.8413 11.4929V15.8731L17.0043 17.0362H28.996L30.159 15.8731V11.4929L28.996 10.3298Z" fill="white"/>
<path d="M28.9956 10.3298H28.8789V17.0362H28.9956L30.1586 15.8731V11.4929L28.9956 10.3298Z" fill="#D3E6F8"/>
<path d="M31.3038 9H14.6966C14.5195 9 14.376 9.14355 14.376 9.32063V18.0451C14.376 18.2222 14.5195 18.3658 14.6966 18.3658H31.3038C31.4809 18.3658 31.6245 18.2222 31.6245 18.0451V9.32063C31.6244 9.14355 31.4809 9 31.3038 9ZM30.9832 17.7245H15.0172V9.64127H30.9832L30.9832 17.7245Z" fill="#4C4372"/>
<path d="M30.3856 11.266L29.2226 10.1029C29.1624 10.0428 29.0809 10.009 28.9958 10.009H17.0042C16.9191 10.009 16.8376 10.0428 16.7774 10.1029L15.6144 11.266C15.5543 11.3261 15.5205 11.4076 15.5205 11.4927V15.873C15.5205 15.958 15.5543 16.0396 15.6144 16.0997L16.7774 17.2628C16.8375 17.3229 16.9191 17.3567 17.0042 17.3567H28.9959C29.0809 17.3567 29.1625 17.3229 29.2226 17.2628L30.3857 16.0997C30.4458 16.0396 30.4796 15.958 30.4796 15.873V11.4927C30.4795 11.4076 30.4457 11.3261 30.3856 11.266ZM29.8382 15.7401L28.863 16.7154H17.137L16.1617 15.7401V11.6255L17.137 10.6503H28.8631L29.8383 11.6255V15.7401H29.8382Z" fill="#4C4372"/>
<path d="M23 11.9827C22.061 11.9827 21.2998 12.7439 21.2998 13.6828C21.2998 14.6218 22.061 15.383 23 15.383C23.939 15.383 24.7002 14.6218 24.7002 13.6828C24.7002 12.7439 23.939 11.9827 23 11.9827Z" fill="#D3E6F8"/>
<path d="M22.9998 11.6621C21.8855 11.6621 20.979 12.5686 20.979 13.6829C20.979 14.7971 21.8855 15.7036 22.9998 15.7036C24.114 15.7036 25.0205 14.7971 25.0205 13.6829C25.0205 12.5686 24.114 11.6621 22.9998 11.6621ZM22.9998 15.0624C22.2391 15.0624 21.6202 14.4436 21.6202 13.6829C21.6202 12.9222 22.2391 12.3033 22.9998 12.3033C23.7605 12.3033 24.3793 12.9222 24.3793 13.6829C24.3793 14.4436 23.7605 15.0624 22.9998 15.0624Z" fill="#4C4372"/>
<path d="M22.9998 17.7246C22.8228 17.7246 22.6792 17.8682 22.6792 18.0452V30.3714C22.6792 30.5484 22.8228 30.6919 22.9998 30.6919C23.1769 30.6919 23.3205 30.5484 23.3205 30.3714V18.0452C23.3205 17.8682 23.1769 17.7246 22.9998 17.7246Z" fill="#4C4372"/>
<path d="M27.5923 19.4262C26.6612 18.7975 25.4562 18.7115 24.4473 19.2014V19.2014C23.4384 19.6915 22.7613 20.6921 22.68 21.8127C22.6717 21.9271 22.7253 22.0373 22.8204 22.1015C23.3506 22.4596 23.9695 22.6416 24.5906 22.6416C25.0602 22.6416 25.5311 22.5375 25.9654 22.3265C26.9742 21.8364 27.6514 20.8358 27.7327 19.7151C27.741 19.6007 27.6874 19.4904 27.5923 19.4262ZM25.6852 21.7497C24.9386 22.1123 24.0569 22.0787 23.3404 21.6703C23.4622 20.8547 23.9808 20.1408 24.7274 19.7781C25.4741 19.4155 26.3558 19.449 27.0722 19.8574C26.9504 20.6731 26.4319 21.387 25.6852 21.7497Z" fill="#4C4372"/>
<path d="M21.4125 19.4898C20.4694 19.0316 19.3975 19.1446 18.5869 19.6919C18.6577 20.6675 19.2314 21.5799 20.1745 22.0381C21.1176 22.4962 22.1895 22.3832 23 21.8358C22.9293 20.8602 22.3555 19.9479 21.4125 19.4898Z" fill="#FD919E"/>
<path d="M23.3196 21.8128C23.2383 20.6921 22.5611 19.6916 21.5523 19.2015C20.5434 18.7114 19.3383 18.7975 18.4073 19.4263C18.3121 19.4906 18.2586 19.6008 18.267 19.7152C18.3482 20.8358 19.0254 21.8364 20.0342 22.3265C20.4686 22.5376 20.9393 22.6417 21.409 22.6417C22.03 22.6417 22.6491 22.4596 23.1792 22.1016C23.2744 22.0374 23.328 21.9272 23.3196 21.8128ZM20.3145 21.7499C19.5679 21.3871 19.0493 20.6732 18.9275 19.8575C19.6439 19.4491 20.5256 19.4155 21.2722 19.7782C22.0188 20.141 22.5375 20.8548 22.6592 21.6705C21.9427 22.0788 21.061 22.1124 20.3145 21.7499Z" fill="#4C4372"/>
</g>
<defs>
<clipPath id="clip0_421_741">
<rect width="28" height="28" fill="white" transform="translate(9 9)"/>
</clipPath>
</defs>
</svg>
