<svg width="46" height="46" viewBox="0 0 46 46" fill="none" xmlns="http://www.w3.org/2000/svg">
<circle opacity="0.5" cx="23" cy="23" r="23" fill="#51C5D0"/>
<path d="M31.5158 19.6619C31.5158 22.5385 29.1839 24.8704 26.3074 24.8704C25.0769 24.8704 23.946 24.4438 23.0546 23.7296C23.0567 23.4737 23.0567 23.2068 23.0567 22.9257C23.0567 21.2872 22.3283 19.8216 21.1646 18.8372C21.5594 16.3533 23.7119 14.4546 26.3074 14.4546C29.1839 14.4546 31.5158 16.7865 31.5158 19.6619Z" fill="#EFEFEF"/>
<path d="M35.6164 22.8021C35.1953 24.05 34.5303 25.1853 33.6782 26.1522C33.5754 26.2681 33.4048 26.2933 33.2703 26.2167L32.4357 25.7344C32.311 25.6622 32.1535 25.6775 32.0485 25.776C31.1189 26.6488 29.9901 27.3116 28.7378 27.69C28.5989 27.7327 28.5015 27.8585 28.5015 28.0039V28.9719C28.5015 29.1261 28.3943 29.2617 28.2423 29.2924C27.0031 29.5417 25.6774 29.5538 24.3726 29.2935C24.2217 29.2628 24.1134 29.1272 24.1134 28.9719V28.005C24.1134 27.8617 24.0215 27.7338 23.8837 27.6922C23.6956 27.6353 23.5107 27.573 23.3292 27.503C23.0885 27.4122 22.8534 27.3105 22.6237 27.1978C22.9901 26.1063 23.047 25.0803 23.0546 23.7296C23.292 23.9199 23.5457 24.0894 23.8148 24.236C24.6001 24.6647 25.5079 24.8977 26.4726 24.8681C29.1851 24.7839 31.4043 22.5844 31.5115 19.873C31.6285 16.9013 29.254 14.4546 26.3074 14.4546C24.0051 14.4546 22.0517 15.9486 21.3648 18.0202C21.2762 18.2838 21.2095 18.5572 21.1646 18.8372C20.3509 18.1481 19.3228 17.6942 18.182 17.5805L17.132 16.9111C17.0926 16.886 17.0598 16.8542 17.0357 16.8171C16.9789 16.7361 16.9624 16.6322 16.9953 16.5338C17.4153 15.2814 18.0803 14.1428 18.9356 13.1727C19.0384 13.0567 19.209 13.0305 19.3435 13.1081L20.1792 13.5905C20.3039 13.6627 20.4614 13.6474 20.5664 13.5489C21.554 12.6214 22.7659 11.9313 24.1134 11.5671V10.353C24.1134 10.1977 24.2206 10.0621 24.3726 10.0314C25.6184 9.78315 26.944 9.77112 28.2423 10.0325C28.3943 10.0631 28.5015 10.1988 28.5015 10.353V11.321C28.5015 11.4664 28.5989 11.5922 28.7378 11.6349C29.9901 12.0133 31.1189 12.6761 32.0485 13.5489C32.1535 13.6474 32.311 13.6627 32.4357 13.5905L33.2703 13.1081C33.4048 13.0316 33.5754 13.0567 33.6782 13.1727C34.5303 14.1396 35.1964 15.2749 35.6164 16.5228C35.6656 16.6694 35.6021 16.8313 35.4676 16.9078L34.6276 17.3946C34.5029 17.4667 34.4428 17.6122 34.4756 17.7522C34.7698 19.0144 34.7676 20.3225 34.4745 21.576C34.4417 21.7171 34.5084 21.8625 34.6342 21.9358L35.4676 22.4171C35.6021 22.4936 35.6656 22.6555 35.6164 22.8021Z" fill="#72C2E9"/>
<path d="M23.0546 23.7295C23.0469 25.0803 22.99 26.1062 22.6236 27.1978C22.8533 27.3104 23.0885 27.4122 23.3291 27.5029C23.3356 27.4822 23.3433 27.4625 23.3499 27.4417C23.6988 26.3983 23.7906 25.4467 23.8147 24.2359C23.5456 24.0893 23.2919 23.9198 23.0546 23.7295ZM17.0356 16.817C17.0597 16.8542 17.0925 16.8859 17.1319 16.9111L18.1819 17.5804C19.3227 17.6942 20.3508 18.1481 21.1646 18.8372C21.2094 18.5572 21.2761 18.2837 21.3647 18.0201C20.2556 17.1911 18.9344 16.7864 17.6416 16.7864C17.4371 16.7864 17.2347 16.7962 17.0356 16.817Z" fill="#4BA5C8"/>
<path d="M21.638 24.1614V24.628C21.638 26.2159 20.7125 27.532 19.4966 28.1393C18.416 28.7005 17.0812 28.7742 15.8718 28.1448C14.7912 27.665 13.7305 26.2796 13.7305 24.6278V22.12C13.7305 21.7062 14.1013 21.3894 14.5106 21.4575L20.1393 22.3929C21.0041 22.5371 21.638 23.2854 21.638 24.1614Z" fill="#FFB69F"/>
<path d="M23.0564 22.9258C23.0564 23.2069 23.0564 23.4738 23.0542 23.7297C23.0466 25.0805 22.9897 26.1065 22.6233 27.198C22.4144 27.8258 22.1016 28.4755 21.6378 29.2204C21.2495 28.3902 19.4963 28.1397 19.4963 28.1397C20.7125 27.5316 21.6378 26.2158 21.6378 24.6277V24.1618C21.6378 23.2857 21.0045 22.5375 20.1394 22.3932L14.5109 21.458C14.1019 21.3891 13.73 21.7063 13.73 22.1197V24.6277C13.73 26.2793 14.7909 27.665 15.8716 28.1452C15.8716 28.1452 14.1008 28.4285 13.73 29.2204C12.3103 26.9388 12.3125 25.5585 12.3125 22.9258C12.3125 19.6566 15.188 17.2591 18.1816 17.5807C19.3223 17.6944 20.3505 18.1483 21.1642 18.8374C22.328 19.8218 23.0564 21.2874 23.0564 22.9258Z" fill="#7D7B79"/>
<path d="M25.0005 36.1598H10.3672L10.4068 33.0929C10.4167 32.3776 10.8514 31.7383 11.5127 31.4665L14.3187 30.3132C14.3187 32.4469 15.9968 33.5187 17.6837 33.5308C19.3706 33.5187 21.0487 32.4469 21.0487 30.3132L23.8548 31.4665C24.5162 31.7383 24.9508 32.3776 24.9607 33.0929L25.0005 36.1598Z" fill="#FC5D3D"/>
<path d="M21.0494 30.3138C21.0494 32.4475 19.3713 33.5192 17.6844 33.5314C15.9975 33.5192 14.3193 32.4475 14.3193 30.3138C14.9708 30.0496 14.7375 30.1455 15.1908 29.9583C15.6024 29.7911 15.872 29.3882 15.872 28.9448V28.1449C17.0814 28.7743 18.4162 28.7006 19.4968 28.1394V28.945C19.4968 29.3885 19.7664 29.7912 20.178 29.9584C20.6543 30.1542 20.3935 30.0475 21.0494 30.3138Z" fill="#FFB69F"/>
<path d="M28.9306 32.7046C28.5477 32.5781 28.1522 32.4675 27.9301 31.511C27.7256 32.392 27.398 32.5498 26.9297 32.7046C27.6936 32.957 27.8087 33.375 27.9301 33.8982C28.1394 32.9962 28.4857 32.8516 28.9306 32.7046Z" fill="#F0C020"/>
<path d="M27.6638 33.9601C27.5542 33.4874 27.4817 33.1751 26.8439 32.9644C26.5941 32.8819 26.5946 32.5274 26.8439 32.4451C27.2278 32.3182 27.4815 32.2344 27.6638 31.4493C27.7288 31.1686 28.1311 31.1679 28.1964 31.4493C28.382 32.2487 28.6573 32.3275 29.0164 32.4451C29.2662 32.5275 29.2657 32.882 29.0164 32.9644C28.6324 33.0912 28.3786 33.175 28.1965 33.9601C28.131 34.2421 27.7293 34.2421 27.6638 33.9601ZM27.5617 32.7106C27.7291 32.8291 27.8475 32.9626 27.935 33.1036C28.0385 32.9276 28.1566 32.8023 28.2873 32.7069C28.1614 32.6132 28.0397 32.4839 27.9312 32.2958C27.8233 32.4822 27.6993 32.6125 27.5617 32.7106Z" fill="black"/>
<path d="M15.5991 14.98C15.2161 14.8534 14.8206 14.7429 14.5986 13.7864C14.3941 14.6674 14.0665 14.8252 13.5981 14.98C14.362 15.2324 14.4772 15.6503 14.5986 16.1736C14.8078 15.2715 15.1541 15.127 15.5991 14.98Z" fill="#F0C020"/>
<path d="M14.3322 16.2353C14.2226 15.7625 14.1501 15.4503 13.5123 15.2395C13.2625 15.157 13.2631 14.8026 13.5123 14.7202C13.8963 14.5933 14.15 14.5095 14.3322 13.7245C14.3973 13.4438 14.7996 13.443 14.8649 13.7245C15.0505 14.5239 15.3258 14.6026 15.6849 14.7202C15.9347 14.8027 15.9341 15.1572 15.6849 15.2395C15.3008 15.3664 15.0471 15.4502 14.865 16.2353C14.7995 16.5171 14.3977 16.5172 14.3322 16.2353ZM14.2302 14.9858C14.3975 15.1042 14.516 15.2378 14.6035 15.3787C14.7069 15.2028 14.8251 15.0774 14.9558 14.982C14.8299 14.8883 14.7081 14.759 14.5996 14.5709C14.4918 14.7573 14.3678 14.8877 14.2302 14.9858Z" fill="black"/>
<path d="M26.3542 26.5762C25.9937 26.5762 25.9921 26.0317 26.3523 26.0293C29.8322 26.0061 32.6632 23.1497 32.6632 19.6619C32.6632 13.0135 23.6541 10.8371 20.6255 16.7747C20.4614 17.0964 19.974 16.8484 20.1384 16.5263C23.4208 10.0911 33.2101 12.4199 33.2101 19.6621C33.2101 23.4493 30.1354 26.551 26.3559 26.5763C26.3554 26.5762 26.3547 26.5762 26.3542 26.5762ZM25.222 26.4904C25.1125 26.4732 25.001 26.4528 24.8908 26.43C24.5371 26.3569 24.647 25.8215 25.0015 25.8945C25.1036 25.9155 25.2065 25.9343 25.3075 25.9504C25.6649 26.0069 25.5787 26.5473 25.222 26.4904Z" fill="#C5E5FE"/>
<path d="M24.5103 21.257C24.7748 21.5155 25.1475 21.1211 24.8975 20.8709L23.6539 19.6273L24.8975 18.3848C25.1524 18.1242 24.7659 17.7447 24.5114 17.9965C24.5114 17.9976 24.5114 17.9976 24.5103 17.9976L23.0742 19.4337C22.9681 19.5409 22.9681 19.7148 23.0742 19.8209L24.5103 21.257Z" fill="black"/>
<path d="M28.1033 21.2569C28.1033 21.2569 28.1033 21.2569 28.1033 21.2558L29.5394 19.8208C29.644 19.7162 29.6477 19.5443 29.5394 19.4336L28.1033 17.9975C27.8519 17.7488 27.4592 18.1226 27.7161 18.3847L28.9585 19.6272L27.7161 20.8708C27.4639 21.1227 27.8422 21.5122 28.1033 21.2569Z" fill="black"/>
<path d="M26.0477 21.2267L27.0811 18.3538C27.2032 18.0138 26.6891 17.8283 26.5665 18.1688L25.5331 21.0416C25.4097 21.3851 25.9255 21.5659 26.0477 21.2267Z" fill="black"/>
<path d="M19.0932 25.9938C19.2188 25.6497 18.7043 25.4657 18.5813 25.8024C18.2696 26.6281 17.0945 26.6222 16.7897 25.8024C16.6638 25.4674 16.152 25.6553 16.2768 25.9916V25.9927C16.7546 27.2873 18.607 27.2922 19.0932 25.9938Z" fill="black"/>
<path d="M15.5708 23.583V23.8158C15.5708 24.1771 16.1177 24.1776 16.1177 23.8158V23.583C16.1177 23.2217 15.5708 23.221 15.5708 23.583Z" fill="black"/>
<path d="M19.2515 23.583V23.8158C19.2515 24.1771 19.7983 24.1776 19.7983 23.8158V23.583C19.7983 23.2217 19.2515 23.221 19.2515 23.583Z" fill="black"/>
<path d="M17.958 25.0189V23.9565C17.958 23.5952 17.4111 23.5946 17.4111 23.9565V25.0189C17.4111 25.3802 17.958 25.3807 17.958 25.0189Z" fill="black"/>
<path d="M21.1032 26.6393C20.9818 26.5572 20.8046 26.5901 20.7226 26.7104C20.6356 26.8364 20.6703 27.0058 20.7937 27.091C20.9209 27.1756 21.0896 27.1425 21.1743 27.0199C21.2586 26.8952 21.2269 26.7246 21.1032 26.6393Z" fill="black"/>
<path d="M22.9988 31.1148C22.9417 31.2565 23.0098 31.4158 23.1475 31.4714C23.2848 31.529 23.447 31.4639 23.5041 31.3226C23.562 31.1826 23.4954 31.0229 23.3554 30.9661C23.2187 30.9092 23.0546 30.9781 22.9988 31.1148Z" fill="black"/>
<path d="M10.1332 33.089L10.0938 36.1558C10.0883 36.5155 10.6354 36.5238 10.6407 36.1635C10.6407 36.1624 10.6407 36.1624 10.6407 36.1624L10.68 33.0966C10.6888 32.4907 11.0563 31.9493 11.6174 31.7196L14.0641 30.7133C14.4653 34.8319 20.9037 34.8196 21.3036 30.7133L22.136 31.0557C22.471 31.1912 22.6794 30.6858 22.3438 30.5504C20.8133 29.9208 20.2917 29.7092 20.281 29.7048C19.9756 29.5806 19.7703 29.2752 19.7703 28.9446V28.3027C19.9871 28.1824 20.1944 28.0416 20.3881 27.8816C20.6664 27.6514 20.3201 27.2303 20.0392 27.4594C19.8335 27.6312 19.6093 27.7766 19.3742 27.8947L19.3709 27.8958C18.3285 28.4388 17.0873 28.4675 15.9977 27.9024L15.9824 27.8947C15.9823 27.8947 15.9822 27.8946 15.9821 27.8945C15.9806 27.8939 15.9791 27.8929 15.9775 27.8922C15.0144 27.4677 13.9973 26.1825 14.0038 24.6276V22.1196C14.0038 21.9009 14.1821 21.7215 14.3998 21.7215C14.4509 21.7215 20.0445 22.6537 20.0949 22.6621C20.831 22.7846 21.3648 23.4146 21.3648 24.1606C21.3648 24.6984 21.3914 25.1536 21.1745 25.8023C21.1274 25.9445 21.204 26.0998 21.3473 26.1479C21.4884 26.1949 21.647 26.1151 21.6929 25.9751C21.9398 25.242 21.9117 24.7077 21.9117 24.1606C21.9117 23.1444 21.1721 22.2863 20.1846 22.1229C14.0913 21.1107 14.5108 21.1746 14.3998 21.1746C13.8802 21.1746 13.4581 21.599 13.457 22.1196V24.6276C13.4634 26.2606 14.421 27.6968 15.5986 28.3129C15.5986 28.8751 15.6903 29.4599 15.0866 29.7052C15.0866 29.7052 14.4233 29.9747 11.4085 31.2131C10.645 31.5271 10.1451 32.2632 10.1332 33.089ZM15.2939 30.2113C16.2406 29.8266 16.1455 28.8813 16.1455 28.5684C17.1402 28.9634 18.2227 28.9573 19.2234 28.5616C19.2234 28.8777 19.1243 29.825 20.074 30.211C20.4432 30.3629 20.3785 30.3364 20.7703 30.4954C20.5856 34.1723 14.7829 34.1744 14.5974 30.496C15.0174 30.3258 14.9116 30.3691 15.2939 30.2113Z" fill="black"/>
<path d="M24.4009 31.4626C24.1168 31.2508 23.7807 31.6891 24.0761 31.9023C24.4523 32.1812 24.6809 32.6274 24.6875 33.0966L24.7269 36.1635C24.7321 36.5262 25.2789 36.52 25.2737 36.1559L25.2344 33.089C25.2257 32.4594 24.9266 31.8536 24.4009 31.4626Z" fill="black"/>
<path d="M22.3716 34.0397V36.1598C22.3716 36.5211 22.9185 36.5216 22.9185 36.1598V34.0397C22.9185 33.6785 22.3716 33.6779 22.3716 34.0397Z" fill="black"/>
<path d="M12.4497 34.0396V36.1597C12.4497 36.5209 12.9966 36.5215 12.9966 36.1597V34.0396C12.9966 33.8885 12.8742 33.7661 12.7231 33.7661C12.5721 33.7661 12.4497 33.8886 12.4497 34.0396Z" fill="black"/>
<path d="M12.0396 22.926C12.0396 25.5449 12.0311 27.0098 13.4975 29.3649C13.6877 29.6707 14.1556 29.3858 13.9624 29.0761C12.5831 26.8543 12.5864 25.5515 12.5864 22.926C12.5864 16.3556 22.85 15.7303 22.7813 23.7277C22.7725 25.1397 22.7047 26.0978 22.3646 27.1106C22.1567 27.7352 21.8516 28.3586 21.4064 29.0761C21.2109 29.3804 21.6791 29.6723 21.8702 29.3649C22.2667 28.728 22.5657 28.1386 22.7803 27.5714C23.1031 27.7156 23.4188 27.8378 23.8038 27.954C23.8246 27.9606 23.8388 27.9803 23.8399 28.0054V28.9723C23.8399 29.2567 24.0412 29.505 24.3179 29.5619C25.5826 29.814 26.9422 29.8319 28.2959 29.5608C28.5737 29.5039 28.7749 29.2567 28.7749 28.9723V28.0044C28.7738 27.9814 28.7913 27.9606 28.8176 27.9519C30.0841 27.569 31.2654 26.8854 32.2355 25.9754C32.2491 25.9619 32.2732 25.9567 32.299 25.9711L33.1335 26.4534C33.3843 26.5966 33.6934 26.5454 33.8828 26.3342C34.7753 25.3203 35.4458 24.162 35.8756 22.89L35.8767 22.8867C35.9661 22.6147 35.846 22.3185 35.6033 22.1801L34.7711 21.6989C34.7453 21.6848 34.7351 21.6554 34.7404 21.6387C35.048 20.3169 35.0391 18.963 34.7415 17.6903V17.6881C34.7353 17.6691 34.7445 17.6427 34.7645 17.6312L35.6046 17.1445C35.8362 17.011 35.9686 16.7261 35.8758 16.4369C35.4481 15.1659 34.7776 14.0065 33.8829 12.9915C33.6895 12.7757 33.3752 12.7322 33.1348 12.8712L32.2991 13.3536C32.2774 13.3656 32.2526 13.3661 32.2356 13.3492C31.2655 12.4392 30.0842 11.7567 28.8166 11.3739C28.7871 11.364 28.7739 11.34 28.775 11.3214V10.3534C28.775 10.069 28.5738 9.82185 28.296 9.76498C27.0151 9.50652 25.6395 9.49887 24.3191 9.76388C24.0413 9.81966 23.8389 10.0679 23.84 10.3534V11.3608C22.556 11.7414 21.3594 12.4294 20.3794 13.3492C20.3624 13.3661 20.3355 13.3657 20.316 13.3536L19.4803 12.8712C19.2291 12.7276 18.9177 12.7796 18.7311 12.9915C17.3137 14.5976 16.7044 16.394 16.7044 16.6359C16.7044 17.0126 16.9964 17.1489 17.2267 17.2959C14.4434 17.5111 12.0416 19.8576 12.0396 22.926ZM19.1402 13.3535C19.1593 13.3343 19.1861 13.3325 19.2058 13.3447L20.0425 13.8271C20.2656 13.9561 20.5642 13.9255 20.7524 13.7494C21.7214 12.8394 22.9081 12.1766 24.1846 11.831C24.3038 11.7992 24.3869 11.691 24.3869 11.5674V10.3533C24.3869 10.3227 24.4066 10.303 24.4263 10.2997C25.6389 10.058 26.9339 10.0477 28.1887 10.3008C28.2073 10.3041 28.228 10.3249 28.228 10.3533V11.3213C28.228 11.5871 28.4009 11.8178 28.6568 11.8966C29.8457 12.2553 30.9526 12.8963 31.8615 13.7483C32.0485 13.9233 32.3461 13.9572 32.5713 13.8281L33.4069 13.3447C33.4253 13.3342 33.4559 13.3348 33.4737 13.3546C34.7823 14.8392 35.3593 16.5144 35.3593 16.6238C35.3593 16.6424 35.3473 16.6621 35.3309 16.6708L34.4898 17.1575C34.2519 17.2963 34.1493 17.5746 34.2087 17.8127V17.8149C34.4831 18.989 34.5005 20.2634 34.2076 21.5139C34.1469 21.7846 34.2766 22.044 34.4963 22.1724L35.331 22.6536C35.3511 22.6656 35.3632 22.6864 35.3571 22.7149C34.9513 23.918 34.3169 25.0139 33.4727 25.971C33.4571 25.9903 33.4293 25.9914 33.406 25.9797L32.5725 25.4974C32.3491 25.3695 32.0586 25.3908 31.8605 25.5772C30.9527 26.4292 29.8458 27.0691 28.658 27.4289C28.401 27.5066 28.2281 27.7385 28.2281 28.0042V28.9722C28.2281 29.0007 28.2074 29.0214 28.1877 29.0247C26.9627 29.2708 25.6622 29.2719 24.4253 29.0258C24.4066 29.0225 24.3859 28.9985 24.3869 28.9722V28.0053C24.3869 27.7385 24.2163 27.5077 23.9625 27.43C23.6167 27.3258 23.2806 27.1985 22.9564 27.0527C23.2332 26.1321 23.3022 25.2341 23.3216 24.2603C24.302 24.8924 25.3986 25.1758 26.4803 25.1419C29.408 25.0489 31.7883 22.6292 31.7883 19.6633C31.7883 15.3245 26.9828 12.724 23.3589 15.0411C23.0532 15.236 23.3509 15.693 23.6541 15.5016C26.9366 13.4026 31.2414 15.7815 31.2414 19.6633C31.2414 22.3481 29.093 24.5147 26.4639 24.595C25.3222 24.616 24.2585 24.3004 23.3288 23.5958C23.3393 21.7329 23.0414 20.1507 21.4601 18.7353C21.5797 18.1119 21.8215 17.5007 22.1874 16.9453C22.3895 16.6421 21.9274 16.3465 21.7313 16.6446C21.3855 17.1689 21.1355 17.7395 20.9842 18.3497C20.2219 17.8031 19.2887 17.4276 18.2739 17.315C18.267 17.3106 17.2686 16.6763 17.2655 16.6686C17.1835 16.5592 17.9183 14.7395 19.1402 13.3535Z" fill="black"/>
<path d="M22.8449 16.1468C22.9534 16.0406 22.9537 15.8663 22.8481 15.7607C22.7453 15.6557 22.566 15.6546 22.461 15.7575C22.3538 15.8635 22.3527 16.0364 22.4588 16.1435C22.5646 16.2515 22.736 16.2534 22.8449 16.1468Z" fill="black"/>
</svg>
