<svg width="46" height="46" viewBox="0 0 46 46" fill="none" xmlns="http://www.w3.org/2000/svg">
<circle opacity="0.5" cx="23" cy="23" r="23" fill="#0E2A46"/>
<g clip-path="url(#clip0_421_541)">
<rect width="28" height="28" transform="translate(9 9)" fill="#0E2A46"/>
<path d="M31.5092 11.9463C30.985 11.4257 30.1285 11.4133 29.6135 11.943C29.5992 11.9577 29.5845 11.972 29.5697 11.9859C29.3876 12.1568 29.1124 12.1805 28.8947 12.0581C28.0074 11.5596 27.072 11.1789 26.1111 10.9165C25.862 10.8484 25.6837 10.6266 25.6778 10.3685C25.6777 10.3601 25.6776 10.3517 25.6775 10.3432V10.3427C25.6726 9.59791 25.0661 8.99738 24.3213 9.00001L21.2523 9.01073C20.51 9.01335 19.9126 9.62115 19.9227 10.3634C19.9228 10.3719 19.9227 10.3804 19.9226 10.3889C19.9185 10.6469 19.7419 10.8699 19.4934 10.9396C18.5342 11.2087 17.6013 11.596 16.7175 12.1008C16.5007 12.2246 16.2255 12.2028 16.0422 12.0333C16.0272 12.0195 16.0125 12.0053 15.9981 11.9906C15.4794 11.4646 14.623 11.4829 14.1024 12.0071L11.9462 14.1785C11.4293 14.699 11.4173 15.5629 11.9431 16.0744C11.949 16.0801 11.9548 16.0859 11.9605 16.0917C12.1471 16.2799 12.1837 16.5693 12.054 16.8004C11.5575 17.6855 11.1782 18.6183 10.9165 19.5766C10.8468 19.8322 10.6133 20.0088 10.3483 20.0102L10.3432 20.0102H10.3427C9.59785 20.0152 8.99738 20.6218 9.00001 21.3666L9.01067 24.4223C9.0133 25.1665 9.61863 25.7676 10.3628 25.765H10.3634C10.3718 25.765 10.3802 25.765 10.3886 25.7652C10.6468 25.7692 10.8699 25.9459 10.9397 26.1946C11.2085 27.1527 11.5952 28.0845 12.0992 28.9675C12.229 29.1948 12.1941 29.4801 12.012 29.6681C12.005 29.6754 11.9978 29.6826 11.9905 29.6898C11.4683 30.2047 11.4867 31.0687 12.0071 31.5855L14.1783 33.7416C14.7025 34.2621 15.5591 34.2744 16.0742 33.7448C16.0885 33.7301 16.1031 33.7158 16.118 33.7018C16.3001 33.5311 16.575 33.5073 16.7926 33.6296C17.6801 34.1283 18.6157 34.509 19.5767 34.7714C19.8257 34.8394 20.0038 35.0611 20.0098 35.3191C20.01 35.3276 20.0101 35.3361 20.0101 35.3447V35.3452C20.0101 36.0886 20.6141 36.6905 21.3575 36.688L24.4086 36.6773C25.155 36.6747 25.76 36.0715 25.7648 35.3251V35.3245C25.7648 35.3163 25.7648 35.3081 25.765 35.2998C25.7689 35.0413 25.946 34.818 26.195 34.7481C27.1537 34.4791 28.0861 34.0919 28.9695 33.5875C29.1868 33.4634 29.4625 33.4852 29.6461 33.6552C29.6607 33.6687 29.6751 33.6826 29.6892 33.6969C30.2082 34.223 31.0646 34.2052 31.5852 33.6808L33.7413 31.5095C34.2583 30.989 34.2703 30.125 33.7445 29.6135C33.6193 29.4917 33.5225 29.3497 33.4542 29.1968C34.0397 28.2206 34.4789 27.1816 34.7712 26.1109C34.8391 25.862 35.0608 25.684 35.3187 25.6781C35.3272 25.6779 35.3358 25.6778 35.3443 25.6778H35.3449C36.089 25.6752 36.6902 25.0698 36.6876 24.3256L36.6769 21.2615C36.6743 20.5181 36.0682 19.9181 35.3247 19.923H35.3242C35.3156 19.9231 35.307 19.923 35.2984 19.9229C35.0405 19.9188 34.8177 19.7423 34.748 19.494C34.4482 18.4253 34.0017 17.3893 33.4094 16.4173C33.4767 16.264 33.5724 16.1212 33.6967 15.9986C34.2189 15.4834 34.2009 14.6196 33.6804 14.1027L31.5092 11.9463Z" fill="#E07F84"/>
<path d="M22.8441 32.8436C28.3668 32.8436 32.8439 28.3666 32.8439 22.8438C32.8439 17.3211 28.3668 12.844 22.8441 12.844C17.3213 12.844 12.8442 17.3211 12.8442 22.8438C12.8442 28.3666 17.3213 32.8436 22.8441 32.8436Z" fill="#DB636E"/>
<path d="M22.8438 31.029C27.3643 31.029 31.029 27.3643 31.029 22.8438C31.029 18.3233 27.3643 14.6587 22.8438 14.6587C18.3233 14.6587 14.6587 18.3233 14.6587 22.8438C14.6587 27.3643 18.3233 31.029 22.8438 31.029Z" fill="#EAF2FF"/>
<path d="M22.8438 14.6587C22.2182 14.6587 21.6092 14.7292 21.0239 14.8621C24.6685 15.6896 27.3892 18.9488 27.3892 22.8438C27.3892 26.7388 24.6685 29.9981 21.0239 30.8256C21.6092 30.9585 22.2182 31.029 22.8438 31.029C27.3643 31.029 31.0289 27.3643 31.0289 22.8438C31.0289 18.3233 27.3643 14.6587 22.8438 14.6587Z" fill="#DBE8F9"/>
<path d="M26.5805 26.8852C26.5792 26.8852 26.578 26.8852 26.5768 26.8852C26.3461 26.8831 26.1606 26.6945 26.1626 26.4637C26.1672 25.935 26.1718 25.3476 26.176 24.7463H22.9725C22.8247 24.7463 22.6878 24.6682 22.6127 24.541C22.5376 24.4137 22.5353 24.2561 22.6067 24.1267C22.8551 23.6763 25.0461 19.7119 25.4557 19.2094C25.8489 18.7269 26.2538 18.7869 26.4097 18.8354C26.7428 18.9385 26.9804 19.2733 27.015 19.6882C27.037 19.9521 27.0287 22.093 27.0173 23.9108H27.5233C27.754 23.9108 27.9411 24.0978 27.9411 24.3286C27.9411 24.5594 27.754 24.7464 27.5233 24.7464H27.0117C27.0057 25.5982 27 26.2722 26.9983 26.471C26.9963 26.7005 26.8095 26.8852 26.5805 26.8852ZM23.6816 23.9107H26.1816C26.1941 21.9024 26.1999 19.9696 26.1822 19.7576C26.1793 19.722 26.1721 19.6936 26.1643 19.6719C26.1477 19.687 26.1272 19.7081 26.1034 19.7373C25.8625 20.0328 24.6079 22.2442 23.6816 23.9107Z" fill="#7FB2F9"/>
<path d="M19.8265 26.9574C18.4724 26.9574 18.3783 26.926 18.32 26.9066C18.1743 26.8581 18.0658 26.7492 18.0224 26.6079C17.9433 26.351 18.0461 26.2165 18.4786 25.6502C18.8484 25.166 19.5366 24.2648 20.6892 22.618C21.0552 22.0952 21.291 21.6214 21.3903 21.2096L21.4198 20.979C21.4065 20.1984 20.7673 19.5675 19.9835 19.5675C19.2985 19.5675 18.7057 20.0544 18.574 20.7251C18.5295 20.9516 18.3096 21.0989 18.0835 21.0546C17.8571 21.0102 17.7095 20.7905 17.754 20.5641C17.9625 19.5025 18.9001 18.7319 19.9835 18.7319C21.2364 18.7319 22.2557 19.7512 22.2557 21.004C22.2557 21.0217 22.2546 21.0395 22.2523 21.057L22.2164 21.3373C22.2147 21.3512 22.2122 21.365 22.209 21.3788C22.0882 21.8998 21.8072 22.478 21.3739 23.0972C20.2415 24.7151 19.5525 25.6207 19.1724 26.1186C19.8847 26.1244 21.0619 26.1174 22.1397 26.1038C22.1415 26.1038 22.1433 26.1038 22.1451 26.1038C22.3734 26.1038 22.5599 26.2874 22.5628 26.5164C22.5657 26.7471 22.3809 26.9365 22.1502 26.9394C21.1189 26.9523 20.3709 26.9574 19.8265 26.9574Z" fill="#7FB2F9"/>
<path d="M31.592 36.6876C34.4064 36.6876 36.6879 34.4061 36.6879 31.5917C36.6879 28.7774 34.4064 26.4958 31.592 26.4958C28.7776 26.4958 26.4961 28.7774 26.4961 31.5917C26.4961 34.4061 28.7776 36.6876 31.592 36.6876Z" fill="#EAF2FF"/>
<path d="M31.5916 26.4958C30.9481 26.4958 30.3326 26.6155 29.7656 26.8332C31.6779 27.5675 33.0355 29.4209 33.0355 31.5917C33.0355 33.7626 31.6779 35.616 29.7656 36.3503C30.3326 36.568 30.9481 36.6876 31.5916 36.6876C34.406 36.6876 36.6875 34.4061 36.6875 31.5917C36.6875 28.7774 34.406 26.4958 31.5916 26.4958Z" fill="#DBE8F9"/>
<path d="M30.7283 34.9073C30.6722 34.9073 30.6151 34.8959 30.5605 34.8719C30.3492 34.779 30.2532 34.5324 30.3461 34.3212L32.3943 29.6618H30.1488C29.918 29.6618 29.731 29.4748 29.731 29.244C29.731 29.0132 29.918 28.8262 30.1488 28.8262H32.5581C32.8051 28.8262 33.0333 28.9497 33.1683 29.1566C33.3034 29.3634 33.3246 29.622 33.2252 29.8482L31.1111 34.6576C31.0423 34.8141 30.889 34.9073 30.7283 34.9073Z" fill="#7FB2F9"/>
<path d="M31.5918 37C28.6097 37 26.1836 34.5739 26.1836 31.5918C26.1836 28.6098 28.6097 26.1836 31.5918 26.1836C34.5739 26.1836 37 28.6098 37 31.5918C37 34.5739 34.5739 37 31.5918 37ZM31.5918 27.0192C29.0704 27.0192 27.0192 29.0704 27.0192 31.5918C27.0192 34.1131 29.0704 36.1643 31.5918 36.1643C34.1131 36.1643 36.1644 34.1131 36.1644 31.5918C36.1644 29.0704 34.1131 27.0192 31.5918 27.0192Z" fill="#9BC4F9"/>
</g>
<defs>
<clipPath id="clip0_421_541">
<rect width="28" height="28" fill="white" transform="translate(9 9)"/>
</clipPath>
</defs>
</svg>
