<svg width="60" height="60" viewBox="0 0 60 60" fill="none" xmlns="http://www.w3.org/2000/svg">
<g clip-path="url(#clip0_309_580)">
<path d="M59.7749 37.1625L49.0874 24.8906C48.7874 24.5437 48.2812 24.4781 47.8968 24.7312L41.3718 29.0906C41.1655 29.2312 41.0249 29.4375 40.978 29.6812V29.7468C40.0499 29.6531 39.1312 29.5781 38.2218 29.5218C41.6062 26.4656 43.3218 23.5781 43.3218 20.9062V7.69683C43.3218 7.3312 43.1062 7.00308 42.7687 6.86245L30.3468 1.62183C30.1218 1.52808 29.8687 1.52808 29.6437 1.62183L17.2312 6.85308C16.8937 6.9937 16.678 7.32183 16.678 7.68745V20.9062C16.678 23.6531 18.478 26.6156 22.0405 29.7562C21.0187 29.6718 20.0062 29.6437 19.0218 29.6906V29.6812C18.9749 29.4375 18.8343 29.2218 18.628 29.0906L12.103 24.7312C11.728 24.4781 11.2124 24.5437 10.9124 24.8906L0.224909 37.1625C0.0561588 37.3593 -0.0282162 37.6218 0.00928377 37.875C0.0467838 38.1375 0.187409 38.3625 0.403034 38.5125L8.20303 43.8093C8.36241 43.9125 8.54053 43.9687 8.70928 43.9687C8.99053 43.9687 9.27178 43.8375 9.44991 43.5843L9.98428 42.8343C10.5843 43.6968 11.3062 44.6062 12.1218 45.3375C11.0812 46.7062 11.3155 48.675 12.6749 49.7437C13.2562 50.2031 13.9499 50.4281 14.6437 50.4281C14.6718 50.4281 14.6999 50.4187 14.728 50.4187C14.728 50.5406 14.7187 50.6624 14.7374 50.7843C14.8312 51.6093 15.2437 52.3406 15.8905 52.8562L16.003 52.9406C16.5562 53.3812 17.2218 53.6062 17.9155 53.6062C18.0374 53.6062 18.1593 53.5968 18.2812 53.5875C18.3374 53.5781 18.3843 53.5593 18.4405 53.5499C18.5624 54.2906 18.9374 54.9937 19.5655 55.4906L19.678 55.575C20.2499 56.025 20.9249 56.2406 21.5999 56.2406C21.9187 56.2406 22.2374 56.175 22.5374 56.0718C22.7062 56.6906 23.053 57.2531 23.5968 57.6843L23.7093 57.7687C24.2812 58.2187 24.9562 58.4343 25.6312 58.4343C26.5499 58.4343 27.4593 58.0312 28.0687 57.2625L28.2562 57.0281L28.7249 57.3843C29.2593 57.7687 29.9062 57.975 30.5905 57.975C31.6405 57.975 32.6249 57.4593 33.2155 56.6156C33.4968 56.2125 33.6749 55.7531 33.7499 55.275L34.6312 55.8937C35.2124 56.3062 35.878 56.4937 36.5437 56.4937C37.5937 56.4937 38.6249 55.9968 39.2812 55.0781C39.5999 54.6187 39.778 54.1125 39.8437 53.5875C40.3687 53.9062 40.9593 54.0656 41.5405 54.0656C42.5905 54.0656 43.6218 53.5687 44.278 52.65C44.5874 52.2093 44.7655 51.7031 44.8405 51.1781C45.3937 51.525 46.003 51.7031 46.6218 51.7031C47.6812 51.7031 48.7124 51.2062 49.3593 50.2781C49.7624 49.7062 49.9687 49.0406 49.9687 48.3656C49.9687 47.2875 49.4343 46.2656 48.5343 45.6281L47.9999 45.2625C48.6843 44.6343 49.3687 43.8187 50.0624 42.825L50.5968 43.5656C50.7749 43.8187 51.0562 43.95 51.3374 43.95C51.5155 43.95 51.6937 43.9031 51.8437 43.7906L59.6437 38.4937C59.8593 38.3437 59.9999 38.1187 60.0374 37.8562C60.028 37.6218 59.9437 37.3593 59.7749 37.1625ZM18.4968 20.9156V8.29683L29.9999 3.44995L41.5124 8.3062V20.9249C41.5124 23.3531 39.4499 26.2874 35.5593 29.4187C32.0249 29.3156 28.6687 29.4656 25.4155 29.8781C25.3218 29.8875 25.228 29.9249 25.1343 29.9625C20.7937 26.625 18.4968 23.5031 18.4968 20.9156ZM8.48428 41.8031L2.26866 37.5843L11.7562 26.6906L16.8374 30.0843L8.48428 41.8031ZM13.7905 48.3187C13.2093 47.8593 13.1062 47.0062 13.5562 46.4343L13.8749 46.0499C14.1374 45.7125 14.5405 45.5343 14.9343 45.5343C15.2249 45.5343 15.5249 45.6281 15.7687 45.825C16.3405 46.275 16.4343 47.0906 16.0218 47.6718L15.6843 48.0937C15.2249 48.6843 14.3812 48.7781 13.7905 48.3187ZM18.0562 51.7875C17.7187 51.825 17.3812 51.7312 17.1093 51.5156L16.9968 51.4312C16.4437 50.9906 16.3499 50.1843 16.7905 49.6312L17.1093 49.2375L17.4093 48.8718C17.4093 48.8625 17.4187 48.8625 17.4187 48.8531C17.4374 48.825 17.4562 48.7874 17.4749 48.7593L18.2812 47.7374C18.4968 47.4656 18.7968 47.2968 19.1343 47.2593C19.1812 47.25 19.2374 47.25 19.2843 47.25C19.5749 47.25 19.8468 47.3437 20.0812 47.5312L20.1937 47.6156C20.4655 47.8312 20.6343 48.1312 20.6718 48.4687C20.7093 48.8062 20.6155 49.1437 20.3999 49.4156L19.0405 51.1406L18.9093 51.3093C18.703 51.5812 18.403 51.75 18.0562 51.7875ZM20.7937 54.1593L20.6812 54.075C20.128 53.6343 20.0343 52.8281 20.4749 52.275L23.1187 48.9281C23.3343 48.6562 23.6343 48.4875 23.9718 48.45C24.0187 48.4406 24.0749 48.4406 24.1218 48.4406C24.4124 48.4406 24.6843 48.5343 24.9187 48.7218L25.0312 48.8062C25.303 49.0218 25.4718 49.3218 25.5093 49.6593C25.5468 49.9968 25.453 50.3343 25.2374 50.6062L23.5218 52.7812L23.0718 53.3531L22.5937 53.9531C22.153 54.5062 21.3468 54.6 20.7937 54.1593ZM25.7624 56.625C25.4249 56.6625 25.0874 56.5687 24.8155 56.3531L24.703 56.2687C24.1499 55.8281 24.0562 55.0218 24.4874 54.4687L25.0312 53.7843L25.0405 53.775C25.2562 53.5031 25.5562 53.3343 25.8937 53.2968C25.9405 53.2875 25.9968 53.2875 26.0437 53.2875C26.3343 53.2875 26.6062 53.3812 26.8405 53.5687L26.953 53.6531C27.5062 54.0937 27.5999 54.9 27.1593 55.4531L26.6155 56.1468C26.4093 56.4187 26.0999 56.5875 25.7624 56.625ZM47.8124 49.2562C47.3343 49.9406 46.3874 50.1 45.703 49.6312L43.453 48.0468C43.4437 48.0375 43.4343 48.0281 43.4249 48.0187L36.5718 43.1718C36.4499 43.0875 36.328 43.05 36.1874 43.0218C35.8405 42.9375 35.4562 43.0687 35.2405 43.3781C34.9499 43.7906 35.053 44.3531 35.4655 44.6437L42.403 49.5187C42.7124 49.7531 42.928 50.0906 42.9937 50.475C43.0593 50.8781 42.9749 51.2718 42.7405 51.6093C42.2624 52.2937 41.3155 52.4625 40.6312 51.9843L33.9937 47.2406C33.5812 46.95 33.0187 47.0437 32.728 47.4468C32.4374 47.8593 32.5312 48.4218 32.9343 48.7125L37.2843 51.825C37.3124 51.8531 37.3405 51.8906 37.378 51.9187C38.0624 52.3968 38.2312 53.3437 37.7437 54.0281C37.2655 54.7125 36.3187 54.8812 35.6343 54.3937L32.428 52.1343C32.4187 52.125 32.4093 52.1156 32.3999 52.1062L30.8905 51.0468C30.478 50.7562 29.9155 50.8593 29.6249 51.2625C29.5499 51.3656 29.503 51.4781 29.4843 51.5906C29.4093 51.9375 29.5405 52.3125 29.8499 52.5281L31.3687 53.5968C31.6687 53.8125 31.8655 54.1312 31.9312 54.4968C31.9968 54.8625 31.9124 55.2375 31.6968 55.5468C31.4343 55.9218 31.0218 56.1375 30.5624 56.1375C30.3562 56.1375 30.0468 56.0906 29.7843 55.9031L29.1562 55.4249C29.2593 55.0499 29.2874 54.6656 29.2405 54.2718C29.1468 53.4468 28.7343 52.7156 28.0874 52.2L27.9749 52.1156C27.6187 51.8343 27.2062 51.6468 26.7749 51.5437C27.2062 50.925 27.403 50.1843 27.3187 49.425C27.2249 48.6 26.8124 47.8687 26.1655 47.3531L26.053 47.2687C25.4062 46.7531 24.5905 46.5281 23.7749 46.6218C23.1937 46.6875 22.6499 46.9218 22.1999 47.2875C22.003 46.8656 21.7124 46.4812 21.328 46.1812L21.2155 46.0968C20.5687 45.5812 19.753 45.3562 18.9374 45.45C18.5718 45.4968 18.2249 45.6093 17.8968 45.7687C17.6999 45.2437 17.3718 44.7562 16.903 44.3906C15.8812 43.5843 14.5218 43.5093 13.4437 44.0812C12.6937 43.4343 11.8874 42.45 11.1093 41.2406L17.9905 31.575C19.5655 31.4156 21.2905 31.4437 22.9499 31.6593L21.2437 33.0281C20.6155 33.4593 20.2312 34.1812 20.2312 34.9406V39.6C20.2312 40.0218 20.4187 40.4062 20.7374 40.6781C20.9905 40.8843 21.2999 40.9968 21.628 40.9968C21.7124 40.9968 21.7968 40.9874 21.8812 40.9781C23.0437 40.7625 25.6874 39.9187 26.503 36.6H29.8687C30.3468 37.5187 31.4249 39.3187 32.9812 40.1343C33.1124 40.2 33.253 40.2374 33.3937 40.2374L37.4343 40.2843L47.4374 47.1281C47.8499 47.4187 48.0843 47.8687 48.0843 48.3656C48.103 48.6843 47.9999 48.9937 47.8124 49.2562ZM46.4062 44.2218L40.303 40.05C40.4624 39.8906 40.5562 39.675 40.5562 39.4218C40.5655 38.9156 40.1624 38.5125 39.6562 38.5031L33.6655 38.4375C32.4937 37.7062 31.5562 35.9812 31.2843 35.3437C31.1437 35.0062 30.8155 34.7906 30.4499 34.7906H25.7624C25.3124 34.7906 24.928 35.1187 24.8624 35.5687C24.5343 37.8843 23.128 38.7468 22.0593 39.075V34.95C22.0593 34.7812 22.1437 34.6312 22.3312 34.4906L25.903 31.6406C29.053 31.2562 32.3062 31.1156 35.7468 31.2281H35.8312C37.8468 31.2937 39.928 31.4531 42.0843 31.6875L48.8999 41.2593C48.0374 42.5718 47.1937 43.5843 46.4062 44.2218ZM51.5155 41.8031L50.7374 40.7062C50.7374 40.6968 50.728 40.6968 50.728 40.6875L43.1718 30.0843L48.253 26.6906L57.7405 37.5843L51.5155 41.8031Z" fill="white"/>
<path d="M28.2843 20.578C28.4624 20.7562 28.6968 20.8405 28.9312 20.8405C29.1655 20.8405 29.3999 20.7562 29.578 20.578L34.4624 15.6937C34.8187 15.3374 34.8187 14.7655 34.4624 14.4093C34.1062 14.053 33.5343 14.053 33.178 14.4093L28.9312 18.6562L27.5999 17.3249C27.2437 16.9687 26.6718 16.9687 26.3155 17.3249C25.9593 17.6812 25.9593 18.253 26.3155 18.6093L28.2843 20.578Z" fill="white"/>
<path d="M29.9999 25.1343C34.4624 25.1343 38.0999 21.4968 38.0999 17.0343C38.0999 12.5718 34.4624 8.93433 29.9999 8.93433C25.5374 8.93433 21.8999 12.5718 21.8999 17.0343C21.8999 21.4968 25.5374 25.1343 29.9999 25.1343ZM29.9999 10.7531C33.4593 10.7531 36.2812 13.575 36.2812 17.0343C36.2812 20.4937 33.4593 23.3156 29.9999 23.3156C26.5405 23.3156 23.7187 20.4937 23.7187 17.0343C23.7187 13.5656 26.5405 10.7531 29.9999 10.7531Z" fill="white"/>
</g>
<defs>
<clipPath id="clip0_309_580">
<rect width="60" height="60" fill="white"/>
</clipPath>
</defs>
</svg>
