<svg width="35" height="35" viewBox="0 0 35 35" fill="none" xmlns="http://www.w3.org/2000/svg">
<path d="M13.75 32.0438C13.7264 32.1227 13.6874 32.1962 13.6353 32.26C13.5833 32.3238 13.5191 32.3767 13.4465 32.4156C13.3738 32.4545 13.2943 32.4787 13.2123 32.4867C13.1303 32.4948 13.0475 32.4865 12.9688 32.4625C10.5008 31.7185 8.25598 30.3737 6.43547 28.5489C4.61496 26.724 3.27563 24.476 2.5375 22.0062C2.48943 21.8455 2.5072 21.6722 2.5869 21.5245C2.66661 21.3768 2.80171 21.2668 2.9625 21.2188C3.12329 21.1707 3.29659 21.1884 3.44427 21.2682C3.59196 21.3479 3.70193 21.483 3.75 21.6438C4.4296 23.9157 5.66331 25.983 7.34013 27.6599C9.01696 29.3367 11.0843 30.5704 13.3563 31.25C13.4343 31.2761 13.5065 31.3174 13.5686 31.3714C13.6307 31.4255 13.6815 31.4913 13.7181 31.565C13.7547 31.6388 13.7763 31.7191 13.7818 31.8012C13.7873 31.8834 13.7765 31.9658 13.75 32.0438ZM2.95625 13.75C3.03421 13.7765 3.11664 13.7873 3.19879 13.7818C3.28094 13.7763 3.3612 13.7547 3.43496 13.7181C3.50871 13.6815 3.57452 13.6307 3.62858 13.5686C3.68265 13.5065 3.72391 13.4343 3.75 13.3563C4.4296 11.0843 5.66331 9.01696 7.34013 7.34013C9.01696 5.66331 11.0843 4.4296 13.3563 3.75C13.5154 3.70193 13.6489 3.59261 13.7274 3.4461C13.806 3.29959 13.8231 3.12788 13.775 2.96875C13.7269 2.80962 13.6176 2.6761 13.4711 2.59757C13.3246 2.51904 13.1529 2.50193 12.9938 2.55C10.5226 3.2893 8.27364 4.63053 6.44865 6.45333C4.62367 8.27613 3.27976 10.5235 2.5375 12.9938C2.49642 13.1495 2.51703 13.315 2.59505 13.4559C2.67307 13.5968 2.80246 13.7022 2.95625 13.75ZM21.6438 3.75C23.9157 4.4296 25.983 5.66331 27.6599 7.34013C29.3367 9.01696 30.5704 11.0843 31.25 13.3563C31.2981 13.5154 31.4074 13.6489 31.5539 13.7274C31.7004 13.806 31.8721 13.8231 32.0312 13.775C32.1904 13.7269 32.3239 13.6176 32.4024 13.4711C32.481 13.3246 32.4981 13.1529 32.45 12.9938C31.7107 10.5226 30.3695 8.27364 28.5467 6.44865C26.7239 4.62367 24.4765 3.27976 22.0062 2.5375C21.8455 2.48943 21.6722 2.5072 21.5245 2.5869C21.3768 2.66661 21.2668 2.80171 21.2188 2.9625C21.1707 3.12329 21.1884 3.29659 21.2682 3.44427C21.3479 3.59196 21.483 3.70193 21.6438 3.75ZM32.0438 21.25C31.965 21.226 31.8822 21.2177 31.8002 21.2258C31.7182 21.2338 31.6387 21.258 31.566 21.2969C31.4934 21.3358 31.4293 21.3887 31.3772 21.4525C31.3251 21.5163 31.2861 21.5898 31.2625 21.6687C30.5782 23.9375 29.341 26.0007 27.6621 27.673C25.9832 29.3454 23.9151 30.5745 21.6438 31.25C21.4846 31.2981 21.3511 31.4074 21.2726 31.5539C21.194 31.7004 21.1769 31.8721 21.225 32.0312C21.2731 32.1904 21.3824 32.3239 21.5289 32.4024C21.6754 32.481 21.8471 32.4981 22.0062 32.45C24.4774 31.7107 26.7264 30.3695 28.5513 28.5467C30.3763 26.7239 31.7202 24.4765 32.4625 22.0062C32.5036 21.8505 32.483 21.685 32.405 21.5441C32.3269 21.4032 32.1975 21.2978 32.0438 21.25ZM15 2.5C15 2.00555 15.1466 1.5222 15.4213 1.11108C15.696 0.699953 16.0865 0.379521 16.5433 0.190302C17.0001 0.0010832 17.5028 -0.0484251 17.9877 0.0480379C18.4727 0.144501 18.9181 0.382603 19.2678 0.732234C19.6174 1.08187 19.8555 1.52732 19.952 2.01228C20.0484 2.49723 19.9989 2.99989 19.8097 3.45671C19.6205 3.91353 19.3001 4.30397 18.8889 4.57868C18.4778 4.85338 17.9945 5 17.5 5C16.837 5 16.2011 4.73661 15.7322 4.26777C15.2634 3.79893 15 3.16304 15 2.5ZM35 17.5C35 17.9945 34.8534 18.4778 34.5787 18.8889C34.304 19.3001 33.9135 19.6205 33.4567 19.8097C32.9999 19.9989 32.4972 20.0484 32.0123 19.952C31.5273 19.8555 31.0819 19.6174 30.7322 19.2678C30.3826 18.9181 30.1445 18.4727 30.048 17.9877C29.9516 17.5028 30.0011 17.0001 30.1903 16.5433C30.3795 16.0865 30.7 15.696 31.1111 15.4213C31.5222 15.1466 32.0055 15 32.5 15C33.163 15 33.7989 15.2634 34.2678 15.7322C34.7366 16.2011 35 16.837 35 17.5ZM20 32.5C20 32.9945 19.8534 33.4778 19.5787 33.8889C19.304 34.3 18.9135 34.6205 18.4567 34.8097C17.9999 34.9989 17.4972 35.0484 17.0123 34.952C16.5273 34.8555 16.0819 34.6174 15.7322 34.2678C15.3826 33.9181 15.1445 33.4727 15.048 32.9877C14.9516 32.5028 15.0011 32.0001 15.1903 31.5433C15.3795 31.0865 15.7 30.696 16.1111 30.4213C16.5222 30.1466 17.0055 30 17.5 30C18.163 30 18.7989 30.2634 19.2678 30.7322C19.7366 31.2011 20 31.837 20 32.5ZM2.5 20C2.00555 20 1.5222 19.8534 1.11108 19.5787C0.699953 19.304 0.379521 18.9135 0.190302 18.4567C0.0010832 17.9999 -0.0484251 17.4972 0.0480379 17.0123C0.144501 16.5273 0.382603 16.0819 0.732234 15.7322C1.08187 15.3826 1.52732 15.1445 2.01228 15.048C2.49723 14.9516 2.99989 15.0011 3.45671 15.1903C3.91353 15.3795 4.30397 15.7 4.57868 16.1111C4.85338 16.5222 5 17.0055 5 17.5C5 18.163 4.73661 18.7989 4.26777 19.2678C3.79893 19.7366 3.16304 20 2.5 20ZM13.3188 9.4125C14.0613 9.32665 14.8135 9.38966 15.5314 9.59784C16.2494 9.80603 16.9186 10.1552 17.5 10.625C18.0729 10.1454 18.7373 9.78735 19.4529 9.57247C20.1684 9.35759 20.9202 9.29041 21.6625 9.375C22.4002 9.44532 23.1157 9.66587 23.765 10.0231C24.4143 10.3803 24.9837 10.8666 25.438 11.452C25.8923 12.0375 26.222 12.7097 26.4068 13.4274C26.5916 14.145 26.6276 14.8929 26.5125 15.625H27.5C27.6658 15.625 27.8247 15.6908 27.9419 15.8081C28.0592 15.9253 28.125 16.0842 28.125 16.25C28.125 16.4158 28.0592 16.5747 27.9419 16.6919C27.8247 16.8092 27.6658 16.875 27.5 16.875H26.25C25.9766 17.7118 25.5123 18.4736 24.8938 19.1L18.3813 25.625C18.147 25.8578 17.8302 25.9885 17.5 25.9885C17.1698 25.9885 16.853 25.8578 16.6188 25.625L10.1125 19.1C9.65254 18.6359 9.27805 18.0942 9.00625 17.5H7.5C7.33424 17.5 7.17527 17.4342 7.05806 17.3169C6.94085 17.1997 6.875 17.0408 6.875 16.875C6.875 16.7092 6.94085 16.5503 7.05806 16.4331C7.17527 16.3158 7.33424 16.25 7.5 16.25H8.5625C8.36969 15.451 8.35139 14.6197 8.50886 13.813C8.66633 13.0062 8.99586 12.2429 9.475 11.575C9.93697 10.9742 10.5156 10.4729 11.1761 10.1013C11.8366 9.72972 12.5654 9.49542 13.3188 9.4125ZM24.9 16.875H22.7563L21.5063 18.125C21.2729 18.3597 20.956 18.4924 20.625 18.4938C20.4594 18.4943 20.2954 18.4603 20.1437 18.3938C19.9166 18.299 19.7226 18.1394 19.5858 17.9348C19.4491 17.7302 19.3757 17.4898 19.375 17.2438V15.8813L17.1313 18.125C16.9562 18.2995 16.7333 18.4182 16.4908 18.466C16.2482 18.5138 15.997 18.4887 15.7688 18.3938C15.5416 18.299 15.3476 18.1394 15.2108 17.9348C15.074 17.7302 15.0007 17.4898 15 17.2438V15.8813L13.75 17.1313C13.5167 17.366 13.1997 17.4986 12.8688 17.5H10.4375C10.5977 17.7581 10.7841 17.9989 10.9938 18.2188L17.5 24.725L24.0063 18.2188C24.3873 17.832 24.6906 17.3759 24.9 16.875ZM13.4625 10.6563C12.8796 10.7209 12.3159 10.9033 11.8056 11.1923C11.2953 11.4813 10.849 11.8709 10.4938 12.3375C10.0971 12.8983 9.83443 13.5427 9.72607 14.221C9.61771 14.8994 9.66653 15.5935 9.86875 16.25H12.85L14.1 15C14.2751 14.8255 14.498 14.7068 14.7405 14.659C14.983 14.6112 15.2343 14.6363 15.4625 14.7313C15.6931 14.8231 15.8912 14.9815 16.0314 15.1863C16.1717 15.3911 16.2478 15.633 16.25 15.8813V17.2438L18.4938 15C18.6688 14.8255 18.8917 14.7068 19.1342 14.659C19.3768 14.6112 19.628 14.6363 19.8563 14.7313C20.0834 14.826 20.2774 14.9856 20.4142 15.1902C20.551 15.3948 20.6243 15.6352 20.625 15.8813V17.2438L21.875 15.9938C22.1083 15.759 22.4253 15.6264 22.7563 15.625H25.2563C25.3689 15.052 25.3602 14.4617 25.2308 13.8923C25.1014 13.3228 24.8542 12.7868 24.5051 12.3187C24.1559 11.8506 23.7126 11.4608 23.2036 11.1745C22.6946 10.8882 22.1313 10.7116 21.55 10.6563C20.9693 10.5882 20.3809 10.6371 19.8194 10.8003C19.258 10.9635 18.735 11.2375 18.2813 11.6063C18.0616 11.7776 17.791 11.8706 17.5125 11.8706C17.234 11.8706 16.9634 11.7776 16.7438 11.6063C15.9565 10.9658 14.9711 10.6189 13.9563 10.625C13.7912 10.6263 13.6264 10.6367 13.4625 10.6563Z" fill="white"/>
</svg>
