<svg width="72" height="73" viewBox="0 0 72 73" fill="none" xmlns="http://www.w3.org/2000/svg">
<path d="M15.5875 34.0081L9.92502 17.6956C9.68551 16.7402 9.09394 15.9106 8.26877 15.3729C7.4436 14.8351 6.44574 14.6289 5.47502 14.7956C4.97723 14.9017 4.50618 15.1079 4.09043 15.4015C3.67468 15.6951 3.32289 16.0701 3.05639 16.5037C2.7899 16.9374 2.61425 17.4206 2.5401 17.9241C2.46595 18.4277 2.49484 18.9411 2.62502 19.4331L8.45002 37.4206L15.5875 34.0081Z" fill="#FFAC96"/>
<path d="M56.3125 34.0081L61.975 17.6956C62.2145 16.7402 62.8061 15.9106 63.6313 15.3729C64.4564 14.8351 65.4543 14.6289 66.425 14.7956C66.9228 14.9017 67.3938 15.1079 67.8096 15.4015C68.2253 15.6951 68.5771 16.0701 68.8436 16.5037C69.1101 16.9374 69.2858 17.4206 69.3599 17.9241C69.4341 18.4277 69.4052 18.9411 69.275 19.4331L63.45 37.4206L56.3125 34.0081Z" fill="#FFAC96"/>
<path d="M27.2575 40.7731L16.2075 34.2956C15.4429 33.854 14.5467 33.6969 13.6775 33.8523C12.8082 34.0076 12.0219 34.4653 11.4575 35.1444L7.42502 22.6956C7.18551 21.7402 6.59394 20.9106 5.76877 20.3729C4.9436 19.8351 3.94574 19.6289 2.97502 19.7956C2.47723 19.9017 2.00618 20.1078 1.59043 20.4015C1.17468 20.6951 0.822888 21.0701 0.556394 21.5037C0.289901 21.9374 0.114254 22.4206 0.0401026 22.9241C-0.0340484 23.4277 -0.00515813 23.9411 0.125022 24.4331L5.56252 44.7206C5.81195 45.6695 6.33853 46.5224 7.07502 47.1706L15.525 54.6831C16.0522 55.1525 16.4741 55.7283 16.7628 56.3725C17.0515 57.0167 17.2005 57.7147 17.2 58.4206V62.4206H32.2V49.4006C32.2001 47.6564 31.7441 45.9425 30.877 44.429C30.01 42.9156 28.7622 41.6552 27.2575 40.7731Z" fill="#FFBCAB"/>
<path d="M68.9252 19.7956C67.9545 19.6289 66.9566 19.8351 66.1314 20.3729C65.3063 20.9106 64.7147 21.7402 64.4752 22.6956L60.4377 35.1444C59.8733 34.4653 59.087 34.0076 58.2177 33.8523C57.3485 33.6969 56.4523 33.854 55.6877 34.2956L44.6377 40.7731C43.1339 41.6559 41.8871 42.9165 41.021 44.4299C40.1549 45.9433 39.6996 47.6569 39.7002 49.4006V62.4206H54.7002V58.4206C54.6997 57.7147 54.8488 57.0167 55.1375 56.3725C55.4261 55.7283 55.848 55.1525 56.3752 54.6831L64.8252 47.1706C65.5617 46.5224 66.0883 45.6695 66.3377 44.7206L71.7752 24.4331C71.9054 23.9411 71.9343 23.4277 71.8601 22.9241C71.786 22.4206 71.6103 21.9374 71.3438 21.5037C71.0773 21.0701 70.7255 20.6951 70.3098 20.4015C69.894 20.1078 69.423 19.9017 68.9252 19.7956Z" fill="#FFBCAB"/>
<path d="M38.4502 62.4204V72.4204H55.9502V62.4204H54.7002H39.7002H38.4502Z" fill="#006DF0"/>
<path d="M33.4502 62.4204H32.2002H17.2002H15.9502V72.4204H33.4502V62.4204Z" fill="#006DF0"/>
<path d="M52.7501 19.3705L51.8626 20.258L35.9501 36.1705L20.0376 20.258L19.1501 19.3705C18.0691 18.334 17.2059 17.0921 16.6112 15.7176C16.0164 14.3431 15.7021 12.8637 15.6866 11.3661C15.6712 9.86852 15.9549 8.38293 16.5212 6.99645C17.0874 5.60997 17.9248 4.35051 18.9842 3.29192C20.0436 2.23334 21.3037 1.39694 22.6907 0.831776C24.0776 0.266613 25.5634 -0.0159378 27.061 0.00069377C28.5585 0.0173253 30.0377 0.332804 31.4117 0.92863C32.7858 1.52446 34.027 2.38863 35.0626 3.47049L35.9501 4.35799L36.8376 3.47049C37.8733 2.38863 39.1145 1.52446 40.4886 0.92863C41.8626 0.332804 43.3417 0.0173253 44.8393 0.00069377C46.3369 -0.0159378 47.8227 0.266613 49.2096 0.831776C50.5965 1.39694 51.8566 2.23334 52.9161 3.29192C53.9755 4.35051 54.8129 5.60997 55.3791 6.99645C55.9454 8.38293 56.2291 9.86852 56.2136 11.3661C56.1982 12.8637 55.8839 14.3431 55.2891 15.7176C54.6944 17.0921 53.8312 18.334 52.7501 19.3705Z" fill="#D80027"/>
<path d="M52.7502 3.4706C51.5609 2.2687 50.1134 1.35368 48.5175 0.795077C46.9216 0.236474 45.2194 0.0489833 43.5402 0.246852C45.6454 0.480168 47.6419 1.30346 49.2997 2.6219C50.9575 3.94033 52.2091 5.70026 52.9103 7.69895C53.6116 9.69763 53.7339 11.8538 53.2633 13.9189C52.7926 15.9841 51.7482 17.8743 50.2502 19.3719L49.3627 20.2594L34.7002 34.9206L35.9502 36.1706L51.8627 20.2581L52.7502 19.3706C54.857 17.2612 56.0403 14.4019 56.0403 11.4206C56.0403 8.43934 54.857 5.57998 52.7502 3.4706Z" fill="#BD0022"/>
<path d="M38.4502 23.6704V18.6704H43.4502V13.6704H38.4502V8.67041H33.4502V13.6704H28.4502V18.6704H33.4502V23.6704H38.4502Z" fill="#F1F2F2"/>
<path d="M59.4425 38.2954L51.0875 42.9204C50.8487 43.0587 50.6717 43.2829 50.5925 43.5472C50.5133 43.8115 50.5379 44.0961 50.6613 44.3429C50.7272 44.4749 50.8195 44.592 50.9324 44.687C51.0454 44.782 51.1765 44.8529 51.3179 44.8952C51.4592 44.9376 51.6077 44.9507 51.7543 44.9335C51.9008 44.9163 52.0423 44.8693 52.17 44.7954L59.4425 40.7954C60.2018 40.3553 60.7827 39.6627 61.0839 38.8384C61.3852 38.0141 61.3878 37.1102 61.0913 36.2842C60.8021 37.1314 60.2166 37.8456 59.4425 38.2954Z" fill="#FFAC96"/>
<path d="M12.4576 38.2954L20.8126 42.9204C21.0514 43.0587 21.2285 43.2829 21.3077 43.5472C21.3869 43.8115 21.3623 44.0961 21.2389 44.3429C21.1729 44.4749 21.0806 44.592 20.9677 44.687C20.8548 44.782 20.7236 44.8529 20.5823 44.8952C20.441 44.9376 20.2925 44.9507 20.1459 44.9335C19.9993 44.9163 19.8579 44.8693 19.7301 44.7954L12.4576 40.7954C11.6984 40.3553 11.1175 39.6627 10.8162 38.8384C10.515 38.0141 10.5124 37.1102 10.8089 36.2842C11.0981 37.1314 11.6836 37.8456 12.4576 38.2954Z" fill="#FFAC96"/>
</svg>
