<svg width="40" height="40" viewBox="0 0 40 40" fill="none" xmlns="http://www.w3.org/2000/svg">
<g clip-path="url(#clip0_307_348)">
<path d="M19.9999 9.67749C18.9327 9.67749 18.0645 10.5458 18.0645 11.613C18.0645 12.6801 18.9327 13.5484 19.9999 13.5484C21.0672 13.5484 21.9354 12.6801 21.9354 11.613C21.9354 10.5458 21.0672 9.67749 19.9999 9.67749ZM19.9999 12.2581C19.6442 12.2581 19.3548 11.9687 19.3548 11.613C19.3548 11.2573 19.6442 10.9678 19.9999 10.9678C20.3556 10.9678 20.6451 11.2573 20.6451 11.613C20.6451 11.9687 20.3558 12.2581 19.9999 12.2581Z" fill="white"/>
<path d="M20 6.45166C17.154 6.45166 14.8386 8.76697 14.8386 11.613C14.8386 14.459 17.1539 16.7743 20 16.7743C22.846 16.7743 25.1612 14.459 25.1612 11.613C25.1612 8.76697 22.846 6.45166 20 6.45166ZM20.6452 15.4292V14.1936H19.3549V15.4292C17.7366 15.1564 16.4567 13.8765 16.1839 12.2581H17.4194V10.9678H16.1839C16.4566 9.34947 17.7365 8.06963 19.3549 7.79682V9.03236H20.6452V7.79674C22.2635 8.06947 23.5434 9.34939 23.8162 10.9678H22.5807V12.2581H23.8162C23.5435 13.8765 22.2635 15.1563 20.6452 15.4292Z" fill="white"/>
<path d="M34.8386 32.9786V30.9677H33.5483V32.5254C32.7283 32.2762 31.8449 32.0691 30.9677 31.8981V28.3871H29.6773V31.6697C28.726 31.517 27.8265 31.4048 27.075 31.3246C27.0178 30.943 26.8486 30.5975 26.6022 30.3227C26.9094 29.9799 27.0967 29.5277 27.0967 29.0323C27.0967 28.1913 26.5572 27.4742 25.8064 27.2078V23.5131L28.2026 21.3566C28.7436 20.8695 29.2362 20.3387 29.6774 19.7718V21.9354H30.9677V17.7234C31.5196 16.6184 31.9046 15.4295 32.1029 14.1935H33.5483V17.6865L39.6221 11.6129L33.5484 5.5393V9.03227H31.8306C31.1589 6.5657 29.7079 4.33961 27.7057 2.72039C25.5364 0.966094 22.8024 0 20.0073 0H19.9925C17.1974 0 14.4634 0.966094 12.2943 2.72039C10.2921 4.33969 8.84113 6.5657 8.16941 9.03227H6.45152V5.5393L0.37793 11.6129L6.45152 17.6865V14.1935H7.89691C8.09512 15.4295 8.48027 16.6184 9.03215 17.7234V21.9355H10.3225V19.7718C10.7636 20.3387 11.2561 20.8695 11.7972 21.3566L14.1934 23.5131V27.2078C13.4425 27.4741 12.9031 28.1913 12.9031 29.0323C12.9031 29.5277 13.0904 29.9799 13.3975 30.3227C13.1511 30.5976 12.982 30.943 12.9247 31.3246C12.1732 31.4049 11.2738 31.517 10.3225 31.6697V28.3872H9.03215V31.8982C8.15496 32.0692 7.27152 32.2762 6.45152 32.5255V30.9678H5.16121V32.9787C3.6502 33.5971 2.58059 34.413 2.58059 35.4839C2.58059 36.8884 4.40176 38.0209 7.99371 38.8497C11.2082 39.5916 15.472 40 19.9999 40C24.5278 40 28.7918 39.5916 32.0061 38.8497C35.598 38.0208 37.4192 36.8884 37.4192 35.4839C37.4193 34.413 36.3497 33.5971 34.8386 32.9786ZM25.8064 31.6129C25.8064 31.9686 25.5169 32.258 25.1612 32.258H14.8386C14.4829 32.258 14.1935 31.9686 14.1935 31.6129C14.1935 31.2572 14.4829 30.9677 14.8386 30.9677H25.1612C25.517 30.9677 25.8064 31.2572 25.8064 31.6129ZM24.3232 33.5484C23.7497 35.0805 22.2845 36.129 20.5917 36.129H19.4082C17.7154 36.129 16.2503 35.0805 15.6767 33.5484H24.3232ZM34.8386 10.3226V8.6543L37.7972 11.6129L34.8386 14.5715V12.9032H27.7418V10.3226H34.8386ZM19.9926 1.29031H20.0075C24.8904 1.29031 29.0904 4.435 30.4882 9.03227H27.742H27.0968H26.8144C26.6738 9.03227 26.614 8.93875 26.591 8.88281C26.5679 8.82711 26.5439 8.71859 26.6433 8.61922L27.2993 7.96336L23.6496 4.31375L22.9937 4.96961C22.8942 5.0693 22.7857 5.04523 22.73 5.02211C22.6743 4.99898 22.5807 4.9393 22.5807 4.79867V3.87094H17.4193V4.79859C17.4193 4.93922 17.3258 4.99891 17.27 5.02203C17.2143 5.04508 17.1057 5.06906 17.0063 4.96953L16.3504 4.31367L12.7009 7.96328L13.3568 8.61922C13.4562 8.71859 13.4323 8.82703 13.4092 8.88281C13.3861 8.93859 13.3264 9.03227 13.1857 9.03227H12.9033H12.2582H9.51184C10.9096 4.43508 15.1096 1.29031 19.9926 1.29031ZM25.5048 15.232L23.6191 17.1177C23.2077 16.8666 22.6961 16.8211 22.2361 17.0117C21.7763 17.2021 21.4467 17.5961 21.3334 18.0646H18.6666C18.5533 17.5961 18.2237 17.2022 17.7639 17.0117C17.304 16.8211 16.7924 16.8666 16.3809 17.1177L14.4953 15.232C14.7464 14.8205 14.7919 14.3091 14.6014 13.8492C14.4109 13.3894 14.0169 13.0597 13.5485 12.9464V10.2796C14.017 10.1663 14.4109 9.83664 14.6014 9.3768C14.7918 8.91695 14.7464 8.40531 14.4953 7.99398L16.381 6.1082C16.7925 6.35938 17.3039 6.40492 17.7639 6.2143C18.2237 6.02391 18.5533 5.62992 18.6666 5.16141H21.3334C21.4467 5.62992 21.7764 6.02383 22.2361 6.2143C22.6961 6.40477 23.2077 6.35945 23.619 6.1082L25.5047 7.99398C25.2536 8.40547 25.2081 8.91695 25.3986 9.3768C25.5891 9.83664 25.9831 10.1663 26.4515 10.2796V12.9464C25.983 13.0597 25.5891 13.3894 25.3986 13.8492C25.2082 14.3091 25.2536 14.8205 25.5048 15.232ZM5.16121 12.9032V14.5715L2.2027 11.6129L5.16129 8.6543V10.3226H12.2581V12.9032H5.16121ZM12.6605 20.3975C10.8454 18.7638 9.63559 16.5822 9.2059 14.1935H12.258H12.9032H13.1856C13.3262 14.1935 13.386 14.287 13.409 14.343C13.4321 14.3987 13.4561 14.5072 13.3566 14.6066L12.7007 15.2625L16.3504 18.9122L17.0061 18.2562C17.1057 18.1568 17.2141 18.1808 17.27 18.2038C17.3257 18.2269 17.4193 18.2866 17.4193 18.4272V19.3548H22.5806V18.4271C22.5806 18.2865 22.6741 18.2268 22.73 18.2037C22.7857 18.1807 22.8943 18.1567 22.9936 18.2559L23.6495 18.9121L27.2993 15.2623L26.6432 14.6065C26.5438 14.5071 26.5677 14.3987 26.5908 14.3429C26.6139 14.2871 26.6736 14.1934 26.8143 14.1934H27.0967H27.7418H30.7939C30.3643 16.582 29.1545 18.7637 27.3393 20.3974L24.516 22.9384V27.0967H23.2257V22.9793L23.8025 22.6909C24.2426 22.4709 24.5159 22.0287 24.5159 21.5366V20.6451H23.2256V21.5367L22.6487 21.8252C22.2086 22.0451 21.9354 22.4873 21.9354 22.9794V27.0967H20.645V20.6451H19.3546V27.0967H18.0643V22.9793C18.0643 22.4873 17.791 22.045 17.3511 21.8252L16.774 21.5366V20.6451H15.4837V21.5367C15.4837 22.0288 15.7571 22.471 16.1969 22.6909L16.774 22.9794V27.0967H15.4837V22.9384L12.6605 20.3975ZM14.8386 28.3871H25.1612C25.5169 28.3871 25.8064 28.6766 25.8064 29.0323C25.8064 29.388 25.5169 29.6774 25.1612 29.6774H14.8386C14.4829 29.6774 14.1935 29.388 14.1935 29.0323C14.1935 28.6766 14.4829 28.3871 14.8386 28.3871ZM31.7161 37.5924C28.5939 38.3129 24.4332 38.7097 20 38.7097C15.5668 38.7097 11.4059 38.3129 8.28395 37.5924C4.79332 36.7869 3.87098 35.8609 3.87098 35.4839C3.87098 34.8452 6.1584 33.3227 13.1724 32.5958C13.4207 33.0153 13.8229 33.3331 14.3006 33.4716C14.8987 35.7853 16.9767 37.4194 19.4083 37.4194H20.5918C23.0235 37.4194 25.1014 35.7853 25.6995 33.4717C26.1772 33.3332 26.5793 33.0152 26.8277 32.5959C33.8417 33.3227 36.1289 34.8452 36.1289 35.4839C36.1289 35.8609 35.2067 36.7869 31.7161 37.5924Z" fill="white"/>
<path d="M34.8387 18.0645H33.5483V24.5161H34.8387V18.0645Z" fill="white"/>
<path d="M34.8387 25.8064H33.5483V27.0967H34.8387V25.8064Z" fill="white"/>
<path d="M34.8387 28.3872H33.5483V29.6775H34.8387V28.3872Z" fill="white"/>
<path d="M30.9676 23.2258H29.6772V24.5161H30.9676V23.2258Z" fill="white"/>
<path d="M30.9676 25.8064H29.6772V27.0967H30.9676V25.8064Z" fill="white"/>
<path d="M6.45145 18.0645H5.16113V24.5161H6.45145V18.0645Z" fill="white"/>
<path d="M6.45145 25.8064H5.16113V27.0967H6.45145V25.8064Z" fill="white"/>
<path d="M6.45145 28.3872H5.16113V29.6775H6.45145V28.3872Z" fill="white"/>
<path d="M10.3225 23.2258H9.03223V24.5161H10.3225V23.2258Z" fill="white"/>
<path d="M10.3225 25.8064H9.03223V27.0967H10.3225V25.8064Z" fill="white"/>
</g>
<defs>
<clipPath id="clip0_307_348">
<rect width="40" height="40" fill="white"/>
</clipPath>
</defs>
</svg>
