<svg width="81" height="81" viewBox="0 0 81 81" fill="none" xmlns="http://www.w3.org/2000/svg">
<circle opacity="0.2" cx="40.5" cy="40.5" r="40.5" fill="#05AF79"/>
<path d="M46.341 53.5682H45.644C46.8107 53.5682 47.7501 54.5151 47.7501 55.6742C47.7501 56.2575 47.5152 56.7803 47.1365 57.1666C46.7577 57.5454 46.2274 57.7803 45.644 57.7803H44.9168C46.0834 57.7803 47.0228 58.7272 47.0228 59.8863C47.0228 60.4697 46.788 60.9924 46.4092 61.3788C46.0304 61.7575 45.5001 61.9924 44.9168 61.9924H33.4319C32.038 61.9924 30.9092 60.8636 30.9092 59.4697V46.9697L34.9243 42.6894C34.9243 42.6894 36.8561 40.6969 37.4622 37.1363V37.0909C37.4622 36.6591 37.6365 36.2651 37.9243 35.9848C38.2046 35.7045 38.5986 35.5303 39.0304 35.5303C39.8031 35.5303 40.4546 36.0909 40.5834 36.8485C40.8789 38.6288 41.1289 41.9545 39.8031 45.1363H45.6516C46.8183 45.1363 47.7577 46.0833 47.7577 47.2424C47.7577 47.8257 47.5228 48.3485 47.144 48.7348C46.7652 49.1136 46.2349 49.3485 45.6516 49.3485H46.3486C47.5152 49.3485 48.4546 50.2954 48.4546 51.4545C48.4546 52.0378 48.2198 52.5606 47.841 52.9469C47.4546 53.3333 46.9243 53.5682 46.341 53.5682Z" fill="#FF7146"/>
<path d="M17.5156 48.106H24.1823V60.106H17.5156V48.106Z" fill="#658C99"/>
<path d="M30.0235 45.856H25.0766C24.5841 45.856 24.1826 46.2575 24.1826 46.7499V61.4544C24.1826 61.9469 24.5841 62.3484 25.0766 62.3484H30.0235C30.516 62.3484 30.9175 61.9469 30.9175 61.4544V46.7499C30.9175 46.2575 30.516 45.856 30.0235 45.856Z" fill="#E1D9E1"/>
<path d="M27.5463 60.1969C28.2116 60.1969 28.7509 59.6576 28.7509 58.9924C28.7509 58.3271 28.2116 57.7878 27.5463 57.7878C26.8811 57.7878 26.3418 58.3271 26.3418 58.9924C26.3418 59.6576 26.8811 60.1969 27.5463 60.1969Z" fill="#658C99"/>
<path d="M62.9699 26.0757H45.023C44.1896 26.0757 43.5078 26.7575 43.5078 27.5908V37.7878C43.5078 38.6211 44.1896 39.303 45.023 39.303H47.6896V43.0378L51.5457 39.303H62.9699C63.8033 39.303 64.4851 38.6211 64.4851 37.7878V27.5908C64.4851 26.7499 63.8033 26.0757 62.9699 26.0757Z" fill="#1C8FC7"/>
<path d="M47.8115 34.3785C48.7445 34.3785 49.5009 33.6222 49.5009 32.6891C49.5009 31.7561 48.7445 30.9998 47.8115 30.9998C46.8784 30.9998 46.1221 31.7561 46.1221 32.6891C46.1221 33.6222 46.8784 34.3785 47.8115 34.3785Z" fill="white"/>
<path d="M54.0009 34.3785C54.9339 34.3785 55.6903 33.6222 55.6903 32.6891C55.6903 31.7561 54.9339 30.9998 54.0009 30.9998C53.0679 30.9998 52.3115 31.7561 52.3115 32.6891C52.3115 33.6222 53.0679 34.3785 54.0009 34.3785Z" fill="white"/>
<path d="M60.1826 34.3785C61.1156 34.3785 61.872 33.6222 61.872 32.6891C61.872 31.7561 61.1156 30.9998 60.1826 30.9998C59.2495 30.9998 58.4932 31.7561 58.4932 32.6891C58.4932 33.6222 59.2495 34.3785 60.1826 34.3785Z" fill="white"/>
<path d="M27.3944 37.4089C32.8503 37.4089 37.2732 32.9861 37.2732 27.5302C37.2732 22.0743 32.8503 17.6514 27.3944 17.6514C21.9385 17.6514 17.5156 22.0743 17.5156 27.5302C17.5156 32.9861 21.9385 37.4089 27.3944 37.4089Z" fill="#FFC040"/>
<path d="M27.3945 32.1514C26.1445 32.1514 24.9779 31.6666 24.0991 30.7878C23.8263 30.5151 23.8263 30.0681 24.0991 29.7954C24.3718 29.5226 24.8188 29.5226 25.0915 29.7954C26.3263 31.0302 28.4703 31.0302 29.7051 29.7954C29.9779 29.5226 30.4248 29.5226 30.6976 29.7954C30.9703 30.0681 30.9703 30.5151 30.6976 30.7878C29.8112 31.6666 28.6445 32.1514 27.3945 32.1514Z" fill="#0E4B5C"/>
<path d="M24.7582 26.9772C25.39 26.9772 25.9021 26.2242 25.9021 25.2953C25.9021 24.3665 25.39 23.6135 24.7582 23.6135C24.1264 23.6135 23.6143 24.3665 23.6143 25.2953C23.6143 26.2242 24.1264 26.9772 24.7582 26.9772Z" fill="#0E4B5C"/>
<path d="M30.0307 26.9772C30.6624 26.9772 31.1746 26.2242 31.1746 25.2953C31.1746 24.3665 30.6624 23.6135 30.0307 23.6135C29.3989 23.6135 28.8867 24.3665 28.8867 25.2953C28.8867 26.2242 29.3989 26.9772 30.0307 26.9772Z" fill="#0E4B5C"/>
<path opacity="0.08" d="M22.667 48.106H24.1821V60.106H22.667V48.106Z" fill="black"/>
<path d="M49.0154 51.4619C49.0154 50.4316 48.4321 49.5377 47.5836 49.0907C48.0609 48.5907 48.3185 47.9316 48.3185 47.2422C48.3185 45.7649 47.1215 44.568 45.6442 44.568H40.6215C41.6745 41.4846 41.4094 38.3937 41.1442 36.7574C40.97 35.7195 40.0836 34.9619 39.0306 34.9619C38.4624 34.9619 37.9245 35.1816 37.5154 35.5831C37.1215 35.9771 36.9018 36.4922 36.8867 37.0907C36.3185 40.3937 34.5306 42.2877 34.5079 42.3104L31.1745 45.871C30.9094 45.5225 30.4927 45.2952 30.0154 45.2952H25.0685C24.2654 45.2952 23.6064 45.9543 23.6064 46.7574V47.5377H17.5154C17.2048 47.5377 16.9473 47.7952 16.9473 48.1059C16.9473 48.4165 17.2048 48.674 17.5154 48.674H23.6139V59.5377H17.5154C17.2048 59.5377 16.9473 59.7952 16.9473 60.1059C16.9473 60.4165 17.2048 60.674 17.5154 60.674H23.6139V61.4619C23.6139 62.2649 24.273 62.924 25.0761 62.924H30.023C30.7048 62.924 31.273 62.4543 31.4321 61.8256C31.97 62.2877 32.667 62.5831 33.4321 62.5831H44.9245C45.6367 62.5831 46.3109 62.3028 46.8185 61.7952C47.3261 61.2877 47.5988 60.6134 47.5988 59.9013C47.5988 59.1892 47.3185 58.5452 46.8715 58.068C47.1139 57.9392 47.3412 57.7801 47.5457 57.5756C48.0533 57.068 48.3261 56.3937 48.3261 55.6816C48.3261 54.9695 48.0457 54.318 47.5836 53.8407C47.8185 53.7195 48.0382 53.5528 48.2351 53.3634C48.7427 52.8407 49.0154 52.174 49.0154 51.4619ZM30.023 61.7801H25.0761C24.8942 61.7801 24.7503 61.6362 24.7503 61.4543V46.7498C24.7503 46.568 24.8942 46.424 25.0761 46.424H30.023C30.2048 46.424 30.3488 46.568 30.3488 46.7498V46.9922V46.9998V59.4771V59.4846V61.4468C30.3488 61.6362 30.1973 61.7801 30.023 61.7801ZM47.4321 52.5452C47.1442 52.8331 46.7579 52.9922 46.3412 52.9922H45.6442C45.3336 52.9922 45.0761 53.2498 45.0761 53.5604C45.0761 53.871 45.3336 54.1286 45.6442 54.1286C46.4927 54.1286 47.1821 54.818 47.1821 55.6665C47.1821 56.0756 47.023 56.4619 46.7351 56.7574C46.4473 57.0452 46.0609 57.2043 45.6442 57.2043H44.917C44.6064 57.2043 44.3488 57.4619 44.3488 57.7725C44.3488 58.0831 44.6064 58.3407 44.917 58.3407C45.7654 58.3407 46.4548 59.0301 46.4548 59.8786C46.4548 60.2877 46.2958 60.674 46.0079 60.9695C45.72 61.2574 45.3261 61.424 44.917 61.424H33.4321C32.3564 61.424 31.4851 60.5528 31.4776 59.4771V47.2043L35.3336 43.0907C35.417 43.0074 37.3942 40.9316 38.023 37.2346C38.0306 37.2043 38.0306 37.121 38.0306 37.0907C38.0306 36.8255 38.1367 36.5755 38.3261 36.3862C38.5154 36.1968 38.7654 36.0907 39.0382 36.0907C39.5306 36.0907 39.9473 36.4468 40.0306 36.9392C40.3033 38.5983 40.5685 41.8483 39.2882 44.9165C39.2124 45.0907 39.2351 45.2952 39.3412 45.4468C39.4473 45.6059 39.6215 45.6968 39.8109 45.6968H45.6594C46.5079 45.6968 47.1973 46.3862 47.1973 47.2346C47.1973 47.6437 47.0382 48.0301 46.7503 48.3256C46.4624 48.6134 46.0761 48.7725 45.6594 48.7725C45.3488 48.7725 45.0912 49.0301 45.0912 49.3407C45.0912 49.6513 45.3488 49.9089 45.6594 49.9089H46.3564C47.2048 49.9089 47.8942 50.5983 47.8942 51.4468C47.8791 51.871 47.72 52.2574 47.4321 52.5452Z" fill="#2B2A3A"/>
<path d="M27.5462 57.2195C26.5689 57.2195 25.7734 58.0149 25.7734 58.9922C25.7734 59.9695 26.5689 60.7649 27.5462 60.7649C28.5234 60.7649 29.3189 59.9695 29.3189 58.9922C29.3189 58.0149 28.5234 57.2195 27.5462 57.2195ZM27.5462 59.6286C27.1977 59.6286 26.9098 59.3407 26.9098 58.9922C26.9098 58.6437 27.1977 58.3558 27.5462 58.3558C27.9022 58.3558 28.1825 58.6437 28.1825 58.9922C28.1825 59.3407 27.9022 59.6286 27.5462 59.6286Z" fill="#2B2A3A"/>
<path d="M62.9698 25.5076H45.0228C43.8713 25.5076 42.9395 26.4394 42.9395 27.5909V37.7879C42.9395 38.9394 43.8713 39.8712 45.0228 39.8712H47.1213V43.0379C47.1213 43.2651 47.2576 43.4697 47.4698 43.5606C47.5379 43.5909 47.6137 43.6061 47.6895 43.6061C47.8334 43.6061 47.9773 43.553 48.0834 43.447L51.7728 39.8712H62.9698C64.1213 39.8712 65.0531 38.9394 65.0531 37.7879V27.5909C65.0531 26.4394 64.1213 25.5076 62.9698 25.5076ZM63.9167 37.7879C63.9167 38.3106 63.4925 38.7348 62.9698 38.7348H51.5455C51.4016 38.7348 51.2576 38.7954 51.1516 38.8939L48.2652 41.697V39.303C48.2652 38.9924 48.0076 38.7348 47.697 38.7348H45.0304C44.5076 38.7348 44.0834 38.3106 44.0834 37.7879V27.5909C44.0834 27.0682 44.5076 26.6439 45.0304 26.6439H62.9698C63.4925 26.6439 63.9167 27.0682 63.9167 27.5909V37.7879Z" fill="#2B2A3A"/>
<path d="M47.8113 30.4392C46.5689 30.4392 45.5537 31.4544 45.5537 32.6968C45.5537 33.9392 46.5689 34.9544 47.8113 34.9544C49.0537 34.9544 50.0689 33.9392 50.0689 32.6968C50.0689 31.4544 49.0537 30.4392 47.8113 30.4392ZM47.8113 33.8104C47.1977 33.8104 46.6901 33.3104 46.6901 32.6892C46.6901 32.068 47.1901 31.568 47.8113 31.568C48.4325 31.568 48.9325 32.068 48.9325 32.6892C48.9325 33.3104 48.4249 33.8104 47.8113 33.8104Z" fill="#2B2A3A"/>
<path d="M54.0007 30.4392C52.7583 30.4392 51.7432 31.4544 51.7432 32.6968C51.7432 33.9392 52.7583 34.9544 54.0007 34.9544C55.2432 34.9544 56.2583 33.9392 56.2583 32.6968C56.2583 31.4544 55.2432 30.4392 54.0007 30.4392ZM54.0007 33.8104C53.3871 33.8104 52.8795 33.3104 52.8795 32.6892C52.8795 32.068 53.3795 31.568 54.0007 31.568C54.622 31.568 55.122 32.068 55.122 32.6892C55.122 33.3104 54.6144 33.8104 54.0007 33.8104Z" fill="#2B2A3A"/>
<path d="M60.1824 30.4392C58.94 30.4392 57.9248 31.4544 57.9248 32.6968C57.9248 33.9392 58.94 34.9544 60.1824 34.9544C61.4248 34.9544 62.44 33.9392 62.44 32.6892C62.44 31.4392 61.4248 30.4392 60.1824 30.4392ZM60.1824 33.8104C59.5687 33.8104 59.0612 33.3104 59.0612 32.6892C59.0612 32.068 59.5612 31.568 60.1824 31.568C60.8036 31.568 61.3036 32.068 61.3036 32.6892C61.3036 33.3104 60.8036 33.8104 60.1824 33.8104Z" fill="#2B2A3A"/>
<path d="M27.3942 37.9772C33.1518 37.9772 37.8412 33.2878 37.8412 27.5302C37.8412 21.7726 33.1594 17.0833 27.3942 17.0833C21.6291 17.0833 16.9473 21.7726 16.9473 27.5302C16.9473 33.2878 21.6367 37.9772 27.3942 37.9772ZM27.3942 18.2196C32.5306 18.2196 36.7048 22.3939 36.7048 27.5302C36.7048 32.6666 32.5306 36.8408 27.3942 36.8408C22.2579 36.8408 18.0836 32.6666 18.0836 27.5302C18.0836 22.3939 22.2579 18.2196 27.3942 18.2196Z" fill="#2B2A3A"/>
<path d="M24.0991 29.7878C23.8263 30.0605 23.8263 30.5075 24.0991 30.7802C24.9779 31.659 26.1521 32.1439 27.3945 32.1439C28.6445 32.1439 29.8112 31.659 30.69 30.7802C30.9627 30.5075 30.9627 30.0605 30.69 29.7878C30.4173 29.5151 29.9703 29.5151 29.6976 29.7878C28.4627 31.0226 26.3188 31.0226 25.0839 29.7878C24.8112 29.5151 24.3718 29.5151 24.0991 29.7878Z" fill="#2B2A3A"/>
<path d="M24.7582 26.9696C25.3946 26.9696 25.9021 26.2196 25.9021 25.2878C25.9021 24.3635 25.387 23.606 24.7582 23.606C24.1294 23.606 23.6143 24.356 23.6143 25.2878C23.6143 26.2196 24.1294 26.9696 24.7582 26.9696Z" fill="#2B2A3A"/>
<path d="M30.0307 26.9696C30.667 26.9696 31.1746 26.2196 31.1746 25.2878C31.1746 24.3635 30.6594 23.606 30.0307 23.606C29.3943 23.606 28.8867 24.356 28.8867 25.2878C28.8867 26.2196 29.3943 26.9696 30.0307 26.9696Z" fill="#2B2A3A"/>
</svg>
