<svg width="81" height="81" viewBox="0 0 81 81" fill="none" xmlns="http://www.w3.org/2000/svg">
<circle opacity="0.2" cx="40.5" cy="40.5" r="40.5" fill="#05AF79"/>
<g clip-path="url(#clip0_415_151)">
<mask id="mask0_415_151" style="mask-type:luminance" maskUnits="userSpaceOnUse" x="16" y="15" width="50" height="50">
<path d="M66 15H16V65H66V15Z" fill="white"/>
</mask>
<g mask="url(#mask0_415_151)">
<path fill-rule="evenodd" clip-rule="evenodd" d="M47.1896 27.7354C47.1896 24.3167 44.4187 21.5457 41.0001 21.5457C37.5814 21.5457 34.8105 24.3167 34.8105 27.7354C34.8105 29.2026 35.3199 30.5506 36.1752 31.6136L41.0014 34.0429L45.825 31.6136C46.6803 30.5506 47.1896 29.2025 47.1896 27.7354Z" fill="#FFD772"/>
<path fill-rule="evenodd" clip-rule="evenodd" d="M41.0003 31.6138L22.1797 31.6111C21.3658 31.6221 20.7375 32.2256 20.577 32.937L17.7451 48.6909H41.0003H64.2555L61.4237 32.937C61.2631 32.2256 60.6347 31.6221 59.8209 31.6111L41.0003 31.6138Z" fill="#A1D4FF"/>
<path fill-rule="evenodd" clip-rule="evenodd" d="M43.5053 52.7215L40.9808 51.2986L38.4922 52.7215L38.495 56.7714L41.0362 57.9423L43.5053 56.7714V52.7215Z" fill="#375E7D"/>
<path fill-rule="evenodd" clip-rule="evenodd" d="M43.5051 56.7712H38.4947H36.3604C35.4055 56.7712 34.6221 57.5546 34.6221 58.5097V60.37L41.2103 61.7624L47.3776 60.37V58.5097C47.3776 57.5546 46.5942 56.7712 45.6393 56.7712H43.5051Z" fill="#F9F7F8"/>
<path fill-rule="evenodd" clip-rule="evenodd" d="M47.3773 60.3699H34.6217H32.5706C31.5353 60.3699 30.6855 61.2169 30.6855 62.2523V63.8523C30.6855 64.0792 30.8738 64.2675 31.1035 64.2675H50.8985C51.1255 64.2675 51.3137 64.0792 51.3137 63.8523V62.2523C51.3137 61.2169 50.4667 60.3699 49.4287 60.3699H47.3773Z" fill="#375E7D"/>
<path fill-rule="evenodd" clip-rule="evenodd" d="M61.4231 32.937C61.2625 32.2256 60.6341 31.6221 59.8203 31.6111L45.8246 31.6138H44.9941C46.1706 33.3162 47.0121 35.2429 47.4329 37.3053C47.6322 38.288 47.7374 39.3039 47.7374 40.3393C47.7374 41.2473 47.6571 42.1331 47.5049 42.9995C47.1395 45.0535 46.3589 46.9775 45.2461 48.6909H64.2549L61.4231 32.937Z" fill="#75CEF8"/>
<path fill-rule="evenodd" clip-rule="evenodd" d="M41.0002 48.6909H17.7451L17.4434 50.5954C17.2468 51.8218 18.0939 52.6882 19.334 52.6882H62.6665C63.9067 52.6882 64.7537 51.8218 64.5571 50.5954L64.2554 48.6909H45.2466H41.0002Z" fill="#F9F7F8"/>
<path fill-rule="evenodd" clip-rule="evenodd" d="M64.5566 50.5954L64.2549 48.6909H56.4902L56.792 50.5954C56.9886 51.8218 56.1415 52.6882 54.9014 52.6882H62.666C63.9061 52.6882 64.7532 51.8218 64.5566 50.5954Z" fill="#E5E4EC"/>
<path fill-rule="evenodd" clip-rule="evenodd" d="M43.5051 56.7713V52.7214L41.346 52.7269L41.1162 52.7242V56.7713H43.2532H43.5051Z" fill="#2B4D66"/>
<path fill-rule="evenodd" clip-rule="evenodd" d="M47.3774 58.5097C47.3774 57.5546 46.594 56.7712 45.6391 56.7712H43.5048H43.2529C44.2079 56.7712 44.9913 57.5546 44.9913 58.5097V60.37H47.0425H47.3774V58.5097Z" fill="#E5E4EC"/>
<path fill-rule="evenodd" clip-rule="evenodd" d="M51.3142 62.2523C51.3142 61.2169 50.4672 60.3699 49.4292 60.3699H47.378H47.043C48.0783 60.3699 48.9254 61.2169 48.9254 62.2523V63.8523C48.9254 64.0792 48.7399 64.2675 48.5101 64.2675H50.899C51.126 64.2675 51.3142 64.0792 51.3142 63.8523V62.2523Z" fill="#2B4D66"/>
<path fill-rule="evenodd" clip-rule="evenodd" d="M47.19 27.7354C47.19 24.3167 44.4191 21.5457 41.0004 21.5457C39.5029 21.5457 38.1298 22.0772 37.0586 22.9629C40.3914 23.0626 43.06 25.7949 43.06 29.15C43.06 30.0248 42.8773 30.858 42.5506 31.6136H44.9949H45.8253C46.6806 30.5506 47.19 29.2025 47.19 27.7354Z" fill="#FBBA58"/>
<path d="M28.9971 28.468H31.6213C32.0258 28.468 32.3537 28.1401 32.3537 27.7356C32.3537 27.3311 32.0258 27.0032 31.6213 27.0032H28.9971C28.5926 27.0032 28.2646 27.3311 28.2646 27.7356C28.2646 28.1401 28.5926 28.468 28.9971 28.468Z" fill="black"/>
<path d="M49.6465 27.7356C49.6465 28.1401 49.9743 28.468 50.3789 28.468H53.0059C53.4105 28.468 53.7383 28.1401 53.7383 27.7356C53.7383 27.3311 53.4105 27.0032 53.0059 27.0032H50.3789C49.9743 27.0032 49.6465 27.3311 49.6465 27.7356Z" fill="black"/>
<path d="M47.6328 21.838C47.8204 21.838 48.0081 21.7663 48.1512 21.623L50.0059 19.7655C50.2917 19.4793 50.2913 19.0155 50.0051 18.7298C49.7188 18.4439 49.2551 18.4443 48.9692 18.7305L47.1146 20.5881C46.8287 20.8743 46.8291 21.3381 47.1153 21.6238C47.2583 21.7666 47.4455 21.838 47.6328 21.838Z" fill="black"/>
<path d="M33.8522 21.6234C33.9952 21.7665 34.1827 21.838 34.3701 21.838C34.5575 21.838 34.745 21.7665 34.888 21.6234C35.174 21.3374 35.174 20.8737 34.888 20.5877L33.0306 18.7301C32.7445 18.4441 32.2808 18.4441 31.9948 18.7301C31.7088 19.0162 31.7088 19.4799 31.9948 19.7659L33.8522 21.6234Z" fill="black"/>
<path d="M41 19.0892C41.4046 19.0892 41.7324 18.7612 41.7324 18.3567V15.7324C41.7324 15.3279 41.4046 15 41 15C40.5955 15 40.2676 15.3279 40.2676 15.7324V18.3567C40.2676 18.7612 40.5955 19.0892 41 19.0892Z" fill="black"/>
<path d="M65.2803 50.4808L64.9785 48.5763C64.9781 48.5738 64.9774 48.5715 64.977 48.569C64.9765 48.5665 64.9765 48.5639 64.976 48.5613L62.932 37.1905C62.9297 37.1756 62.9272 37.1606 62.924 37.1461L62.1441 32.8074C62.1422 32.7969 62.1401 32.7863 62.1378 32.7759C61.8892 31.6739 60.9403 30.8938 59.8305 30.8787C59.8271 30.8787 59.8238 30.8787 59.8204 30.8787L47.1652 30.8806C47.6579 29.9124 47.9219 28.8323 47.9219 27.7356C47.9219 23.9187 44.8167 20.8135 40.9999 20.8135C37.1831 20.8135 34.0779 23.9187 34.0779 27.7356C34.0779 28.8326 34.3421 29.913 34.8351 30.8814H28.0562C27.6517 30.8814 27.3237 31.2094 27.3237 31.6139C27.3237 32.0184 27.6517 32.3463 28.0562 32.3463H30.8475L30.2635 36.5729H20.6673L21.2942 33.085C21.3824 32.7203 21.7136 32.3523 22.1847 32.3436L24.6755 32.3463C25.0796 32.3463 25.4083 32.0188 25.4087 31.6146C25.4091 31.2102 25.0815 30.8818 24.677 30.8814L22.1801 30.8787C22.1765 30.8787 22.173 30.8787 22.1694 30.8787C21.0596 30.8938 20.1108 31.6739 19.8622 32.7759C19.8598 32.7863 19.8577 32.7969 19.8557 32.8075L17.024 48.5612C17.0236 48.5636 17.0235 48.5659 17.0231 48.5683C17.0226 48.5709 17.0218 48.5734 17.0215 48.5762L16.72 50.4795C16.5958 51.2546 16.7836 51.982 17.249 52.5279C17.7396 53.1036 18.48 53.4206 19.3339 53.4206H37.7603L37.762 56.0389H36.3607C34.9983 56.0389 33.8899 57.1473 33.8899 58.5098V59.6376H32.5712C31.1279 59.6376 29.9537 60.8106 29.9537 62.2524V63.8524C29.9537 64.4853 30.4698 65.0001 31.1041 65.0001H50.899C51.5318 65.0001 52.0467 64.4853 52.0467 63.8524V62.2524C52.0467 60.8106 50.8725 59.6376 49.4291 59.6376H48.1104V58.5098C48.1104 57.1473 47.002 56.0389 45.6396 56.0389H44.2378V53.4206H49.7253C50.1299 53.4206 50.4577 53.0927 50.4577 52.6882C50.4577 52.2837 50.1299 51.9558 49.7253 51.9558H19.3338C18.9161 51.9558 18.5715 51.8215 18.3636 51.5776C18.1785 51.3604 18.1102 51.0608 18.1665 50.7101L18.3704 49.4233H63.6297L63.8338 50.7113C63.8897 51.0609 63.8216 51.3604 63.6364 51.5776C63.4286 51.8215 63.0841 51.9558 62.6663 51.9558H53.1052C52.7006 51.9558 52.3728 52.2837 52.3728 52.6882C52.3728 53.0927 52.7006 53.4206 53.1052 53.4206H62.6663C63.52 53.4206 64.2604 53.1036 64.7512 52.5279C65.2165 51.982 65.4044 51.2546 65.2803 50.4808ZM50.5817 62.2523V63.5352H31.4184V62.2523C31.4184 61.6183 31.9355 61.1023 32.571 61.1023H34.6222H47.3777H49.4289C50.0647 61.1023 50.5817 61.6183 50.5817 62.2523ZM46.6454 58.5097V59.6375H35.3547V58.5097C35.3547 57.955 35.806 57.5036 36.3606 57.5036H45.6395C46.1941 57.5036 46.6454 57.955 46.6454 58.5097ZM42.7729 56.0388H39.2269L39.2251 53.4205H42.773L42.7729 56.0388ZM40.2676 43.7317V47.9584H30.169L30.753 43.7317H40.2676ZM30.9554 42.2669L31.5397 38.0375H40.2676V42.2669H30.9554ZM41.7325 43.7317H51.2471L51.8311 47.9584H41.7325V43.7317ZM41.7325 42.2669V38.0375H50.4604L51.0447 42.2669H41.7325ZM41.7325 32.3461L49.6737 32.3448L50.2579 36.5728H41.7325V32.3461ZM51.9391 38.0376H61.5961L62.3563 42.267H52.5234L51.9391 38.0376ZM60.7059 33.0848L61.3328 36.5728H51.7367L51.1525 32.3446L59.815 32.3434C60.2863 32.352 60.6176 32.72 60.7059 33.0848ZM35.5429 27.7354C35.5429 24.7263 37.9909 22.2781 41 22.2781C44.009 22.2781 46.4571 24.7263 46.4571 27.7354C46.4571 28.879 46.1139 29.9593 45.4611 30.8807L41 30.8813H36.5393C35.8862 29.9598 35.5429 28.8792 35.5429 27.7354ZM32.3262 32.3461H40.2676V36.5728H31.7422L32.3262 32.3461ZM30.061 38.0376L29.4767 42.2669H19.6437L20.404 38.0375L30.061 38.0376ZM19.3804 43.7317H29.2743L28.6982 47.9013C28.6956 47.9204 28.6944 47.9395 28.6933 47.9584H18.6207L19.3804 43.7317ZM53.3069 47.9584C53.3058 47.9395 53.3046 47.9204 53.302 47.9013L52.7259 43.7317H62.6196L63.3794 47.9584H53.3069Z" fill="black"/>
</g>
</g>
<defs>
<clipPath id="clip0_415_151">
<rect width="50" height="50" fill="white" transform="translate(16 15)"/>
</clipPath>
</defs>
</svg>
