<svg width="61" height="61" viewBox="0 0 61 61" fill="none" xmlns="http://www.w3.org/2000/svg">
<path d="M17.7917 53.3751C17.1177 53.3747 16.4715 53.1068 15.9949 52.6302C15.5183 52.1536 15.2504 51.5074 15.25 50.8334V48.2917H20.3333V50.8334C20.3329 51.5074 20.065 52.1536 19.5884 52.6302C19.1119 53.1068 18.4656 53.3747 17.7917 53.3751Z" fill="#EDF2FF"/>
<path d="M17.7917 53.3751C17.1182 53.3731 16.4728 53.1047 15.9966 52.6285C15.5204 52.1523 15.2519 51.5069 15.25 50.8334V48.2917H16.5208V50.8334C16.5171 51.3273 16.6303 51.815 16.8512 52.2568C17.0721 52.6985 17.3943 53.0817 17.7917 53.3751Z" fill="#BED2E8"/>
<path d="M43.2083 17.7917C41.8606 17.7901 40.5686 17.2541 39.6156 16.3011C38.6626 15.3481 38.1265 14.056 38.125 12.7083V10.1667C38.1256 9.49276 38.3936 8.84663 38.8701 8.37011C39.3466 7.89358 39.9928 7.62561 40.6667 7.625H43.2083C44.556 7.62655 45.8481 8.16261 46.8011 9.11558C47.7541 10.0686 48.2901 11.3606 48.2917 12.7083V15.25C48.2911 15.9239 48.0231 16.57 47.5466 17.0466C47.07 17.5231 46.4239 17.7911 45.75 17.7917H43.2083Z" fill="#A1FF7B"/>
<path d="M50.8337 22.8752C50.1598 22.8746 49.5136 22.6066 49.0371 22.1301C48.5606 21.6535 48.2926 21.0074 48.292 20.3335V17.7918C48.2935 16.4441 48.8296 15.1521 49.7826 14.1991C50.7355 13.2461 52.0276 12.71 53.3753 12.7085H55.917C56.5909 12.7091 57.237 12.9771 57.7136 13.4536C58.1901 13.9301 58.4581 14.5763 58.4587 15.2502V17.7918C58.4571 19.1395 57.9211 20.4316 56.9681 21.3846C56.0151 22.3376 54.723 22.8736 53.3753 22.8752H50.8337Z" fill="#A1FF7B"/>
<path d="M48.2917 33.0417C47.6178 33.0411 46.9716 32.7731 46.4951 32.2966C46.0186 31.82 45.7506 31.1739 45.75 30.5V25.4167C45.75 24.7426 46.0178 24.0961 46.4944 23.6194C46.9711 23.1428 47.6176 22.875 48.2917 22.875C48.9658 22.875 49.6122 23.1428 50.0889 23.6194C50.5656 24.0961 50.8333 24.7426 50.8333 25.4167V30.5C50.8327 31.1739 50.5648 31.82 50.0882 32.2966C49.6117 32.7731 48.9656 33.0411 48.2917 33.0417Z" fill="#EDF2FF"/>
<path d="M27.9587 2.54175H7.62533C4.81788 2.54175 2.54199 4.81763 2.54199 7.62508V43.2084C2.54199 46.0159 4.81788 48.2917 7.62533 48.2917H27.9587C30.7661 48.2917 33.042 46.0159 33.042 43.2084V7.62508C33.042 4.81763 30.7661 2.54175 27.9587 2.54175Z" fill="#EDF2FF"/>
<path d="M8.18449 48.2917H7.62533C6.27836 48.2878 4.98769 47.751 4.03524 46.7985C3.08278 45.8461 2.54595 44.5554 2.54199 43.2084V7.62508C2.54595 6.27811 3.08278 4.98745 4.03524 4.03499C4.98769 3.08254 6.27836 2.5457 7.62533 2.54175H8.18449C7.25014 3.02195 6.46632 3.75053 5.91925 4.64737C5.37218 5.54421 5.08305 6.57455 5.08366 7.62508V43.2084C5.08305 44.2589 5.37218 45.2893 5.91925 46.1861C6.46632 47.083 7.25014 47.8116 8.18449 48.2917Z" fill="#BED2E8"/>
<path d="M7.62565 45.7502C6.95168 45.7498 6.30544 45.4818 5.82887 45.0053C5.3523 44.5287 5.08439 43.8825 5.08398 43.2085V7.62516C5.08459 6.95126 5.35257 6.30513 5.82909 5.8286C6.30561 5.35208 6.95175 5.0841 7.62565 5.0835H8.96587C9.75578 5.08469 10.5348 5.26812 11.2422 5.61953L11.6318 5.81829C12.3403 6.16897 13.1199 6.35235 13.9104 6.35433H21.6742C22.4633 6.35344 23.2416 6.16998 23.948 5.81829L24.3424 5.61953C25.05 5.26857 25.8289 5.08516 26.6188 5.0835H27.959C28.6329 5.0841 29.279 5.35208 29.7555 5.8286C30.2321 6.30513 30.5 6.95126 30.5007 7.62516V43.2085C30.5002 43.8825 30.2323 44.5287 29.7558 45.0053C29.2792 45.4818 28.633 45.7498 27.959 45.7502H7.62565Z" fill="#A1FF7B"/>
<path d="M8.9219 45.7502H7.62565C6.95216 45.7482 6.3068 45.4798 5.83057 45.0036C5.35434 44.5273 5.08593 43.882 5.08398 43.2085V7.62516C5.08593 6.95167 5.35434 6.30632 5.83057 5.83008C6.3068 5.35385 6.95216 5.08544 7.62565 5.0835H8.9219C8.51912 5.37338 8.19137 5.75524 7.96591 6.19732C7.74045 6.63939 7.62379 7.12891 7.62565 7.62516V43.2085C7.62379 43.7047 7.74045 44.1943 7.96591 44.6363C8.19137 45.0784 8.51912 45.4603 8.9219 45.7502Z" fill="#99F275"/>
<path d="M25.417 25.4168V20.3335H26.6878C27.0247 20.3339 27.3478 20.4679 27.586 20.7062C27.8242 20.9444 27.9583 21.2674 27.9587 21.6043V24.146C27.9583 24.4829 27.8242 24.8059 27.586 25.0442C27.3478 25.2824 27.0247 25.4164 26.6878 25.4168H25.417Z" fill="#C4EFFF"/>
<path d="M10.1667 27.9584C9.49276 27.9578 8.84663 27.6898 8.37011 27.2133C7.89358 26.7368 7.62561 26.0907 7.625 25.4167V20.3334C7.62561 19.6595 7.89358 19.0134 8.37011 18.5369C8.84663 18.0603 9.49276 17.7924 10.1667 17.7917H17.7917V27.9584H10.1667Z" fill="#C4EFFF"/>
<path d="M17.792 27.9584V17.7917H22.8753C23.5492 17.7924 24.1954 18.0603 24.6719 18.5369C25.1484 19.0134 25.4164 19.6595 25.417 20.3334V25.4167C25.4164 26.0907 25.1484 26.7368 24.6719 27.2133C24.1954 27.6898 23.5492 27.9578 22.8753 27.9584H17.792Z" fill="#EDF2FF"/>
<path d="M43.8183 17.7917H43.2083C41.8614 17.7877 40.5707 17.2509 39.6182 16.2984C38.6658 15.346 38.129 14.0553 38.125 12.7083V10.1667C38.1269 9.49317 38.3954 8.84782 38.8716 8.37159C39.3478 7.89535 39.9932 7.62694 40.6667 7.625H41.9629C41.5601 7.91488 41.2324 8.29674 41.0069 8.73882C40.7815 9.1809 40.6648 9.67042 40.6667 10.1667V12.7083C40.6608 13.7663 40.9534 14.8044 41.5109 15.7036C42.0684 16.6028 42.8681 17.3265 43.8183 17.7917Z" fill="#99F275"/>
<path d="M50.8337 17.7918V20.3335C50.8318 20.8297 50.9485 21.3193 51.1739 21.7613C51.3994 22.2034 51.7271 22.5853 52.1299 22.8752H50.8337C50.1602 22.8732 49.5148 22.6048 49.0386 22.1286C48.5623 21.6523 48.2939 21.007 48.292 20.3335V17.7918C48.2959 16.4449 48.8328 15.1542 49.7852 14.2017C50.7377 13.2493 52.0284 12.7125 53.3753 12.7085H53.9853C53.0351 13.1737 52.2353 13.8974 51.6779 14.7966C51.1204 15.6957 50.8278 16.7339 50.8337 17.7918Z" fill="#99F275"/>
<path d="M48.2917 33.0417C47.6182 33.0397 46.9728 32.7713 46.4966 32.2951C46.0204 31.8188 45.7519 31.1735 45.75 30.5V25.4167C45.7519 24.7432 46.0204 24.0978 46.4966 23.6216C46.9728 23.1454 47.6182 22.8769 48.2917 22.875C47.8943 23.1684 47.5721 23.5516 47.3512 23.9933C47.1303 24.4351 47.0171 24.9228 47.0208 25.4167V30.5C47.0171 30.9939 47.1303 31.4816 47.3512 31.9234C47.5721 32.3651 47.8943 32.7483 48.2917 33.0417Z" fill="#BED2E8"/>
<path d="M7.62533 46.3855H27.9587C28.801 46.3848 29.6087 46.0498 30.2044 45.4541C30.8 44.8585 31.135 44.0508 31.1357 43.2084V7.62508C31.135 6.78269 30.8 5.97502 30.2044 5.37936C29.6087 4.7837 28.801 4.44874 27.9587 4.448H26.6159C25.7293 4.44857 24.855 4.65504 24.0618 5.05114L23.6645 5.24964C23.0468 5.55695 22.3664 5.71751 21.6764 5.71883H13.9076C13.218 5.71732 12.5381 5.55676 11.9207 5.24964L11.5235 5.05114C10.7299 4.65484 9.85511 4.44837 8.96809 4.448H7.62533C6.78294 4.44874 5.97526 4.7837 5.37961 5.37936C4.78395 5.97502 4.44898 6.78269 4.44824 7.62508V43.2084C4.44898 44.0508 4.78395 44.8585 5.37961 45.4541C5.97526 46.0498 6.78294 46.3848 7.62533 46.3855ZM5.71908 7.62508C5.71982 7.11974 5.92089 6.63531 6.27822 6.27798C6.63555 5.92064 7.11998 5.71957 7.62533 5.71883H8.96809C9.65806 5.72015 10.3384 5.88072 10.9562 6.18802L11.3534 6.38653C12.1466 6.78263 13.021 6.9891 13.9076 6.98966H21.6764C22.563 6.9891 23.4374 6.78263 24.2305 6.38653L24.6291 6.18802C25.2468 5.88072 25.9272 5.72015 26.6172 5.71883H27.9587C28.464 5.71957 28.9484 5.92064 29.3058 6.27798C29.6631 6.63531 29.8642 7.11974 29.8649 7.62508V43.2084C29.864 43.7137 29.6628 44.198 29.3055 44.5553C28.9483 44.9126 28.4639 45.1137 27.9587 45.1147H7.62533C7.12005 45.1137 6.63573 44.9126 6.27844 44.5553C5.92115 44.198 5.72002 43.7137 5.71908 43.2084V7.62508Z" fill="#231F20"/>
<path d="M22.8753 42.573H12.7087C12.5401 42.573 12.3785 42.6399 12.2594 42.7591C12.1402 42.8783 12.0732 43.0399 12.0732 43.2084C12.0732 43.3769 12.1402 43.5386 12.2594 43.6577C12.3785 43.7769 12.5401 43.8438 12.7087 43.8438H22.8753C23.0438 43.8438 23.2055 43.7769 23.3246 43.6577C23.4438 43.5386 23.5107 43.3769 23.5107 43.2084C23.5107 43.0399 23.4438 42.8783 23.3246 42.7591C23.2055 42.6399 23.0438 42.573 22.8753 42.573Z" fill="#231F20"/>
<path d="M55.9167 12.0729H53.375C52.5181 12.076 51.6729 12.2728 50.9027 12.6484C50.1325 13.024 49.4571 13.5689 48.9271 14.2422V12.7083C48.9252 11.1922 48.3221 9.73871 47.25 8.66665C46.178 7.59458 44.7245 6.99147 43.2083 6.98958H40.6667C39.8243 6.99032 39.0166 7.32529 38.4209 7.92095C37.8253 8.51661 37.4903 9.32428 37.4896 10.1667V12.7083C37.4915 14.2245 38.0946 15.678 39.1666 16.75C40.2387 17.8221 41.6922 18.4252 43.2083 18.4271H45.75C46.4493 18.4132 47.1234 18.164 47.6636 17.7197C47.6636 17.7452 47.6562 22.3679 47.6562 22.3679C46.9457 22.505 46.3045 22.8836 45.8412 23.4394C45.378 23.9953 45.1213 24.6944 45.1146 25.4179V30.5013C45.1215 31.2179 45.3736 31.9105 45.8291 32.4638C46.2845 33.017 46.9157 33.3976 47.6176 33.5421C47.0389 39.8981 47.3957 46.3046 48.6765 52.5571C48.8053 53.1897 48.7913 53.8431 48.6354 54.4696C48.4795 55.0961 48.1857 55.68 47.7755 56.1785C47.3566 56.6938 46.8278 57.1089 46.2279 57.3937C45.6279 57.6784 44.9719 57.8255 44.3079 57.8242H22.875C21.7847 57.8205 20.7339 57.4158 19.923 56.687C19.112 55.9583 18.5977 54.9566 18.4779 53.8729C19.1774 53.7261 19.8057 53.3447 20.2587 52.7919C20.7117 52.239 20.9623 51.548 20.9688 50.8333V48.9271H27.9583C29.4744 48.925 30.9278 48.3218 31.9998 47.2498C33.0718 46.1778 33.675 44.7244 33.6771 43.2083V7.625C33.6752 6.10887 33.0721 4.65538 32 3.58331C30.928 2.51125 29.4745 1.90813 27.9583 1.90625H7.625C6.10887 1.90813 4.65538 2.51125 3.58331 3.58331C2.51125 4.65538 1.90813 6.10887 1.90625 7.625V15.25C1.90625 15.4185 1.9732 15.5801 2.09236 15.6993C2.21152 15.8185 2.37314 15.8854 2.54167 15.8854C2.71019 15.8854 2.87181 15.8185 2.99097 15.6993C3.11014 15.5801 3.17708 15.4185 3.17708 15.25V7.625C3.17856 6.44579 3.64766 5.31531 4.48148 4.48148C5.31531 3.64766 6.44579 3.17856 7.625 3.17708H27.9583C29.1375 3.17856 30.268 3.64766 31.1019 4.48148C31.9357 5.31531 32.4048 6.44579 32.4062 7.625V43.2083C32.4048 44.3875 31.9357 45.518 31.1019 46.3519C30.268 47.1857 29.1375 47.6548 27.9583 47.6562H7.625C6.44579 47.6548 5.31531 47.1857 4.48148 46.3519C3.64766 45.518 3.17856 44.3875 3.17708 43.2083V17.7917C3.17708 17.6231 3.11014 17.4615 2.99097 17.3424C2.87181 17.2232 2.71019 17.1562 2.54167 17.1562C2.37314 17.1562 2.21152 17.2232 2.09236 17.3424C1.9732 17.4615 1.90625 17.6231 1.90625 17.7917V43.2083C1.90833 44.7244 2.51151 46.1778 3.58354 47.2498C4.65556 48.3218 6.10893 48.925 7.625 48.9271H14.6146V50.8333C14.6216 51.5659 14.8849 52.273 15.3587 52.8318C15.8325 53.3905 16.487 53.7658 17.2086 53.8925C17.335 55.3097 17.9861 56.6286 19.0343 57.5908C20.0825 58.5529 21.4522 59.0889 22.875 59.0938H44.3079C45.1606 59.0955 46.0029 58.9067 46.7733 58.5413C47.5437 58.1758 48.2228 57.6429 48.7609 56.9814C49.2907 56.3373 49.67 55.5829 49.871 54.7734C50.0719 53.964 50.0895 53.1198 49.9224 52.3027C48.6604 46.1382 48.313 39.8215 48.8915 33.5558C49.6095 33.4258 50.2597 33.0495 50.7301 32.4918C51.2005 31.934 51.4617 31.2296 51.4688 30.5C51.4688 30.3315 51.4018 30.1699 51.2826 30.0507C51.1635 29.9315 51.0019 29.8646 50.8333 29.8646C50.6648 29.8646 50.5032 29.9315 50.384 30.0507C50.2649 30.1699 50.1979 30.3315 50.1979 30.5C50.1979 31.0056 49.9971 31.4904 49.6396 31.8479C49.2821 32.2054 48.7972 32.4062 48.2917 32.4062C47.7861 32.4062 47.3012 32.2054 46.9437 31.8479C46.5863 31.4904 46.3854 31.0056 46.3854 30.5V25.4167C46.3854 24.9111 46.5863 24.4262 46.9437 24.0687C47.3012 23.7113 47.7861 23.5104 48.2917 23.5104C48.7972 23.5104 49.2821 23.7113 49.6396 24.0687C49.9971 24.4262 50.1979 24.9111 50.1979 25.4167V27.9583C50.1979 28.1269 50.2649 28.2885 50.384 28.4076C50.5032 28.5268 50.6648 28.5938 50.8333 28.5938C51.0019 28.5938 51.1635 28.5268 51.2826 28.4076C51.4018 28.2885 51.4688 28.1269 51.4688 27.9583V25.4167C51.4554 24.714 51.2046 24.0366 50.7571 23.4947C50.7843 23.4947 50.8079 23.5104 50.8333 23.5104H53.375C54.8911 23.5085 56.3446 22.9054 57.4167 21.8334C58.4888 20.7613 59.0919 19.3078 59.0938 17.7917V15.25C59.093 14.4076 58.758 13.5999 58.1624 13.0043C57.5667 12.4086 56.7591 12.0737 55.9167 12.0729ZM15.8854 50.8333V48.9271H19.6979V50.8333C19.6979 51.3389 19.4971 51.8238 19.1396 52.1813C18.7821 52.5387 18.2972 52.7396 17.7917 52.7396C17.2861 52.7396 16.8012 52.5387 16.4437 52.1813C16.0863 51.8238 15.8854 51.3389 15.8854 50.8333ZM43.2083 17.1562C42.0291 17.1548 40.8986 16.6857 40.0648 15.8519C39.231 15.018 38.7619 13.8875 38.7604 12.7083V10.1667C38.7612 9.66132 38.9622 9.17689 39.3196 8.81956C39.6769 8.46223 40.1613 8.26116 40.6667 8.26042H43.2083C44.3875 8.2619 45.518 8.73099 46.3519 9.56482C47.1857 10.3986 47.6548 11.5291 47.6562 12.7083V15.25C47.6526 15.5317 47.5852 15.8088 47.4593 16.0608L43.6577 12.259C43.5385 12.1398 43.3769 12.0728 43.2083 12.0728C43.0398 12.0728 42.8781 12.1398 42.759 12.259C42.6398 12.3781 42.5728 12.5398 42.5728 12.7083C42.5728 12.8769 42.6398 13.0385 42.759 13.1577L46.5605 16.959C46.3087 17.0851 46.0316 17.1525 45.75 17.1562H43.2083ZM57.8229 17.7917C57.8214 18.9709 57.3523 20.1014 56.5185 20.9352C55.6847 21.769 54.5542 22.2381 53.375 22.2396H50.8333C50.5517 22.2359 50.2746 22.1684 50.0228 22.0424L53.8244 18.241C53.9435 18.1219 54.0105 17.9602 54.0105 17.7917C54.0105 17.6231 53.9435 17.4615 53.8244 17.3423C53.7052 17.2231 53.5435 17.1562 53.375 17.1562C53.2065 17.1562 53.0448 17.2231 52.9256 17.3423L49.1241 21.1441C48.9981 20.8922 48.9308 20.615 48.9271 20.3333V17.7917C48.9286 16.6125 49.3977 15.482 50.2315 14.6481C51.0653 13.8143 52.1958 13.3452 53.375 13.3438H55.9167C56.422 13.3445 56.9064 13.5456 57.2638 13.9029C57.6211 14.2602 57.8222 14.7447 57.8229 15.25V17.7917Z" fill="#231F20"/>
<path d="M10.1663 28.5938H22.8747C23.5983 28.5871 24.2973 28.3304 24.8532 27.8671C25.4091 27.4039 25.7876 26.7626 25.9247 26.0521H26.6872C27.1925 26.0513 27.6769 25.8503 28.0343 25.4929C28.3916 25.1356 28.5927 24.6512 28.5934 24.1458V21.6042C28.5927 21.0988 28.3916 20.6144 28.0343 20.2571C27.6769 19.8997 27.1925 19.6987 26.6872 19.6979H25.9247C25.7877 18.9874 25.4091 18.3461 24.8532 17.8828C24.2973 17.4196 23.5983 17.1629 22.8747 17.1562H10.1663C9.32395 17.157 8.51628 17.492 7.92062 18.0876C7.32496 18.6833 6.99 19.4909 6.98926 20.3333V25.4167C6.99 26.2591 7.32496 27.0667 7.92062 27.6624C8.51628 28.258 9.32395 28.593 10.1663 28.5938ZM27.3226 21.6042V24.1458C27.3226 24.3144 27.2556 24.476 27.1365 24.5951C27.0173 24.7143 26.8557 24.7812 26.6872 24.7812H26.0518V20.9688H26.6872C26.8557 20.9688 27.0173 21.0357 27.1365 21.1549C27.2556 21.274 27.3226 21.4356 27.3226 21.6042ZM8.26009 20.3333C8.26083 19.828 8.4619 19.3436 8.81924 18.9862C9.17657 18.6289 9.661 18.4278 10.1663 18.4271H17.1559V22.875C17.1559 23.0435 17.2229 23.2051 17.342 23.3243C17.4612 23.4435 17.6228 23.5104 17.7913 23.5104C17.9599 23.5104 18.1215 23.4435 18.2406 23.3243C18.3598 23.2051 18.4268 23.0435 18.4268 22.875V18.4271H22.8747C23.38 18.4278 23.8644 18.6289 24.2218 18.9862C24.5791 19.3436 24.7802 19.828 24.7809 20.3333V25.4167C24.7802 25.922 24.5791 26.4064 24.2218 26.7638C23.8644 27.1211 23.38 27.3222 22.8747 27.3229H18.4268V25.4167C18.4268 25.2481 18.3598 25.0865 18.2406 24.9674C18.1215 24.8482 17.9599 24.7812 17.7913 24.7812C17.6228 24.7812 17.4612 24.8482 17.342 24.9674C17.2229 25.0865 17.1559 25.2481 17.1559 25.4167V27.3229H10.1663C9.661 27.3222 9.17657 27.1211 8.81924 26.7638C8.4619 26.4064 8.26083 25.922 8.26009 25.4167V20.3333Z" fill="#231F20"/>
</svg>
