<svg width="61" height="61" viewBox="0 0 61 61" fill="none" xmlns="http://www.w3.org/2000/svg">
<g clip-path="url(#clip0_419_254)">
<path fill-rule="evenodd" clip-rule="evenodd" d="M33.9153 25.9374L16.8804 33.2683L16.2471 30.3578L28.0806 24.0747L33.4119 24.2904L33.9153 25.9374Z" fill="#B7CFE8"/>
<path fill-rule="evenodd" clip-rule="evenodd" d="M34.3915 24.0096L31.7207 5.65649L34.6997 5.8003L37.7025 18.8563L36.1138 23.9479L34.3915 24.0096Z" fill="#B7CFE8"/>
<path fill-rule="evenodd" clip-rule="evenodd" d="M36.1346 24.9685L54.5526 27.1394L53.6418 29.9779L40.2536 29.502L35.7441 26.6462L36.1346 24.9685Z" fill="#B7CFE8"/>
<path fill-rule="evenodd" clip-rule="evenodd" d="M38.9732 58.8291H31.8271L34.4534 25.4614H36.3469L38.9732 58.8291Z" fill="#B7CFE8"/>
<path fill-rule="evenodd" clip-rule="evenodd" d="M35.3976 28.6355C36.0056 28.6358 36.6 28.4558 37.1056 28.1183C37.6112 27.7807 38.0054 27.3008 38.2382 26.7391C38.471 26.1775 38.532 25.5595 38.4134 24.9632C38.2949 24.3669 38.0022 23.8192 37.5723 23.3893C37.1424 22.9594 36.5946 22.6667 35.9983 22.5482C35.402 22.4297 34.784 22.4907 34.2224 22.7235C33.6608 22.9564 33.1809 23.3505 32.8433 23.8562C32.5058 24.3618 32.3258 24.9562 32.3262 25.5642C32.328 26.3782 32.6522 27.1583 33.2278 27.7339C33.8034 28.3095 34.5836 28.6337 35.3976 28.6355Z" fill="#FFD23B"/>
<path d="M12.6621 53.5491H16.7984V58.829H12.6621V53.5491Z" fill="#B7CFE8"/>
<path fill-rule="evenodd" clip-rule="evenodd" d="M4.8383 36.2371H29.4642L24.6226 54.299H0L4.8383 36.2371Z" fill="#69A7FF"/>
<path d="M5.31066 54.299C5.31108 54.2249 5.32146 54.1512 5.34152 54.0799L6.66672 49.1252H1.61277C1.53862 49.1253 1.46482 49.115 1.39355 49.0945L1.83866 47.4338H7.12207L8.28286 43.1023H3.22546C3.1516 43.1019 3.07805 43.0927 3.00636 43.0749L3.45147 41.4109H8.73476L10.1216 36.2371H11.8404C11.8395 36.3109 11.8304 36.3844 11.8131 36.4562L10.4843 41.4109H14.8914L16.278 36.2371H17.997C17.9966 36.3111 17.9862 36.3848 17.9661 36.4562L16.6376 41.4109H21.0478L22.4312 36.2371H24.1498C24.1506 36.311 24.1414 36.3847 24.1224 36.4562L22.7941 41.4109H27.848C27.9222 41.4103 27.996 41.4206 28.0671 41.4416L27.622 43.1023H22.342L21.1814 47.4338H26.2353C26.3092 47.434 26.3828 47.4432 26.4544 47.4612L26.0093 49.1252H20.7294L19.3426 54.299H17.6237C17.6229 54.2251 17.6321 54.1514 17.6511 54.0799L18.9797 49.1252H14.5729L13.1861 54.299H11.4673C11.4681 54.2252 11.4773 54.1517 11.4947 54.0799L12.8232 49.1252H8.41642L7.02926 54.299H5.31066ZM10.0286 43.1023L8.86784 47.4338H13.2781L14.4354 43.1023H10.0286ZM15.0243 47.4338H19.4318L20.5925 43.1023H16.1856L15.0243 47.4338Z" fill="#5F96E6"/>
<path d="M10.735 59.6716C10.6233 59.6729 10.5125 59.652 10.4089 59.6102C10.3053 59.5684 10.2111 59.5064 10.1316 59.4279C10.0522 59.3494 9.98913 59.2559 9.94608 59.1529C9.90303 59.0498 9.88086 58.9392 9.88086 58.8275C9.88086 58.7158 9.90303 58.6052 9.94608 58.5022C9.98913 58.3991 10.0522 58.3056 10.1316 58.2271C10.2111 58.1486 10.3053 58.0866 10.4089 58.0448C10.5125 58.003 10.6233 57.9821 10.735 57.9835H18.7303C18.842 57.9821 18.9528 58.003 19.0564 58.0448C19.16 58.0866 19.2542 58.1486 19.3336 58.2271C19.4131 58.3056 19.4762 58.3991 19.5192 58.5022C19.5623 58.6052 19.5844 58.7158 19.5844 58.8275C19.5844 58.9392 19.5623 59.0498 19.5192 59.1529C19.4762 59.2559 19.4131 59.3494 19.3336 59.4279C19.2542 59.5064 19.16 59.5684 19.0564 59.6102C18.9528 59.652 18.842 59.6729 18.7303 59.6716H10.735Z" fill="#A7BED6"/>
<path fill-rule="evenodd" clip-rule="evenodd" d="M50.8135 17.0142C51.9011 17.0142 52.9643 16.6917 53.8686 16.0875C54.7729 15.4832 55.4778 14.6244 55.894 13.6196C56.3102 12.6147 56.4191 11.5091 56.2069 10.4424C55.9947 9.37565 55.471 8.39581 54.7019 7.62675C53.9329 6.85769 52.953 6.33396 51.8863 6.12178C50.8196 5.9096 49.7139 6.0185 48.7091 6.43471C47.7043 6.85092 46.8455 7.55574 46.2412 8.46006C45.637 9.36437 45.3145 10.4276 45.3145 11.5152C45.3167 12.9729 45.8968 14.3703 46.9276 15.4011C47.9584 16.4319 49.3558 17.012 50.8135 17.0142Z" fill="#FFD23B"/>
<path d="M45.4135 3.84522C45.3577 3.7494 45.3214 3.6435 45.3066 3.53359C45.2918 3.42368 45.2989 3.31194 45.3275 3.20478C45.3561 3.09763 45.4055 2.99718 45.4731 2.90922C45.5406 2.82125 45.6248 2.7475 45.721 2.69221C45.8171 2.63691 45.9232 2.60117 46.0332 2.58703C46.1432 2.57289 46.2549 2.58064 46.3619 2.60982C46.4689 2.639 46.569 2.68905 46.6566 2.75708C46.7442 2.82511 46.8174 2.90978 46.8722 3.00623L47.7317 4.49548C47.8402 4.68875 47.8681 4.91704 47.8093 5.13076C47.7505 5.34448 47.6097 5.52635 47.4175 5.63686C47.2254 5.74736 46.9974 5.77758 46.7831 5.72094C46.5688 5.66429 46.3855 5.52537 46.273 5.33435L45.4135 3.84522ZM49.9676 2.17427C49.9676 1.94992 50.0567 1.73476 50.2153 1.57613C50.374 1.41749 50.5891 1.32837 50.8135 1.32837C51.0378 1.32837 51.253 1.41749 51.4116 1.57613C51.5703 1.73476 51.6594 1.94992 51.6594 2.17427V3.89311C51.6594 4.11746 51.5703 4.33261 51.4116 4.49125C51.253 4.64989 51.0378 4.73901 50.8135 4.73901C50.5891 4.73901 50.374 4.64989 50.2153 4.49125C50.0567 4.33261 49.9676 4.11746 49.9676 3.89311V2.17427ZM54.7545 3.00623C54.8658 2.81234 55.0495 2.67059 55.2653 2.61217C55.481 2.55374 55.7112 2.58342 55.9051 2.69467C56.099 2.80593 56.2407 2.98965 56.2991 3.20542C56.3576 3.42119 56.3279 3.65133 56.2166 3.84522L55.3571 5.33447C55.2459 5.52836 55.0622 5.67011 54.8464 5.72855C54.6307 5.78699 54.4005 5.75733 54.2067 5.64609C54.0128 5.53484 53.871 5.35114 53.8126 5.13538C53.7541 4.91962 53.7838 4.68949 53.895 4.4956L54.7545 3.00623ZM58.4867 6.1158C58.6802 6.00456 58.9099 5.97472 59.1253 6.03284C59.3408 6.09097 59.5243 6.2323 59.6355 6.42574C59.7468 6.61918 59.7766 6.8489 59.7185 7.06434C59.6604 7.27978 59.519 7.46331 59.3256 7.57455L57.8363 8.43392C57.7405 8.48904 57.6348 8.52475 57.5252 8.53901C57.4156 8.55327 57.3042 8.5458 57.1975 8.51703C57.0908 8.48826 56.9908 8.43875 56.9032 8.37133C56.8156 8.30391 56.7422 8.2199 56.687 8.12409C56.6319 8.02828 56.5962 7.92256 56.582 7.81295C56.5677 7.70334 56.5752 7.592 56.6039 7.48528C56.6327 7.37856 56.6822 7.27855 56.7496 7.19096C56.8171 7.10337 56.9011 7.02992 56.9969 6.9748L58.4867 6.1158ZM60.1547 10.6698C60.379 10.6698 60.5942 10.7589 60.7528 10.9176C60.9115 11.0762 61.0006 11.2914 61.0006 11.5157C61.0006 11.7401 60.9115 11.9552 60.7528 12.1139C60.5942 12.2725 60.379 12.3616 60.1547 12.3616H58.4354C58.211 12.3616 57.9959 12.2725 57.8372 12.1139C57.6786 11.9552 57.5895 11.7401 57.5895 11.5157C57.5895 11.2914 57.6786 11.0762 57.8372 10.9176C57.9959 10.7589 58.211 10.6698 58.4354 10.6698H60.1547ZM59.3295 15.4568C59.5224 15.5695 59.6628 15.754 59.7199 15.9699C59.7771 16.1858 59.7464 16.4156 59.6345 16.609C59.5226 16.8023 59.3387 16.9435 59.1231 17.0015C58.9074 17.0596 58.6775 17.0299 58.4836 16.9189L56.9944 16.0559C56.8986 16.0004 56.8147 15.9265 56.7475 15.8386C56.6802 15.7506 56.631 15.6503 56.6025 15.5433C56.5741 15.4363 56.567 15.3247 56.5817 15.215C56.5963 15.1052 56.6325 14.9994 56.688 14.9037C56.7435 14.8079 56.8174 14.724 56.9054 14.6568C56.9933 14.5895 57.0937 14.5403 57.2007 14.5118C57.3077 14.4834 57.4192 14.4763 57.529 14.491C57.6387 14.5056 57.7445 14.5418 57.8403 14.5973L59.3295 15.4568ZM56.2171 19.1859C56.3284 19.3798 56.358 19.6099 56.2996 19.8257C56.2412 20.0414 56.0994 20.2252 55.9055 20.3364C55.7117 20.4477 55.4815 20.4774 55.2657 20.4189C55.05 20.3605 54.8663 20.2188 54.755 20.0249L53.895 18.5382C53.84 18.4422 53.8043 18.3363 53.7902 18.2265C53.776 18.1168 53.7836 18.0053 53.8126 17.8985C53.871 17.6827 54.0128 17.499 54.2067 17.3878C54.4005 17.2765 54.6307 17.2468 54.8464 17.3053C55.0622 17.3637 55.2459 17.5055 55.3571 17.6994L56.2171 19.1859ZM51.6594 20.856C51.6594 21.0803 51.5703 21.2955 51.4116 21.4541C51.253 21.6128 51.0378 21.7019 50.8135 21.7019C50.5891 21.7019 50.374 21.6128 50.2153 21.4541C50.0567 21.2955 49.9676 21.0803 49.9676 20.856V19.1372C49.9676 18.9128 50.0567 18.6976 50.2153 18.539C50.374 18.3804 50.5891 18.2913 50.8135 18.2913C51.0378 18.2913 51.253 18.3804 51.4116 18.539C51.5703 18.6976 51.6594 18.9128 51.6594 19.1372V20.856ZM46.8722 20.0275C46.8172 20.124 46.7438 20.2086 46.656 20.2766C46.5682 20.3446 46.4678 20.3945 46.3607 20.4235C46.2535 20.4526 46.1417 20.4602 46.0316 20.4458C45.9215 20.4315 45.8153 20.3955 45.7192 20.34C45.623 20.2845 45.5388 20.2105 45.4714 20.1223C45.4039 20.0341 45.3546 19.9335 45.3262 19.8262C45.2978 19.7188 45.2909 19.6069 45.3059 19.4969C45.3209 19.3869 45.3575 19.281 45.4135 19.1852L46.273 17.6959C46.328 17.5994 46.4014 17.5148 46.4892 17.4468C46.577 17.3788 46.6774 17.3289 46.7845 17.2999C46.8917 17.2708 47.0035 17.2632 47.1136 17.2776C47.2237 17.2919 47.3299 17.3279 47.426 17.3834C47.5222 17.4389 47.6064 17.5129 47.6738 17.6011C47.7413 17.6893 47.7906 17.7899 47.819 17.8972C47.8474 18.0046 47.8543 18.1165 47.8393 18.2265C47.8244 18.3365 47.7878 18.4424 47.7317 18.5382L46.8722 20.0275ZM43.1469 16.9179C43.0509 16.974 42.9447 17.0106 42.8345 17.0256C42.7243 17.0406 42.6122 17.0336 42.5047 17.0052C42.3972 16.9767 42.2963 16.9273 42.208 16.8598C42.1196 16.7922 42.0455 16.7079 41.9898 16.6116C41.9341 16.5154 41.8979 16.4091 41.8834 16.2988C41.8689 16.1885 41.8764 16.0765 41.9053 15.9691C41.9342 15.8617 41.984 15.7611 42.0519 15.673C42.1199 15.5849 42.2045 15.5111 42.301 15.4558L43.7903 14.5963C43.9837 14.4842 44.2137 14.4534 44.4298 14.5109C44.6459 14.5683 44.8304 14.7093 44.9425 14.9027C45.0547 15.0961 45.0854 15.3262 45.028 15.5423C44.9705 15.7584 44.8296 15.9428 44.6362 16.055L43.1469 16.9179ZM41.4729 12.3609C41.2485 12.3609 41.0333 12.2718 40.8747 12.1132C40.7161 11.9545 40.627 11.7394 40.627 11.515C40.627 11.2907 40.7161 11.0755 40.8747 10.9169C41.0333 10.7582 41.2485 10.6691 41.4729 10.6691H43.1917C43.416 10.6691 43.6312 10.7582 43.7898 10.9169C43.9485 11.0755 44.0376 11.2907 44.0376 11.515C44.0376 11.7394 43.9485 11.9545 43.7898 12.1132C43.6312 12.2718 43.416 12.3609 43.1917 12.3609H41.4729ZM42.3015 7.57408C42.2049 7.51897 42.1201 7.44528 42.0521 7.35727C41.9841 7.26926 41.9341 7.16866 41.9052 7.06127C41.8762 6.95388 41.8688 6.84182 41.8833 6.73154C41.8978 6.62126 41.934 6.51495 41.9898 6.41872C42.0456 6.3225 42.1199 6.23827 42.2084 6.17088C42.2969 6.10349 42.3979 6.05428 42.5054 6.02608C42.613 5.99788 42.7252 5.99124 42.8353 6.00656C42.9455 6.02187 43.0515 6.05884 43.1474 6.11532L44.6366 6.9748C44.7324 7.03034 44.8163 7.10421 44.8835 7.19217C44.9508 7.28014 45 7.38049 45.0285 7.48748C45.0569 7.59448 45.064 7.70604 45.0493 7.81578C45.0347 7.92552 44.9985 8.03129 44.943 8.12707C44.8875 8.22284 44.8136 8.30674 44.7256 8.37397C44.6377 8.4412 44.5373 8.49045 44.4303 8.5189C44.3233 8.54735 44.2118 8.55444 44.102 8.53978C43.9923 8.52512 43.8865 8.48898 43.7907 8.43344L42.3015 7.57408Z" fill="#FFD23B"/>
<path d="M29.3786 59.6716C29.2669 59.6729 29.156 59.652 29.0525 59.6102C28.9489 59.5684 28.8547 59.5064 28.7752 59.4279C28.6958 59.3494 28.6327 59.2559 28.5896 59.1529C28.5466 59.0498 28.5244 58.9392 28.5244 58.8275C28.5244 58.7158 28.5466 58.6052 28.5896 58.5022C28.6327 58.3991 28.6958 58.3056 28.7752 58.2271C28.8547 58.1486 28.9489 58.0866 29.0525 58.0448C29.156 58.003 29.2669 57.9821 29.3786 57.9835H41.421C41.5327 57.9821 41.6436 58.003 41.7471 58.0448C41.8507 58.0866 41.945 58.1486 42.0244 58.2271C42.1038 58.3056 42.1669 58.3991 42.21 58.5022C42.253 58.6052 42.2752 58.7158 42.2752 58.8275C42.2752 58.9392 42.253 59.0498 42.21 59.1529C42.1669 59.2559 42.1038 59.3494 42.0244 59.4279C41.945 59.5064 41.8507 59.5684 41.7471 59.6102C41.6436 59.652 41.5327 59.6729 41.421 59.6716H29.3786Z" fill="#A7BED6"/>
<path fill-rule="evenodd" clip-rule="evenodd" d="M13.5012 26.1259C15.69 26.1259 17.8296 25.4769 19.6495 24.2608C21.4694 23.0448 22.8878 21.3164 23.7254 19.2943C24.563 17.2721 24.7822 15.0469 24.3551 12.9002C23.9281 10.7535 22.8741 8.78162 21.3264 7.23393C19.7787 5.68625 17.8068 4.63227 15.66 4.20529C13.5133 3.77831 11.2882 3.9975 9.26601 4.83514C7.24385 5.67279 5.5155 7.09126 4.29952 8.91119C3.08353 10.7311 2.43452 12.8708 2.43457 15.0595C2.43904 17.9932 3.60643 20.8054 5.68085 22.8799C7.75527 24.9543 10.5675 26.1217 13.5012 26.1262V26.1259Z" fill="#4BAE36"/>
<path d="M6.9305 12.5595C7.38706 11.3327 8.17002 10.2538 9.19487 9.43929C10.2197 8.62482 11.4475 8.10569 12.7458 7.93793C14.0441 7.77017 15.3635 7.96016 16.5617 8.48738C17.76 9.01461 18.7914 9.85905 19.5449 10.9296C19.6097 11.0201 19.656 11.1226 19.6811 11.2312C19.7062 11.3397 19.7095 11.4521 19.6909 11.562C19.6723 11.6718 19.6322 11.7768 19.5728 11.8711C19.5134 11.9653 19.436 12.0469 19.3449 12.1111C19.2539 12.1752 19.151 12.2207 19.0423 12.245C18.9336 12.2692 18.8211 12.2717 18.7114 12.2523C18.6018 12.2329 18.497 12.1919 18.4032 12.1318C18.3094 12.0717 18.2285 11.9937 18.165 11.9021C17.5154 10.9782 16.5973 10.2764 15.5353 9.8921C14.4974 9.51683 13.3706 9.46246 12.3013 9.73604C11.2321 10.0096 10.2698 10.5985 9.53968 11.4262C9.1647 11.8513 8.85748 12.3317 8.62885 12.8505L9.28638 12.4157C9.37879 12.3546 9.48233 12.3122 9.5911 12.2911C9.69987 12.27 9.81174 12.2705 9.92032 12.2926C10.0289 12.3147 10.1321 12.3579 10.2239 12.4199C10.3158 12.4819 10.3945 12.5613 10.4557 12.6537C10.5168 12.7461 10.5592 12.8497 10.5803 12.9584C10.6015 13.0672 10.601 13.1791 10.5789 13.2877C10.5568 13.3962 10.5135 13.4994 10.4515 13.5913C10.3896 13.6831 10.3101 13.7619 10.2177 13.823L7.81392 15.4186C7.62715 15.542 7.39912 15.5864 7.17968 15.5421C6.96023 15.4979 6.76724 15.3686 6.64289 15.1824L5.04736 12.7752C4.92386 12.5886 4.87955 12.3605 4.92418 12.1412C4.96881 11.922 5.09873 11.7294 5.28534 11.6059C5.47196 11.4824 5.7 11.4381 5.91928 11.4827C6.13857 11.5273 6.33115 11.6572 6.45465 11.8439L6.9305 12.5595ZM17.7575 17.6477C17.6579 17.6962 17.5497 17.7247 17.4391 17.7315C17.3285 17.7382 17.2177 17.7231 17.1129 17.687C17.0081 17.6509 16.9115 17.5946 16.8285 17.5211C16.7455 17.4477 16.6778 17.3586 16.6293 17.259C16.5807 17.1594 16.5522 17.0512 16.5455 16.9406C16.5387 16.83 16.5538 16.7192 16.5899 16.6144C16.626 16.5097 16.6824 16.413 16.7558 16.33C16.8292 16.247 16.9183 16.1793 17.0179 16.1308L19.6134 14.864C19.7127 14.8152 19.8207 14.7865 19.9311 14.7796C20.0416 14.7726 20.1523 14.7875 20.2569 14.8235C20.3616 14.8594 20.4581 14.9157 20.541 14.989C20.6239 15.0623 20.6914 15.1513 20.7398 15.2508L22.0102 17.8463C22.099 18.0466 22.1065 18.2736 22.0313 18.4794C21.9561 18.6851 21.8039 18.8537 21.6069 18.9496C21.4099 19.0454 21.1833 19.0611 20.975 18.9932C20.7666 18.9254 20.5927 18.7794 20.4899 18.5859L20.2125 18.0175C19.69 19.1722 18.8715 20.1683 17.8399 20.9048C16.8084 21.6413 15.6005 22.092 14.3386 22.2112C13.0768 22.3305 11.8059 22.114 10.6546 21.5838C9.50338 21.0535 8.51277 20.2284 7.78319 19.192C7.71778 19.1014 7.67098 18.9988 7.64552 18.8901C7.62005 18.7813 7.61642 18.6686 7.63483 18.5585C7.65325 18.4483 7.69334 18.3429 7.75278 18.2483C7.81223 18.1538 7.88985 18.072 7.98115 18.0076C8.07244 17.9433 8.1756 17.8977 8.28464 17.8735C8.39368 17.8494 8.50643 17.8471 8.61637 17.8668C8.7263 17.8865 8.83123 17.9278 8.92508 17.9884C9.01892 18.0489 9.09982 18.1275 9.16307 18.2196C9.81258 19.1437 10.7307 19.8456 11.7927 20.23C13.1223 20.7118 14.5864 20.6624 15.8804 20.0921C17.1744 19.5218 18.1987 18.4745 18.7402 17.1681L17.7575 17.6477Z" fill="#D5E3F2"/>
<path fill-rule="evenodd" clip-rule="evenodd" d="M14.1548 26.1085C11.3383 25.9409 8.69217 24.704 6.75726 22.6506C4.82235 20.5971 3.74477 17.8822 3.74477 15.0607C3.74477 12.2393 4.82235 9.52438 6.75726 7.47092C8.69217 5.41746 11.3383 4.18053 14.1548 4.01295C13.939 3.99924 13.7199 3.99591 13.5007 3.99591C12.0446 3.99113 10.6018 4.27381 9.25516 4.82773C7.90851 5.38165 6.68443 6.19593 5.65311 7.22387C4.62179 8.25182 3.8035 9.47321 3.24516 10.818C2.68682 12.1629 2.39941 13.6047 2.39941 15.0608C2.39941 16.5169 2.68682 17.9587 3.24516 19.3036C3.8035 20.6484 4.62179 21.8698 5.65311 22.8977C6.68443 23.9257 7.90851 24.7399 9.25516 25.2939C10.6018 25.8478 12.0446 26.1305 13.5007 26.1257C13.7199 26.1257 13.939 26.1222 14.1548 26.1085Z" fill="#42A12D"/>
<path fill-rule="evenodd" clip-rule="evenodd" d="M17.2159 30.9399L29.0496 24.6602L32.4222 24.7972C32.4698 24.6121 32.5352 24.4321 32.6175 24.2596L28.0816 24.0747L16.248 30.3578L16.8814 33.2683L17.6484 32.9361L17.2159 30.9399Z" fill="#A7BED6"/>
<path fill-rule="evenodd" clip-rule="evenodd" d="M35.1164 22.503L32.6715 5.70415L31.7197 5.65649L34.2056 22.7293C34.4954 22.6064 34.8028 22.53 35.1164 22.503Z" fill="#A7BED6"/>
<path fill-rule="evenodd" clip-rule="evenodd" d="M40.6428 28.6187L38.1089 27.0161C37.955 27.2969 37.76 27.5532 37.5303 27.7763L40.2524 29.5021L53.6406 29.9779L53.9249 29.0945L40.6428 28.6187Z" fill="#A7BED6"/>
<path fill-rule="evenodd" clip-rule="evenodd" d="M33.4491 57.9833L35.7604 28.6152C35.6399 28.6289 35.5188 28.6358 35.3975 28.6357C34.993 28.6368 34.5924 28.5564 34.2196 28.3994L31.8945 57.9833H33.4491Z" fill="#A7BED6"/>
<path fill-rule="evenodd" clip-rule="evenodd" d="M33.3475 25.5642C33.3469 25.2337 33.4001 24.9052 33.505 24.5918C33.6813 24.0622 33.9985 23.5905 34.4224 23.2274C34.8464 22.8643 35.3612 22.6235 35.9116 22.5306C35.7418 22.5031 35.5701 22.4893 35.3981 22.4895C35.3043 22.489 35.2106 22.4936 35.1173 22.5032C34.8037 22.5303 34.4963 22.6067 34.2065 22.7296C33.5067 23.0271 32.9411 23.572 32.6177 24.2602C32.5355 24.4327 32.4701 24.6127 32.4225 24.7978C32.359 25.0485 32.327 25.3062 32.3271 25.5648C32.3274 26.1716 32.5074 26.7648 32.8443 27.2694C33.1813 27.7741 33.6602 28.1676 34.2207 28.4003C34.5935 28.5574 34.9941 28.6377 35.3986 28.6366C35.5199 28.6367 35.641 28.6299 35.7615 28.6161L35.9121 28.5955C35.1955 28.4745 34.5448 28.1038 34.0754 27.5489C33.6059 26.9941 33.3481 26.291 33.3475 25.5642Z" fill="#E8BD31"/>
<path fill-rule="evenodd" clip-rule="evenodd" d="M46.3925 11.5152C46.3922 10.1499 46.9 8.83336 47.8171 7.82192C48.7341 6.81049 49.9948 6.17654 51.3536 6.04352C51.1756 6.02636 50.994 6.01611 50.8125 6.01611C49.3541 6.01611 47.9554 6.59548 46.9241 7.62675C45.8928 8.65802 45.3135 10.0567 45.3135 11.5152C45.3135 12.9736 45.8928 14.3723 46.9241 15.4036C47.9554 16.4349 49.3541 17.0142 50.8125 17.0142C50.994 17.0142 51.1756 17.0074 51.3536 16.9904C49.9944 16.8566 48.7337 16.2219 47.8167 15.2099C46.8998 14.1978 46.3921 12.8808 46.3925 11.5152Z" fill="#E8BD31"/>
</g>
<defs>
<clipPath id="clip0_419_254">
<rect width="61" height="61" fill="white"/>
</clipPath>
</defs>
</svg>
