<svg width="55" height="50" viewBox="0 0 55 50" fill="none" xmlns="http://www.w3.org/2000/svg">
<path d="M18.2404 28.6866V33.4284H20.5994C20.9688 33.4284 21.2189 33.8454 20.9926 34.179L17.0014 40.4696C16.7393 40.8747 16.1197 40.6841 16.1197 40.2194V35.4657H13.7727C13.4033 35.4657 13.1531 35.0487 13.3795 34.7151L17.3707 28.4126C17.6209 28.0194 18.2404 28.21 18.2404 28.6866ZM17.2873 33.905V30.3188L14.6186 34.5126H16.5844C16.8465 34.5126 17.0609 34.727 17.0609 34.9891V38.5753L19.7178 34.3815H17.752C17.5018 34.3815 17.2873 34.1671 17.2873 33.905ZM17.1801 25.7915C18.86 25.7915 20.4445 26.28 21.767 27.114L22.0887 25.1481V22.122C21.6717 21.8837 21.3023 21.5977 20.9688 21.2522L11.6043 26.6612C10.0793 27.5786 8.26836 26.0774 8.85215 24.4095L10.0912 20.8829C10.5439 19.5962 11.6281 18.7265 12.9863 18.5597L19.5152 17.7972C19.4437 15.4263 21.0641 13.3175 23.3396 12.7337V1.89188C23.3396 0.140516 25.5199 -0.669641 26.6637 0.664734L29.0941 3.50028C29.9877 4.5368 30.1902 5.90692 29.6541 7.16981L27.0568 13.2102C29.1299 14.3421 30.1664 16.7606 29.523 19.06L34.8725 22.1458C35.2418 18.1903 38.5777 15.1284 42.5928 15.1284C46.8818 15.1284 50.3488 18.5954 50.3488 22.8845C50.3488 24.6597 49.4314 26.2323 48.4188 27.9837C47.8588 28.9487 47.2631 29.9733 46.7984 31.0932C47.2154 31.3673 47.4895 31.8319 47.4895 32.3561C47.4895 32.928 47.5252 33.3927 47.0486 33.8692C46.9057 34.0122 46.715 34.1313 46.5125 34.2147C46.5125 34.8462 46.4291 35.3227 45.9883 35.7993C45.75 36.0614 45.4402 36.252 45.0947 36.3354L44.8445 37.2528C44.3918 38.9327 40.8414 39.0638 40.341 37.2528L40.0908 36.3354C39.2449 36.1329 38.673 35.3227 38.673 34.4411V34.2147C38.1012 34.0003 37.708 33.4403 37.708 32.8089C37.708 32.1536 37.6961 31.5579 38.399 31.1052C37.9701 30.0806 37.434 29.1393 36.9217 28.2458L34.658 28.6747C33.3117 28.9249 32.025 28.4245 31.2029 27.3284L27.2713 22.0624C27.1283 22.1577 26.9734 22.2292 26.8066 22.3126V25.172L28.558 35.6444H34.0742C35.4086 35.6444 36.5047 36.7405 36.5047 38.0749V44.2106C36.5047 45.128 37.1004 45.8786 37.982 45.8786H46.9771C49.0025 45.8786 49.0025 42.0661 46.9771 42.0661H44.5109C43.1766 42.0661 42.0805 40.97 42.0805 39.6356C42.0805 39.0161 43.0336 39.0161 43.0336 39.6356C43.0336 40.4458 43.7008 41.113 44.5109 41.113H46.9771C50.2654 41.113 50.2654 46.8317 46.9771 46.8317H37.9939C36.5881 46.8317 35.5635 45.6522 35.5635 44.1987V38.063C35.5635 37.2528 34.8963 36.5856 34.0861 36.5856H28.7248L30.083 44.7468H31.8105C33.9432 44.7468 35.0512 47.344 33.5262 48.8809C33.0854 49.3218 32.4777 49.5958 31.8105 49.5958H7.21992C5.0873 49.5958 3.9793 46.9985 5.51621 45.4616C5.95703 45.0208 6.56465 44.7468 7.21992 44.7468H18.8242L19.134 42.8882C13.725 44.1391 8.51855 40.0407 8.51855 34.453C8.53047 29.6755 12.4025 25.7915 17.1801 25.7915ZM22.6367 27.7335C26.616 30.9741 26.9377 36.9431 23.3039 40.5768C22.4223 41.4585 21.35 42.1495 20.1586 42.5903L19.8012 44.7587H29.1299L27.7121 36.2282C27.7121 36.2044 27.7002 36.1925 27.7002 36.1686L25.8893 25.303L25.8773 22.6462C24.948 22.8845 23.9711 22.8487 23.0656 22.5509V25.1958L22.6367 27.7335ZM22.6248 29.0083C19.6225 25.994 14.7377 25.994 11.7354 29.0083C8.72109 32.0225 8.72109 36.8954 11.7354 39.8977C14.7496 42.9001 19.6225 42.9001 22.6248 39.8977C25.6391 36.8954 25.6391 32.0106 22.6248 29.0083ZM42.14 11.6257C42.14 11.0061 43.0932 11.0061 43.0932 11.6257V13.6153C43.0932 14.2468 42.14 14.2468 42.14 13.6153V11.6257ZM32.442 17.7733C31.9059 17.4636 32.3705 16.6415 32.9186 16.9513L34.6342 17.9401C35.1822 18.2499 34.7057 19.072 34.1576 18.7622L32.442 17.7733ZM36.4689 13.4009C36.1592 12.8528 36.9813 12.3763 37.291 12.9243L38.2799 14.6399C38.5896 15.1761 37.7676 15.6526 37.4578 15.1165L36.4689 13.4009ZM54.0779 22.6224C54.7094 22.6224 54.7094 23.5755 54.0779 23.5755H52.0883C51.4687 23.5755 51.4687 22.6224 52.0883 22.6224H54.0779ZM52.3027 16.9513C52.8389 16.6415 53.3154 17.4636 52.7793 17.7733L51.0637 18.7622C50.5156 19.072 50.0391 18.2499 50.5871 17.9401L52.3027 16.9513ZM47.9303 12.9243C48.24 12.3763 49.0621 12.8528 48.7523 13.4009L47.7635 15.1165C47.4537 15.6526 46.6197 15.1761 46.9414 14.6399L47.9303 12.9243ZM43.6293 17.7018V22.4556H45.7262C46.0836 22.4556 46.3457 22.8487 46.1193 23.1942C45.5117 24.2069 44.9041 25.3268 44.2965 26.3515L42.4855 29.4848C42.2473 29.9018 41.592 29.7231 41.592 29.2466V24.4929H39.4951C39.1496 24.4929 38.8756 24.1116 39.102 23.7423L42.7238 17.4636C42.974 17.0466 43.6174 17.2253 43.6293 17.7018ZM42.6762 22.9321V19.477L40.3291 23.5397H42.0805C42.3426 23.5397 42.557 23.7542 42.557 24.0163V27.4595L44.9041 23.3968H43.1527C42.8787 23.4087 42.6762 23.1942 42.6762 22.9321ZM46.0717 31.82H39.1496C38.9113 31.8319 38.673 32.0821 38.673 32.3681C38.673 32.7016 38.6254 32.9876 38.8398 33.202C38.9352 33.3093 39.0781 33.3688 39.233 33.3688H46.0121C46.31 33.3688 46.5602 33.1186 46.5602 32.8208C46.5602 32.4872 46.6197 32.2013 46.4053 31.9868C46.31 31.8915 46.1908 31.8319 46.0717 31.82ZM36.4213 27.3641C35.623 25.9702 34.9559 24.6477 34.8605 23.23L28.7248 19.6915C28.5223 19.5724 28.4389 19.3341 28.5103 19.1196C29.2609 17.0704 28.284 14.7591 26.2467 13.8774C26.0084 13.7702 25.9012 13.4962 25.9965 13.2579L28.7725 6.80048C29.1656 5.88309 29.0227 4.89423 28.3674 4.13173L25.9369 1.29618C25.365 0.628992 24.2809 1.03407 24.2809 1.91571V13.1388C24.2809 13.377 24.1021 13.5796 23.8639 13.6153C22.8869 13.794 22.041 14.3063 21.4215 15.0331C20.6947 15.9028 20.3492 17.0227 20.4803 18.1903C20.5041 18.4524 20.3254 18.6907 20.0633 18.7145L13.0816 19.5366C12.0809 19.6558 11.3064 20.2753 10.9729 21.2165L9.75762 24.7311C9.48359 25.5056 10.2699 26.3157 11.1396 25.8511L20.8377 20.2515C21.0402 20.1323 21.2904 20.18 21.4334 20.3587C22.5176 21.6573 24.2928 22.1815 25.925 21.6335C26.342 21.4905 26.7471 21.288 27.0926 21.014C27.3189 20.8472 27.6287 20.9067 27.7836 21.1331L31.9654 26.7446C32.5611 27.5429 33.5023 27.9122 34.4793 27.7216L36.4213 27.3641ZM47.4299 18.0831C44.773 15.4263 40.4602 15.4263 37.8033 18.0831C36.5762 19.3102 35.8137 21.014 35.8137 22.8964C35.8137 24.4214 36.6715 25.8987 37.6127 27.519C38.2084 28.5436 38.8398 29.6397 39.3402 30.8669H45.893C46.3934 29.6397 47.0248 28.5556 47.6205 27.519C48.5617 25.8868 49.4195 24.4095 49.4195 22.8964C49.4195 21.014 48.657 19.3102 47.4299 18.0831ZM43.9391 37.0026L44.1059 36.3831H41.1154C41.2822 37.0145 41.2584 37.3481 41.9732 37.5388C42.6285 37.7175 43.7842 37.5626 43.9391 37.0026ZM40.5197 35.43H44.7016C45.2139 35.43 45.5832 34.9534 45.5832 34.4411V34.322H39.65C39.65 34.6556 39.6857 34.9177 39.924 35.1679C40.0789 35.3227 40.2934 35.43 40.5197 35.43ZM31.8105 45.6999H7.21992C5.9332 45.6999 5.2541 47.2725 6.1834 48.2018C6.44551 48.464 6.81484 48.6307 7.21992 48.6307H31.8105C33.0973 48.6307 33.7764 47.0581 32.8471 46.1288C32.585 45.8667 32.2156 45.6999 31.8105 45.6999ZM1.07227 27.9122C0.44082 27.9122 0.44082 26.9591 1.07227 26.9591H5.70684C6.06426 26.8638 6.36211 26.6493 6.55273 26.3515C7.24375 25.3149 6.40977 23.921 5.15879 24.0759C4.38438 24.1712 3.8125 24.8503 3.87207 25.6366C3.90781 26.2561 2.9666 26.3276 2.91895 25.6962C2.77598 23.635 5.12305 22.3602 6.7791 23.5874C7.81563 24.3618 8.06582 25.8034 7.35098 26.8757C7.0293 27.3641 6.52891 27.7335 5.90937 27.8765C5.86172 27.8884 5.81406 27.9003 5.76641 27.9003H1.07227V27.9122ZM0.464648 19.0958C-0.154883 19.0958 -0.154883 18.1427 0.464648 18.1427H7.77988C8.2207 18.0235 8.59004 17.7495 8.84023 17.3921C9.69805 16.1173 8.66152 14.4016 7.1127 14.5804C6.14766 14.6995 5.45664 15.5454 5.51621 16.5104C5.56387 17.13 4.61074 17.2015 4.56309 16.57C4.4082 14.211 7.08887 12.7456 8.97129 14.1634C10.1508 15.045 10.4367 16.7011 9.61465 17.9163C9.24531 18.4763 8.66152 18.8932 7.97051 19.072C7.92285 19.0839 7.8752 19.0958 7.82754 19.0958H0.464648ZM4.43203 9.48114C3.80059 9.48114 3.80059 8.52802 4.43203 8.52802H12.0809C12.5574 8.40887 12.9506 8.11102 13.2008 7.72977C14.1062 6.37157 13.0102 4.56063 11.366 4.75126C10.3533 4.8704 9.61465 5.77587 9.68613 6.78856C9.73379 7.40809 8.78066 7.47958 8.73301 6.84813C8.56621 4.40575 11.3541 2.88075 13.3199 4.34618C14.5471 5.26356 14.8449 6.97919 13.9871 8.24208C13.5939 8.82587 12.9982 9.26669 12.2715 9.4454C12.2238 9.45731 12.1762 9.46923 12.1285 9.46923H4.43203V9.48114ZM24.6264 16.1173C23.2205 16.1173 22.5176 17.821 23.5064 18.8099C24.4953 19.7987 26.199 19.0958 26.199 17.6899C26.199 16.8202 25.4961 16.1173 24.6264 16.1173ZM22.8273 15.9028C24.4238 14.3063 27.1521 15.4501 27.1521 17.6899C27.1521 19.9417 24.4238 21.0735 22.8273 19.477C21.8385 18.5001 21.8385 16.8917 22.8273 15.9028ZM19.7654 11.5661C20.2896 11.2206 20.8139 12.0069 20.2896 12.3643C19.0148 13.2102 18.0617 14.4731 17.5852 15.9147C17.3945 16.5104 16.4891 16.2126 16.6797 15.6169C17.2277 13.9608 18.3119 12.5311 19.7654 11.5661ZM19.1102 7.63446C19.6939 7.39618 20.0514 8.27782 19.4676 8.5161C16.2031 9.82665 13.7965 12.686 13.0936 16.1292C12.9744 16.7368 12.0332 16.5462 12.1643 15.9386C12.9268 12.1856 15.5479 9.06415 19.1102 7.63446Z" fill="black"/>
</svg>
