<svg width="39" height="36" viewBox="0 0 39 36" fill="none" xmlns="http://www.w3.org/2000/svg">
<path d="M19.4112 17.568C16.8433 17.568 14.7542 19.657 14.7542 22.225C14.7542 24.793 16.8433 26.882 19.4112 26.882C21.9792 26.882 24.0683 24.793 24.0683 22.225C24.0683 19.657 21.9792 17.568 19.4112 17.568ZM19.4112 25.6336C17.5323 25.6336 16.0034 24.1047 16.0034 22.2258C16.0034 20.3469 17.5323 18.818 19.4112 18.818C21.2901 18.818 22.8191 20.3469 22.8191 22.2258C22.8191 24.1047 21.2901 25.6336 19.4112 25.6336ZM21.3745 20.7805C21.6183 21.0242 21.6183 21.4195 21.3745 21.6633L19.3706 23.6672C19.2487 23.7891 19.0886 23.85 18.9292 23.85C18.7698 23.85 18.6097 23.7891 18.4878 23.6672L17.4495 22.6305C17.2058 22.3867 17.205 21.9914 17.4487 21.7477C17.6925 21.5039 18.0878 21.5031 18.3316 21.7469L18.9284 22.3422L20.4917 20.7789C20.7355 20.5352 21.1308 20.5352 21.3745 20.7789V20.7805ZM38.7331 32.9078C38.7269 32.8758 38.7183 32.8445 38.7073 32.8133C38.6933 32.775 38.6761 32.7375 38.655 32.7023L37.448 30.6141L36.237 28.5125C36.0644 28.2141 35.6831 28.1109 35.3839 28.2836C35.0855 28.4562 34.9823 28.8375 35.155 29.1367L36.3667 31.2391L36.4128 31.3188L30.8487 28.1063V15.9836C30.8487 15.9781 30.848 15.9727 30.848 15.9672C30.848 15.9453 30.8464 15.9227 30.8433 15.9008C30.8433 15.8961 30.8409 15.8914 30.8402 15.8859C30.837 15.8641 30.8323 15.8414 30.8269 15.8203C30.8253 15.8156 30.8237 15.8109 30.8222 15.8062C30.8159 15.7852 30.8089 15.7641 30.8003 15.743C30.798 15.7367 30.7941 15.7305 30.7909 15.725C30.7823 15.707 30.7745 15.6883 30.7644 15.6711C30.7589 15.6609 30.7519 15.6523 30.7456 15.643C30.737 15.6297 30.7292 15.6164 30.7198 15.6039C30.7081 15.5891 30.6956 15.575 30.6823 15.5609C30.6769 15.5547 30.6722 15.5484 30.6659 15.543C30.6487 15.5258 30.6308 15.5102 30.6112 15.4953C30.6089 15.4937 30.6066 15.4914 30.6042 15.4891C30.5823 15.4727 30.5597 15.457 30.5362 15.4437L30.5019 15.4234L25.1316 12.3234L20.0378 9.38125V2.95469L21.2972 5.1375C21.4698 5.43594 21.8511 5.53828 22.1503 5.36641C22.4487 5.19375 22.5511 4.8125 22.3792 4.51328L19.9605 0.322656C19.9409 0.2875 19.9183 0.253906 19.8925 0.223438C19.8691 0.196094 19.8441 0.170313 19.8167 0.147656C19.7089 0.0562501 19.5691 0.00078125 19.4167 0H19.4159C19.4159 0 19.4152 0 19.4144 0C19.4136 0 19.4144 0 19.4136 0C19.4136 0 19.4128 0 19.412 0C19.2573 0 19.1159 0.0578125 19.0066 0.151563C18.9816 0.173438 18.9581 0.196875 18.937 0.221875C18.9112 0.253125 18.8878 0.286719 18.8683 0.322656L17.6636 2.41328L16.4503 4.5125C16.2777 4.81094 16.38 5.19297 16.6784 5.36562C16.9776 5.53828 17.3589 5.43594 17.5316 5.1375L18.7456 3.0375L18.7917 2.95781V9.38047L13.698 12.3227L8.29562 15.4406L8.2925 15.4422C8.28078 15.4492 8.26984 15.457 8.2589 15.4648C8.24796 15.4727 8.23547 15.4797 8.22531 15.4875C8.21359 15.4961 8.20343 15.5063 8.1925 15.5164C8.18312 15.525 8.17297 15.5328 8.16359 15.5422C8.15265 15.5531 8.14328 15.5648 8.13312 15.5766C8.12531 15.5852 8.11672 15.5938 8.10968 15.6031C8.09953 15.6164 8.09171 15.6297 8.08234 15.6437C8.07609 15.6531 8.06984 15.6609 8.06437 15.6703C8.05578 15.6852 8.04875 15.7016 8.04093 15.7172C8.03703 15.7258 8.03156 15.7344 8.02765 15.743C8.02062 15.7602 8.01515 15.7773 8.00968 15.7945C8.00734 15.8031 8.00343 15.8109 8.00109 15.8195C7.99562 15.8391 7.9925 15.8594 7.98937 15.8797C7.98859 15.8867 7.98625 15.893 7.98546 15.9C7.98234 15.9219 7.98156 15.9437 7.98078 15.9664C7.98078 15.9719 7.98 15.9773 7.98 15.9828V27.9109L2.32922 31.1742L3.59093 28.9906C3.76359 28.6922 3.66125 28.3102 3.36281 28.1375C3.06359 27.9648 2.68234 28.0672 2.50968 28.3656L1.29562 30.4656L0.0901531 32.557C0.0690593 32.5922 0.0518718 32.6289 0.0378093 32.6672C0.0260906 32.6984 0.0174968 32.7305 0.0112468 32.7633C-0.0160969 32.9055 0.00577811 33.057 0.0839031 33.1922C0.162028 33.3273 0.283122 33.4227 0.420622 33.4703C0.451872 33.4812 0.483903 33.4898 0.516716 33.4953C0.552653 33.5016 0.58859 33.5047 0.625309 33.5047H0.636247H5.47453C5.81984 33.5047 6.09875 33.225 6.09875 32.8805C6.09875 32.5359 5.81906 32.2562 5.47453 32.2562H2.955L8.43546 29.0906L13.698 32.1305L19.1034 35.2508C19.2003 35.3062 19.3081 35.3344 19.4159 35.3344C19.5237 35.3344 19.6316 35.3062 19.7284 35.2508L25.1339 32.1305L30.2277 29.1883L35.7941 32.4023H33.2745C32.9292 32.4023 32.6503 32.682 32.6503 33.0266C32.6503 33.3711 32.93 33.6508 33.2745 33.6508H38.1128C38.1128 33.6508 38.1206 33.6508 38.1237 33.6508C38.1597 33.6508 38.1956 33.6477 38.2308 33.6414C38.2652 33.6352 38.2995 33.6266 38.3323 33.6148C38.4651 33.568 38.5831 33.4758 38.6605 33.3453C38.7378 33.2148 38.6605 33.3453 38.6605 33.3445C38.6612 33.343 38.662 33.3414 38.6636 33.3398C38.6636 33.3383 38.6651 33.3375 38.6659 33.3359C38.7417 33.2023 38.762 33.0516 38.7347 32.9117L38.7331 32.9078ZM24.7691 26.7125L25.2777 27.2227C25.0105 27.5359 24.7206 27.8266 24.4097 28.0914L23.9019 27.582C23.6878 27.3672 23.3495 27.3375 23.1011 27.5117C22.3308 28.0523 21.4698 28.4094 20.5433 28.5727C20.2448 28.625 20.0269 28.8844 20.0269 29.1875V29.9055C19.8222 29.9211 19.6167 29.9297 19.4112 29.9297C19.2066 29.9297 19.0019 29.9219 18.798 29.9055V29.1875C18.798 28.8844 18.58 28.625 18.2816 28.5727C17.3558 28.4094 16.4941 28.0523 15.7206 27.5109C15.4722 27.3375 15.1347 27.3672 14.9206 27.5813L14.4128 28.0898C14.1011 27.8234 13.8105 27.5336 13.5441 27.2211L14.0527 26.7117C14.2667 26.4977 14.2956 26.1609 14.1222 25.9133C13.5823 25.1406 13.2261 24.2797 13.0628 23.3547C13.0105 23.0562 12.7511 22.8383 12.448 22.8383H11.7292C11.712 22.6312 11.7042 22.4258 11.7042 22.225C11.7042 22.0242 11.7128 21.8172 11.7292 21.6094H12.448C12.7511 21.6094 13.0105 21.3914 13.0628 21.093C13.2261 20.1664 13.5831 19.3055 14.1237 18.5352C14.298 18.2867 14.2683 17.9484 14.0534 17.7344L13.5441 17.2266C13.8089 16.9156 14.0995 16.6258 14.412 16.3586L14.9198 16.8664C15.1339 17.0805 15.4714 17.1102 15.7198 16.9367C16.4933 16.3953 17.355 16.0383 18.2808 15.875C18.5792 15.8227 18.7972 15.5633 18.7972 15.2602V14.5422C19.205 14.5102 19.6167 14.5102 20.0261 14.5422V15.2602C20.0261 15.5633 20.2441 15.8227 20.5425 15.875C21.4691 16.0383 22.33 16.3953 23.1003 16.9359C23.3487 17.1102 23.6862 17.0805 23.9003 16.8664L24.4081 16.3586C24.7206 16.6242 25.0105 16.9148 25.2769 17.2273L24.7691 17.7352C24.555 17.9492 24.5253 18.2859 24.6987 18.5344C25.2331 19.2984 25.6003 20.1836 25.7605 21.093C25.8128 21.3914 26.0722 21.6094 26.3753 21.6094H27.0933C27.1097 21.8141 27.1175 22.0195 27.1175 22.225C27.1175 22.4305 27.1097 22.6344 27.0933 22.8383H26.3753C26.0722 22.8383 25.8128 23.0562 25.7605 23.3547C25.5972 24.2812 25.2402 25.1422 24.6995 25.9125C24.5253 26.1602 24.555 26.4977 24.7683 26.7125H24.7691ZM19.4112 10.4609L24.505 13.4031L28.7737 15.8672L26.7136 17.1055C26.6933 17.0352 26.6612 16.9672 26.6152 16.9047C26.0847 16.1859 25.4511 15.5523 24.7323 15.0219C24.4839 14.8383 24.1386 14.8641 23.9198 15.0828L23.3769 15.6258C22.7222 15.2297 22.0191 14.9383 21.2769 14.7547V13.9852C21.2769 13.6758 21.0495 13.4125 20.7433 13.3672C19.8652 13.2375 18.955 13.2383 18.0823 13.3672C17.7761 13.4125 17.5495 13.6758 17.5495 13.9852V14.7547C16.8073 14.9383 16.1034 15.2297 15.448 15.6258L14.9042 15.082C14.6855 14.8633 14.3394 14.8375 14.0909 15.0219C13.3698 15.5562 12.7362 16.1898 12.2089 16.9047C12.1636 16.9664 12.1308 17.0344 12.1105 17.1047L10.0511 15.8664L14.3191 13.4031L19.4128 10.4609H19.4112ZM9.22453 28.1055V17.0641L12.455 18.9297C12.237 19.3875 12.0659 19.8648 11.9433 20.3602H11.1737C10.8644 20.3602 10.6011 20.5875 10.5558 20.8937C10.4894 21.3422 10.4558 21.7898 10.4558 22.225C10.4558 22.6602 10.4894 23.1062 10.5558 23.5539C10.6011 23.8602 10.8636 24.0875 11.1737 24.0875H11.9433C12.1269 24.8289 12.4183 25.532 12.8128 26.1875L12.2683 26.7336C12.0503 26.9523 12.0245 27.2977 12.2089 27.5461C12.7402 28.2633 13.3737 28.8961 14.0909 29.4281C14.3402 29.6125 14.6862 29.5867 14.905 29.3672L15.4487 28.8219C16.105 29.218 16.8081 29.5094 17.5503 29.693V30.4625C17.5503 30.7719 17.7769 31.0352 18.0831 31.0805C18.3159 31.1148 18.5511 31.1398 18.7886 31.1562V33.6266L14.3198 31.0469L9.22609 28.1047L9.22453 28.1055ZM24.505 31.0477L20.0362 33.6273V31.157C20.273 31.1406 20.5097 31.1164 20.7433 31.0812C21.0495 31.0359 21.2769 30.7734 21.2769 30.4633V29.6937C22.0191 29.5102 22.7222 29.2188 23.3761 28.8227L23.9191 29.3672C24.1378 29.5859 24.4831 29.6117 24.7323 29.4289C25.4472 28.9008 26.0808 28.268 26.6152 27.5469C26.7995 27.2984 26.7737 26.9531 26.5558 26.7344L26.012 26.1891C26.4081 25.5344 26.6995 24.8312 26.8831 24.0883H27.6527C27.962 24.0883 28.2253 23.8609 28.2706 23.5547C28.3355 23.1164 28.3683 22.6695 28.3683 22.2258C28.3683 21.782 28.3355 21.3328 28.2706 20.8945C28.2253 20.5883 27.9628 20.3609 27.6527 20.3609H26.8823C26.7597 19.8703 26.5862 19.3906 26.3683 18.9305L29.5995 17.0641V28.1055L24.5058 31.0477H24.505Z" fill="white"/>
</svg>
