<svg width="32" height="30" viewBox="0 0 32 30" fill="none" xmlns="http://www.w3.org/2000/svg">
<path d="M5.21603 12.2989C4.66274 11.7456 3.77236 11.7376 3.20764 12.2722L3.19795 12.2659V8.53721C3.19795 7.74139 2.55275 7.09619 1.75693 7.09619C0.961121 7.09619 0.315918 7.74139 0.315918 8.53721V17.0729C0.315918 17.1777 0.357223 17.2783 0.430668 17.3528L3.27113 20.2319C3.34471 20.3064 3.38588 20.4069 3.38588 20.5117V21.4239H8.83797V16.0857C8.83797 15.98 8.796 15.8787 8.72122 15.804L5.21603 12.2989Z" fill="#F8AF23"/>
<path d="M5.21896 20.2319L2.3785 17.3528C2.30492 17.2783 2.26375 17.1777 2.26375 17.0729V8.53721C2.26375 8.11739 2.44437 7.74073 2.73085 7.47736C2.47425 7.24149 2.13293 7.09619 1.75693 7.09619C0.961121 7.09619 0.315918 7.74139 0.315918 8.53721V17.0729C0.315918 17.1777 0.35709 17.2783 0.430668 17.3528L3.27113 20.2319C3.34471 20.3064 3.38588 20.4069 3.38588 20.5117V21.4239H5.33384V20.5117C5.33371 20.4069 5.29254 20.3064 5.21896 20.2319Z" fill="#F87023"/>
<path d="M2.14404 21.4238H10.0796V23.39H2.14404V21.4238Z" fill="#707070"/>
<path d="M2.14404 21.4238H4.092V23.39H2.14404V21.4238Z" fill="#5B5B5B"/>
<path d="M2.74609 23.3901H9.47769V27.6733H2.74609V23.3901Z" fill="#CECECE"/>
<path d="M2.74609 23.3901H4.69405V27.6733H2.74609V23.3901Z" fill="#AFAFAF"/>
<path d="M26.7069 12.2989C27.2602 11.7456 28.1506 11.7376 28.7153 12.2722L28.725 12.2659V8.53721C28.725 7.74139 29.3702 7.09619 30.166 7.09619C30.9618 7.09619 31.607 7.74139 31.607 8.53721V17.0729C31.607 17.1777 31.5657 17.2783 31.4923 17.3528L28.6518 20.2319C28.5782 20.3064 28.537 20.4069 28.537 20.5117V21.4239H23.085V16.0857C23.085 15.98 23.1269 15.8787 23.2017 15.804L26.7069 12.2989Z" fill="#F8AF23"/>
<path d="M26.7037 20.2319L29.5442 17.3528C29.6178 17.2783 29.659 17.1777 29.659 17.0729V8.53721C29.659 8.11739 29.4783 7.74073 29.1919 7.47736C29.4485 7.24149 29.7898 7.09619 30.1658 7.09619C30.9616 7.09619 31.6068 7.74139 31.6068 8.53721V17.0729C31.6068 17.1777 31.5656 17.2783 31.492 17.3528L28.6516 20.2319C28.578 20.3064 28.5368 20.4069 28.5368 20.5117V21.4239H26.5889V20.5117C26.589 20.4069 26.6302 20.3064 26.7037 20.2319Z" fill="#F8D323"/>
<path d="M29.7788 23.3901H21.8433V21.424H29.7788V23.3901Z" fill="#707070"/>
<path d="M27.8311 21.4238H29.779V23.39H27.8311V21.4238Z" fill="#9E9E9E"/>
<path d="M29.1768 27.6733H22.4452V23.3901H29.1768V27.6733Z" fill="#CECECE"/>
<path d="M27.229 23.3901H29.177V27.6733H27.229V23.3901Z" fill="#E2E2E2"/>
<path d="M20.5987 6.47099L20.2394 6.10788C19.6982 5.56069 19.3946 4.82225 19.3946 4.05261V3.20752H15.9614H12.5282V4.05261C12.5282 4.82225 12.2246 5.56082 11.6834 6.10788L11.3243 6.47099C10.7514 7.04992 10.4302 7.83152 10.4302 8.64606V18.0811C10.4302 18.3444 10.6436 18.5579 10.907 18.5579H15.9614H21.016C21.2794 18.5579 21.4928 18.3444 21.4928 18.0811V8.64593C21.4928 7.83139 21.1715 7.04992 20.5987 6.47099Z" fill="#CECECE"/>
<path d="M12.378 18.0808V8.64581C12.378 7.83141 12.6993 7.04981 13.2721 6.47074L13.6312 6.10764C14.1724 5.56058 14.476 4.82201 14.476 4.05236V3.20728H12.5282V4.05236C12.5282 4.82201 12.2246 5.56058 11.6834 6.10764L11.3243 6.47074C10.7514 7.04981 10.4302 7.83128 10.4302 8.64581V18.0808C10.4302 18.3442 10.6436 18.5576 10.907 18.5576H12.8549C12.5914 18.5576 12.378 18.3442 12.378 18.0808Z" fill="#AFAFAF"/>
<path d="M19.5448 18.0808V8.64581C19.5448 7.83141 19.2235 7.04981 18.6507 6.47074L18.2916 6.10764C17.7504 5.56058 17.4468 4.82201 17.4468 4.05236V3.20728H19.3947V4.05236C19.3947 4.82201 19.6983 5.56058 20.2396 6.10764L20.5987 6.47074C21.1715 7.04981 21.4928 7.83128 21.4928 8.64581V18.0808C21.4928 18.3442 21.2793 18.5576 21.016 18.5576H19.068C19.3314 18.5576 19.5448 18.3442 19.5448 18.0808Z" fill="#E2E2E2"/>
<path d="M19.6128 3.20742H12.3101C11.9434 3.20742 11.646 2.91005 11.646 2.54336V0.863281C11.646 0.496586 11.9434 0.199219 12.3101 0.199219H19.6128C19.9794 0.199219 20.2768 0.496586 20.2768 0.863281V2.54336C20.2768 2.91005 19.9794 3.20742 19.6128 3.20742Z" fill="#63BCE7"/>
<path d="M13.594 2.54336V0.863281C13.594 0.496586 13.8913 0.199219 14.258 0.199219H12.3101C11.9434 0.199219 11.646 0.496586 11.646 0.863281V2.54336C11.646 2.91005 11.9434 3.20742 12.3101 3.20742H14.258C13.8913 3.20742 13.594 2.91005 13.594 2.54336Z" fill="#6377E7"/>
<path d="M18.3291 2.54336V0.863281C18.3291 0.496586 18.0317 0.199219 17.665 0.199219H19.613C19.9797 0.199219 20.2771 0.496586 20.2771 0.863281V2.54336C20.2771 2.91005 19.9797 3.20742 19.613 3.20742H17.665C18.0317 3.20742 18.3291 2.91005 18.3291 2.54336Z" fill="#63E2E7"/>
<path d="M10.4302 8.90088H21.4929V15.7885H10.4302V8.90088Z" fill="#F46275"/>
<path d="M10.4302 8.90088H12.3781V15.7885H10.4302V8.90088Z" fill="#F43075"/>
<path d="M19.5449 8.90088H21.4929V15.7885H19.5449V8.90088Z" fill="#F48875"/>
<path d="M15.9473 14.5C16.4919 13.9554 15.9685 12.549 14.7783 11.3587C13.588 10.1684 12.1816 9.64504 11.637 10.1897C11.0924 10.7343 11.6158 12.1407 12.806 13.3309C13.9963 14.5212 15.4027 15.0446 15.9473 14.5Z" fill="#72C777"/>
<path d="M19.1098 13.3312C20.3001 12.141 20.8235 10.7346 20.2789 10.19C19.7342 9.64535 18.3278 10.1687 17.1376 11.359C15.9473 12.5493 15.4239 13.9557 15.9685 14.5003C16.5132 15.0449 17.9196 14.5215 19.1098 13.3312Z" fill="#72C777"/>
<path d="M2.59024 28.9314H0.199219C0.0892499 28.9314 0 29.0206 0 29.1306C0 29.2406 0.0892499 29.3298 0.199219 29.3298H2.59024C2.70021 29.3298 2.78946 29.2406 2.78946 29.1306C2.78946 29.0206 2.70021 28.9314 2.59024 28.9314Z" fill="#3F3679"/>
<path d="M31.7235 28.9314H29.3325C29.2226 28.9314 29.1333 29.0206 29.1333 29.1306C29.1333 29.2406 29.2226 29.3298 29.3325 29.3298H31.7235C31.8335 29.3298 31.9228 29.2406 31.9228 29.1306C31.9228 29.0206 31.8335 28.9314 31.7235 28.9314Z" fill="#3F3679"/>
<path d="M27.9783 28.9314H3.94482C3.83486 28.9314 3.74561 29.0206 3.74561 29.1306C3.74561 29.2406 3.83486 29.3298 3.94482 29.3298H27.9784C28.0884 29.3298 28.1777 29.2406 28.1777 29.1306C28.1777 29.0206 28.0884 28.9314 27.9783 28.9314Z" fill="#3F3679"/>
<path d="M0.199219 27.8725H2.74603H9.47763H22.4453H29.1769H31.7237C31.8337 27.8725 31.9229 27.7832 31.9229 27.6733C31.9229 27.5633 31.8337 27.474 31.7237 27.474H29.3761V23.5893H29.779C29.8889 23.5893 29.9782 23.5 29.9782 23.39V21.4238C29.9782 21.3138 29.8889 21.2245 29.779 21.2245H28.7364V20.5116C28.7364 20.459 28.7567 20.4092 28.7937 20.3718L31.6342 17.4925C31.7452 17.38 31.8065 17.231 31.8065 17.0728V8.53696C31.8065 7.63251 31.0707 6.89673 30.1662 6.89673C29.2616 6.89673 28.5259 7.63251 28.5259 8.53696V11.8857C27.899 11.5314 27.1 11.6239 26.5661 12.1578L23.0608 15.6632C22.9479 15.7762 22.8858 15.9261 22.8858 16.0858V21.2245H21.8433C21.7333 21.2245 21.6441 21.3138 21.6441 21.4238V23.39C21.6441 23.5 21.7333 23.5893 21.8433 23.5893H22.246V27.474H9.67685V23.5893H10.0795C10.1895 23.5893 10.2788 23.5 10.2788 23.39V21.4238C10.2788 21.3138 10.1895 21.2245 10.0795 21.2245H9.03696V16.0858C9.03696 15.9263 8.9748 15.7762 8.86191 15.663L5.35673 12.1578C4.82282 11.6238 4.02382 11.5314 3.39695 11.8857V8.5371C3.39695 7.63264 2.66116 6.89686 1.75658 6.89686C0.852125 6.89686 0.116344 7.63264 0.116344 8.5371V17.073C0.116344 17.2311 0.17757 17.3801 0.288602 17.4926L3.12893 20.3718C3.16598 20.4093 3.18644 20.459 3.18644 20.5117V21.2247H2.14386C2.03389 21.2247 1.94464 21.3139 1.94464 21.4239V23.3902C1.94464 23.5002 2.03389 23.5894 2.14386 23.5894H2.54668V27.4742H0.199219C0.0892499 27.4742 0 27.5634 0 27.6734C0 27.7834 0.0892499 27.8725 0.199219 27.8725ZM23.2843 16.0858C23.2843 16.0326 23.305 15.9826 23.3426 15.9447L26.8478 12.4395C27.3262 11.961 28.0863 11.951 28.5783 12.4165C28.5836 12.4216 28.6006 12.4361 28.604 12.4395C28.8385 12.6742 28.9676 12.9859 28.9676 13.3175C28.9676 13.6493 28.8384 13.9612 28.604 14.1957L25.9634 16.8363C25.8856 16.9141 25.8856 17.0402 25.9634 17.118C26.0023 17.1569 26.0533 17.1763 26.1043 17.1763C26.1553 17.1763 26.2063 17.1569 26.2452 17.118L28.8858 14.4774C29.5116 13.8516 29.5234 12.8426 28.9243 12.2003V8.5371C28.9243 7.85245 29.4813 7.2953 30.1662 7.2953C30.8509 7.2953 31.408 7.85231 31.408 8.5371V17.073C31.408 17.1255 31.3877 17.1754 31.3507 17.2128L28.5101 20.0922C28.399 20.2048 28.3379 20.3538 28.3379 20.5117V21.2247H23.2843V16.0858ZM22.0425 21.6231H23.0851H28.5372H29.5797V22.2078H25.9428C25.8328 22.2078 25.7436 22.297 25.7436 22.407C25.7436 22.5169 25.8328 22.6062 25.9428 22.6062H29.5797V23.1908H29.1769H22.4453H22.0426L22.0425 21.6231ZM22.6444 23.5893H28.9776V24.2824H24.0585C23.9485 24.2824 23.8592 24.3717 23.8592 24.4816C23.8592 24.5916 23.9485 24.6809 24.0585 24.6809H28.9776V27.474H22.6444V23.5893ZM3.41275 20.0919L0.572289 17.2127C0.535367 17.1752 0.514914 17.1255 0.514914 17.0728V8.53696C0.514914 7.85231 1.07193 7.29517 1.75671 7.29517C2.44149 7.29517 2.99864 7.85218 2.99864 8.53696V12.2005C2.39966 12.8427 2.41134 13.8516 3.03716 14.4775L5.67773 17.1181C5.71665 17.157 5.76765 17.1764 5.81865 17.1764C5.86965 17.1764 5.92065 17.157 5.95956 17.1181C6.03739 17.0403 6.03739 16.9142 5.95956 16.8364L3.31898 14.1958C3.08444 13.9612 2.95534 13.6494 2.95534 13.3177C2.95534 12.986 3.08457 12.6742 3.31898 12.4397C3.32204 12.4366 3.33904 12.422 3.34462 12.4167C3.83642 11.9512 4.59664 11.961 5.07516 12.4397L8.58022 15.9447C8.61794 15.9826 8.63866 16.0326 8.63866 16.0859V21.2247H3.58488V20.5117C3.58488 20.3537 3.52391 20.2047 3.41275 20.0919ZM2.34321 22.6062H5.98015C6.09012 22.6062 6.17937 22.5169 6.17937 22.407C6.17937 22.297 6.09012 22.2078 5.98015 22.2078H2.34321V21.6231H3.38579H8.83787H9.88045V23.191H9.47777H2.74603H2.34321V22.6062ZM2.94525 24.6809H7.86436C7.97433 24.6809 8.06358 24.5916 8.06358 24.4816C8.06358 24.3717 7.97433 24.2824 7.86436 24.2824H2.94525V23.5893H9.27841V27.474H2.94525V24.6809Z" fill="#3F3679"/>
<path d="M7.2417 22.6062H8.48682C8.59679 22.6062 8.68604 22.517 8.68604 22.407C8.68604 22.297 8.59679 22.2078 8.48682 22.2078H7.2417C7.13173 22.2078 7.04248 22.297 7.04248 22.407C7.04248 22.517 7.13173 22.6062 7.2417 22.6062Z" fill="#3F3679"/>
<path d="M23.436 22.6062H24.6812C24.7911 22.6062 24.8804 22.517 24.8804 22.407C24.8804 22.297 24.7911 22.2078 24.6812 22.2078H23.436C23.3261 22.2078 23.2368 22.297 23.2368 22.407C23.2368 22.517 23.3261 22.6062 23.436 22.6062Z" fill="#3F3679"/>
<path d="M10.9068 18.7568H21.0159C21.3887 18.7568 21.6919 18.4536 21.6919 18.0808V15.7885V8.90096V8.64583C21.6919 7.77338 21.3539 6.95114 20.7403 6.33077L20.3812 5.96766C19.8735 5.45448 19.5938 4.77434 19.5938 4.05251V3.40664H19.6127C20.0887 3.40664 20.476 3.01936 20.476 2.54336V0.863281C20.476 0.387281 20.0887 0 19.6127 0H12.3101C11.8341 0 11.4469 0.387281 11.4469 0.863281V2.54323C11.4469 3.01923 11.8341 3.40651 12.3101 3.40651H12.329V4.05238C12.329 4.77421 12.0494 5.45434 11.5417 5.96753L11.1826 6.33064C10.569 6.95101 10.231 7.77312 10.231 8.6457V8.90083V15.7884V18.0807C10.231 18.4535 10.5342 18.7568 10.9068 18.7568ZM21.016 18.3584H10.9068C10.7538 18.3584 10.6293 18.2338 10.6293 18.0808V15.9877H21.2934V18.0808C21.2934 18.2338 21.169 18.3584 21.016 18.3584ZM10.6294 9.10018H21.2936V15.5893H10.6294V9.10018ZM20.0775 0.863281V2.54323C20.0775 2.79955 19.869 3.00807 19.6127 3.00807H19.3946H18.7474V0.398438H19.6127C19.869 0.398438 20.0775 0.606953 20.0775 0.863281ZM13.5737 3.00807V0.398438H14.8998V3.00807H13.5737ZM15.2984 0.398438H16.6244V3.00807H15.2984V0.398438ZM17.0229 0.398438H18.349V3.00807H17.0229V0.398438ZM11.8453 2.54323V0.863281C11.8453 0.606953 12.0538 0.398438 12.3101 0.398438H13.1754V3.00807H12.5282H12.3101C12.0538 3.00807 11.8453 2.79955 11.8453 2.54323ZM11.4657 6.61088L11.8248 6.24777C12.4068 5.65954 12.7273 4.87993 12.7273 4.05251V3.40664H19.1954V4.05251C19.1954 4.87993 19.5159 5.65967 20.0979 6.24777L20.457 6.61088C20.9965 7.15607 21.2934 7.87884 21.2934 8.6457V8.70161H10.6294V8.64583C10.6294 7.87884 10.9264 7.1562 11.4657 6.61088Z" fill="#3F3679"/>
<path d="M20.2972 9.99065C19.0704 9.90273 17.8685 10.3495 17.0004 11.2177C16.5167 11.7013 16.1642 12.2886 15.9617 12.9262C15.7592 12.2887 15.4065 11.7014 14.923 11.2177C14.0549 10.3496 12.8526 9.90153 11.6262 9.99065C11.5273 9.99782 11.4489 10.0763 11.4417 10.1751C11.3532 11.4022 11.8004 12.6039 12.6686 13.4721C13.4644 14.2679 14.5407 14.71 15.6598 14.71C15.7601 14.71 15.8608 14.7063 15.9616 14.6991C16.0624 14.7063 16.1629 14.71 16.2633 14.71C17.3825 14.7099 18.4588 14.2679 19.2545 13.4721C20.1227 12.6039 20.5699 11.4022 20.4814 10.1751C20.4744 10.0762 20.396 9.99769 20.2972 9.99065ZM12.9502 13.1902C12.2054 12.4454 11.8025 11.4293 11.8302 10.3794C12.879 10.3491 13.8962 10.7543 14.641 11.4994C15.2764 12.1346 15.6617 12.9676 15.7443 13.8504L14.4746 12.5173C14.3985 12.4373 14.2726 12.4347 14.193 12.5104C14.1132 12.5862 14.1103 12.7124 14.1861 12.7919L15.6322 14.3104C14.6291 14.3044 13.6643 13.9044 12.9502 13.1902ZM18.9729 13.1902C18.2611 13.9021 17.2988 14.3021 16.3013 14.3104L17.7475 12.7919C17.8233 12.7122 17.8204 12.5862 17.7406 12.5104C17.6612 12.4347 17.5351 12.4376 17.459 12.5173L16.1775 13.8628C16.2577 12.9753 16.6438 12.1376 17.2821 11.4994C18.0269 10.7546 19.0391 10.35 20.093 10.3794C20.1204 11.4294 19.7178 12.4454 18.9729 13.1902Z" fill="#3F3679"/>
</svg>
