<svg width="31" height="29" viewBox="0 0 31 29" fill="none" xmlns="http://www.w3.org/2000/svg">
<path d="M29.2188 15.4062L29.1284 16.4688L28.1562 28.1562H15.9375L14.3438 15.4062H29.2188Z" fill="#ACABB1"/>
<path d="M30.8125 12.2188V15.4062H29.2188H14.3438H12.75V12.2188H21.7812H30.8125Z" fill="#787680"/>
<path d="M10.8694 24.7244L12.58 26.435C12.3919 26.9421 12.0525 27.3791 11.6078 27.687C11.1631 27.9949 10.6346 28.1587 10.0938 28.1562H6.375V22.8438H8.98875L10.8694 24.7244Z" fill="#00CCB3"/>
<path d="M23.375 7.4375V6.375C23.375 5.24783 23.8228 4.16683 24.6198 3.3698C25.4168 2.57277 26.4978 2.125 27.625 2.125H30.8125V3.1875C30.8125 4.31467 30.3647 5.39567 29.5677 6.1927C28.7707 6.98973 27.6897 7.4375 26.5625 7.4375H23.375Z" fill="#00CCB3"/>
<path d="M20.1875 4.25V5.3125H17C15.8728 5.3125 14.7918 4.86473 13.9948 4.0677C13.1978 3.27067 12.75 2.18967 12.75 1.0625V0H15.9375C17.0647 0 18.1457 0.447766 18.9427 1.2448C19.7397 2.04183 20.1875 3.12283 20.1875 4.25Z" fill="#00CCB3"/>
<path d="M14.6309 20.9631L10.8696 24.7244L8.98898 22.8437L8.23992 22.0947C7.74115 21.5959 7.46094 20.9194 7.46094 20.214C7.46094 19.5087 7.74115 18.8322 8.23992 18.3334C8.73869 17.8347 9.41517 17.5544 10.1205 17.5544C10.8259 17.5544 11.5024 17.8347 12.0012 18.3334L14.6309 20.9631Z" fill="#1E81CE"/>
<path d="M6.375 22.8438V28.1562H2.65625C1.95177 28.1562 1.27614 27.8764 0.777998 27.3783C0.279854 26.8801 0 26.2045 0 25.5C0 24.7955 0.279854 24.1199 0.777998 23.6217C1.27614 23.1236 1.95177 22.8438 2.65625 22.8438H6.375Z" fill="#FF5023"/>
<path d="M15.0984 21.4306L17.2606 23.5928C17.6002 23.9309 17.842 24.3546 17.9602 24.819C18.0784 25.2834 18.0686 25.7711 17.9318 26.2304C17.7951 26.6897 17.5365 27.1034 17.1835 27.4275C16.8305 27.7516 16.3964 27.9741 15.9271 28.0713C15.7472 28.1091 15.5638 28.1287 15.3799 28.1297C14.6752 28.1297 13.9992 27.8508 13.4993 27.3541L12.5803 26.435L10.8696 24.7244L14.6309 20.9631L15.0984 21.4306Z" fill="#FF5023"/>
<path d="M29.2188 15.4062L29.1284 16.4688H14.4766L14.3438 15.4062H29.2188Z" fill="#898890"/>
<path d="M23.375 7.96877H21.7812V6.90627H23.205L26.7851 4.34937L27.4024 5.21318L23.6837 7.86943C23.5937 7.93409 23.4858 7.96885 23.375 7.96877Z" fill="#00665A"/>
<path d="M21.7813 5.84377H20.1876C20.0768 5.84385 19.9688 5.80909 19.8789 5.74443L16.1602 3.08818L16.7775 2.22437L20.3576 4.78127H21.7813V5.84377Z" fill="#00665A"/>
<path d="M22.3125 0H21.25V12.2188H22.3125V0Z" fill="#754C29"/>
</svg>
