<svg width="60" height="60" viewBox="0 0 60 60" fill="none" xmlns="http://www.w3.org/2000/svg">
<g clip-path="url(#clip0_309_571)">
<path d="M8.53113 58.5244C8.60658 58.6846 8.72587 58.8202 8.8752 58.9155C9.02453 59.0107 9.19777 59.0617 9.37488 59.0625C9.53933 59.0635 9.70109 59.0208 9.84363 58.9388L16.4061 55.1888C16.6144 55.0701 16.7693 54.8763 16.839 54.647C16.9088 54.4177 16.888 54.1704 16.7811 53.956L15.7836 51.9619C18.485 50.5496 21.5984 50.1366 24.5746 50.7956L26.2799 51.1706C28.4982 51.6637 30.7951 51.6875 33.0231 51.2404C35.2511 50.7934 37.361 49.8854 39.2174 48.5747L51.1714 40.1372C51.3358 40.021 51.4583 39.8549 51.521 39.6636C51.5836 39.4723 51.583 39.2659 51.5193 39.075L51.2521 38.2735C51.0769 37.7464 50.7904 37.2633 50.4122 36.8566C50.0339 36.45 49.5726 36.1295 49.0596 35.9167C48.5466 35.7039 47.9938 35.6039 47.4388 35.6235C46.8838 35.643 46.3395 35.7817 45.8427 36.03L44.9999 36.451L44.5546 36.2288C43.7951 35.8627 42.9656 35.6648 42.1226 35.6486C41.2797 35.6324 40.4432 35.7983 39.6702 36.135L38.218 35.7722C37.4897 35.5956 36.7315 35.581 35.9968 35.7294C35.2622 35.8778 34.5691 36.1855 33.9664 36.631L31.5627 38.4375H27.4086L26.0624 37.7635C24.2685 36.8666 22.2695 36.4598 20.2678 36.5845C18.2661 36.7091 16.333 37.3607 14.6643 38.4731L11.7168 40.4419L10.3574 41.1216L9.28113 38.956C9.1742 38.7419 8.98949 38.5769 8.76483 38.4946C8.54017 38.4123 8.29255 38.4191 8.0727 38.5135L1.51019 41.326C1.39449 41.3755 1.28994 41.4479 1.20281 41.5387C1.11567 41.6296 1.04772 41.7371 1.00301 41.8547C0.958305 41.9724 0.937754 42.0979 0.942585 42.2237C0.947416 42.3495 0.977531 42.473 1.03113 42.5869L8.53113 58.5244ZM43.2927 37.7306L39.0308 41.3813C38.7729 40.747 38.3793 40.1767 37.8777 39.7106L39.5839 38.3456C40.1017 37.9436 40.7115 37.6768 41.3582 37.5695C42.0048 37.4621 42.6681 37.5175 43.288 37.7306H43.2927ZM35.0961 38.1347C35.4472 37.8791 35.8465 37.6974 36.2698 37.6007C36.6932 37.504 37.1317 37.4943 37.5589 37.5722L36.1527 38.6972C35.6815 38.5321 35.1866 38.4444 34.6874 38.4375L35.0961 38.1347ZM12.6064 42.0938C12.6413 42.0761 12.6751 42.0564 12.7077 42.0347L15.7077 40.0378C17.1 39.1096 18.7128 38.5655 20.3829 38.4607C22.053 38.3558 23.7211 38.6939 25.2186 39.4406L26.7646 40.2141C26.8959 40.2795 27.0407 40.3132 27.1874 40.3125H34.6874C35.2689 40.3132 35.8359 40.4938 36.3108 40.8295C36.7856 41.1652 37.145 41.6395 37.3396 42.1875H29.0624V44.0625H38.4374C38.6614 44.063 38.878 43.9828 39.0477 43.8366L45.5239 38.2847L46.6733 37.711C46.93 37.5828 47.2113 37.5112 47.4981 37.5011C47.7848 37.4911 48.0704 37.5427 48.3355 37.6526C48.6005 37.7625 48.8389 37.928 49.0345 38.138C49.23 38.348 49.3782 38.5975 49.4689 38.8697L49.5149 39.0103L38.1299 47.0475C36.487 48.2068 34.6201 49.01 32.6487 49.4055C30.6773 49.8011 28.645 49.7802 26.6821 49.3444L24.9768 48.9647C21.5815 48.2143 18.0305 48.6822 14.9455 50.2866L11.1955 42.7941L12.6064 42.0938ZM7.99395 40.5938L14.7027 54L9.7902 56.8125L3.13395 42.6713L7.99395 40.5938Z" fill="white"/>
<path d="M30 34.6875C33.3376 34.6875 36.6002 33.6978 39.3752 31.8436C42.1503 29.9893 44.3132 27.3538 45.5905 24.2703C46.8677 21.1868 47.2019 17.7938 46.5508 14.5204C45.8996 11.2469 44.2924 8.24009 41.9324 5.88008C39.5724 3.52007 36.5656 1.91288 33.2922 1.26176C30.0187 0.61063 26.6257 0.944812 23.5422 2.22204C20.4587 3.49927 17.8232 5.66218 15.9689 8.43726C14.1147 11.2123 13.125 14.4749 13.125 17.8125C13.1302 22.2864 14.9098 26.5756 18.0733 29.7392C21.2369 32.9027 25.5261 34.6823 30 34.6875ZM15.4941 21.5625H20.0456L21.6609 24.7941C21.7388 24.9499 21.8586 25.081 22.0068 25.1725C22.155 25.2641 22.3258 25.3126 22.5 25.3125H26.25V28.125C26.25 28.3736 26.3488 28.6121 26.5246 28.7879C26.7004 28.9637 26.9389 29.0625 27.1875 29.0625H32.5312L34.6875 30.5016V32.0522C32.7401 32.6982 30.6806 32.9365 28.6372 32.7522C26.5938 32.5679 24.6101 31.9651 22.8097 30.9811C21.0093 29.9972 19.4307 28.6532 18.1721 27.0328C16.9136 25.4124 16.002 23.5504 15.4941 21.5625ZM45 17.8125C45 18.1294 44.9719 18.4388 44.9522 18.75H43.8009L43.0763 16.5788C43.0141 16.3922 42.8948 16.2298 42.7353 16.1147C42.5758 15.9997 42.3842 15.9377 42.1875 15.9375H39.375C39.2 15.9366 39.0282 15.9846 38.8791 16.0762C38.73 16.1679 38.6095 16.2994 38.5312 16.4559L37.8581 17.8125H31.875V16.5169L35.1066 14.9063C35.2631 14.828 35.3947 14.7075 35.4863 14.5584C35.5779 14.4093 35.626 14.2375 35.625 14.0625V11.7516L38.0203 10.1578C38.1491 10.0719 38.2546 9.95547 38.3273 9.81888C38.4001 9.68228 38.438 9.52979 38.4375 9.37501V8.00157L40.1878 6.83438C41.704 8.23318 42.9143 9.93066 43.7424 11.82C44.5706 13.7093 44.9988 15.7496 45 17.8125ZM29.0625 2.86032V5.31282L26.4375 8.81251C26.3158 8.97478 26.25 9.17216 26.25 9.37501V14.6119L24.4528 16.4063L21.5625 12.7959V9.37501C21.5625 9.2207 21.5245 9.06878 21.4517 8.93271C21.3789 8.79665 21.2737 8.68065 21.1453 8.59501L19.2703 7.34813C21.8629 4.68677 25.354 3.08678 29.0625 2.86032ZM18.0497 8.78438L19.6875 9.87657V13.125C19.6874 13.338 19.7598 13.5446 19.8928 13.7109L23.6428 18.3984C23.7251 18.5014 23.8282 18.5858 23.9453 18.6462C24.0624 18.7066 24.1909 18.7417 24.3225 18.7491H24.375C24.6236 18.749 24.862 18.6502 25.0378 18.4744L27.8503 15.6619C28.0259 15.4863 28.1247 15.2483 28.125 15V9.68719L30.75 6.18751C30.8717 6.02523 30.9375 5.82785 30.9375 5.62501V2.86032C33.7199 3.02945 36.3988 3.97667 38.6691 5.59407L36.9816 6.71907C36.8527 6.80458 36.747 6.92064 36.6739 7.05689C36.6008 7.19315 36.5625 7.34537 36.5625 7.50001V8.87344L34.1672 10.4672C34.0384 10.5531 33.9329 10.6695 33.8602 10.8061C33.7874 10.9427 33.7495 11.0952 33.75 11.25V13.4831L30.5184 15.0984C30.3626 15.1763 30.2315 15.2961 30.14 15.4443C30.0484 15.5925 29.9999 15.7633 30 15.9375V18.75C30 18.9986 30.0988 19.2371 30.2746 19.4129C30.4504 19.5887 30.6889 19.6875 30.9375 19.6875H38.4375C38.6125 19.6885 38.7843 19.6404 38.9334 19.5488C39.0825 19.4572 39.203 19.3256 39.2813 19.1691L39.9544 17.8125H41.5116L42.2362 19.9838C42.2984 20.1704 42.4177 20.3327 42.5772 20.4478C42.7367 20.5629 42.9283 20.6249 43.125 20.625H44.7262C44.2844 22.9122 43.3168 25.0653 41.9 26.9144C40.4832 28.7635 38.656 30.258 36.5625 31.2797V30C36.5625 29.8457 36.5245 29.6938 36.4517 29.5577C36.3789 29.4216 36.2737 29.3056 36.1453 29.22L33.3328 27.345C33.1786 27.2426 32.9976 27.1878 32.8125 27.1875H28.125V24.375C28.125 24.1264 28.0262 23.8879 27.8504 23.7121C27.6746 23.5363 27.4361 23.4375 27.1875 23.4375H23.0794L21.4688 20.2059C21.3905 20.0494 21.27 19.9179 21.1209 19.8262C20.9718 19.7346 20.8 19.6866 20.625 19.6875H15.1303C14.8724 17.7674 14.9976 15.8152 15.4987 13.9437C15.9998 12.0723 16.8668 10.3187 18.0497 8.78438Z" fill="white"/>
<path d="M34.6875 26.25H38.4375C38.6342 26.2498 38.8258 26.1878 38.9853 26.0728C39.1448 25.9577 39.2641 25.7954 39.3263 25.6087L40.2638 22.7962C40.3424 22.5604 40.3242 22.303 40.2131 22.0806C40.102 21.8582 39.9071 21.689 39.6713 21.6103L36.8588 20.6728C36.6936 20.6179 36.5164 20.61 36.347 20.6501C36.1776 20.6901 36.0227 20.7766 35.8997 20.8997L34.0247 22.7747C33.8489 22.9505 33.7501 23.1889 33.75 23.4375V25.3125C33.75 25.5611 33.8488 25.7996 34.0246 25.9754C34.2004 26.1512 34.4389 26.25 34.6875 26.25ZM35.625 23.8256L36.8166 22.635L38.1891 23.0925L37.7616 24.375H35.625V23.8256Z" fill="white"/>
<path d="M50.6251 10.3125C50.7705 10.3122 50.9138 10.2785 51.0441 10.214L58.5441 6.46403C58.6767 6.39754 58.7917 6.30054 58.8795 6.18098C58.9673 6.06143 59.0255 5.92274 59.0493 5.77632C59.0731 5.62989 59.0618 5.47991 59.0164 5.3387C58.9709 5.19749 58.8926 5.06908 58.7879 4.96403L55.0379 1.21403C54.9328 1.10929 54.8044 1.03097 54.6632 0.98552C54.522 0.940067 54.372 0.928774 54.2256 0.952568C54.0792 0.976362 53.9405 1.03456 53.8209 1.12239C53.7014 1.21022 53.6044 1.32516 53.5379 1.45778L49.7879 8.95778C49.7169 9.10053 49.6836 9.25901 49.6909 9.41825C49.6983 9.57748 49.7461 9.73221 49.8299 9.86782C49.9137 10.0034 50.0307 10.1154 50.1699 10.1932C50.309 10.271 50.4657 10.3121 50.6251 10.3125ZM54.6319 3.45746L56.5426 5.36809L52.7213 7.27871L54.6319 3.45746Z" fill="white"/>
<path d="M1.45585 6.46876L8.95585 10.2188C9.08653 10.2817 9.22989 10.3137 9.37492 10.3125C9.53513 10.3134 9.6929 10.2732 9.83317 10.1957C9.97343 10.1183 10.0915 10.0062 10.1761 9.87016C10.2607 9.73411 10.3091 9.57864 10.3165 9.4186C10.324 9.25855 10.2903 9.09927 10.2187 8.95595L6.46867 1.45595C6.40218 1.32333 6.30518 1.20839 6.18562 1.12056C6.06607 1.03273 5.92738 0.974531 5.78096 0.950737C5.63453 0.926943 5.48455 0.938236 5.34334 0.983689C5.20213 1.02914 5.07372 1.10746 4.96867 1.2122L1.21867 4.9622C1.11393 5.06725 1.03561 5.19566 0.990159 5.33687C0.944706 5.47808 0.933412 5.62806 0.957207 5.77449C0.981001 5.92091 1.0392 6.0596 1.12703 6.17915C1.21486 6.29871 1.3298 6.39571 1.46242 6.4622L1.45585 6.46876ZM5.36804 3.45751L7.27867 7.27876L3.45742 5.36813L5.36804 3.45751Z" fill="white"/>
<path d="M53.5358 36.044C53.6023 36.177 53.6995 36.2923 53.8193 36.3803C53.9391 36.4683 54.0781 36.5266 54.2249 36.5503C54.2745 36.5585 54.3246 36.5626 54.3749 36.5625C54.6235 36.5624 54.8619 36.4636 55.0377 36.2878L58.7877 32.5378C58.8925 32.4327 58.9708 32.3043 59.0162 32.1631C59.0617 32.0219 59.073 31.8719 59.0492 31.7255C59.0254 31.5791 58.9672 31.4404 58.8793 31.3208C58.7915 31.2013 58.6766 31.1043 58.544 31.0378L51.044 27.2878C50.8679 27.1996 50.6686 27.1691 50.4742 27.2005C50.2799 27.232 50.1003 27.3238 49.9611 27.4631C49.8219 27.6023 49.73 27.7818 49.6986 27.9762C49.6671 28.1705 49.6976 28.3699 49.7858 28.5459L53.5358 36.044ZM56.5424 32.1318L54.6318 34.0425L52.7211 30.2212L56.5424 32.1318Z" fill="white"/>
<path d="M4.96207 36.2878C5.13785 36.4637 5.37627 36.5625 5.62489 36.5625C5.67514 36.5626 5.72531 36.5585 5.77489 36.5503C5.92165 36.5266 6.06068 36.4684 6.18049 36.3803C6.3003 36.2923 6.39746 36.1771 6.46395 36.0441L10.2139 28.5441C10.3021 28.368 10.3327 28.1687 10.3012 27.9743C10.2698 27.78 10.1779 27.6005 10.0387 27.4612C9.89945 27.322 9.71992 27.2302 9.52556 27.1987C9.33119 27.1672 9.13186 27.1978 8.95582 27.286L1.45582 31.036C1.32321 31.1024 1.20827 31.1994 1.12044 31.319C1.03261 31.4386 0.974409 31.5772 0.950615 31.7237C0.926821 31.8701 0.938114 32.0201 0.983567 32.1613C1.02902 32.3025 1.10733 32.4309 1.21207 32.536L4.96207 36.2878ZM7.27864 30.2213L5.36801 34.0425L3.45739 32.1319L7.27864 30.2213Z" fill="white"/>
</g>
<defs>
<clipPath id="clip0_309_571">
<rect width="60" height="60" fill="white"/>
</clipPath>
</defs>
</svg>
