<svg width="40" height="40" viewBox="0 0 40 40" fill="none" xmlns="http://www.w3.org/2000/svg">
<g clip-path="url(#clip0_307_402)">
<path d="M38 13.3553V8.33333C38.0001 7.51069 37.5671 6.74876 36.8602 6.32798C36.1533 5.90719 35.2771 5.88972 34.554 6.282C34.2388 5.28539 33.2975 4.62143 32.2529 4.6589C31.2083 4.69636 30.317 5.42603 30.074 6.44267C29.6341 6.01207 29.105 5.68343 28.524 5.48C28.6184 5.19621 28.6666 4.89908 28.6667 4.6C28.6548 3.81246 28.3224 3.0638 27.7462 2.52683C27.17 1.98987 26.3998 1.71102 25.6133 1.75467C25.0704 0.755872 24.0588 0.0998148 22.9254 0.011514C21.7921 -0.0767867 20.691 0.414674 20 1.31733C19.3094 0.414441 18.2086 -0.077477 17.0753 0.0102834C15.9419 0.0980438 14.9301 0.753551 14.3867 1.752C14.332 1.752 14.2773 1.74733 14.222 1.74733C12.637 1.73847 11.3443 3.01503 11.3333 4.6C11.3334 4.89991 11.3813 5.19788 11.4753 5.48267C10.8938 5.68604 10.3644 6.0152 9.92467 6.44667C9.67827 5.43359 8.78835 4.70787 7.74642 4.67034C6.70448 4.63281 5.76465 5.29261 5.446 6.28533C4.72344 5.89333 3.84791 5.91047 3.14124 6.33046C2.43458 6.75044 2.00104 7.51129 2 8.33333V13.3547C0.851022 13.5205 -0.00129145 14.5058 1.46899e-06 15.6667V23.9267C0.00101508 24.5622 0.228114 25.1766 0.640668 25.66L3.33333 28.8V38.6667C3.33333 39.403 3.93029 40 4.66667 40H12C12.7364 40 13.3333 39.403 13.3333 38.6667V28.8L15.304 26.5033C15.6752 26.6086 16.0588 26.6635 16.4447 26.6667C17.878 26.6696 19.2157 25.9477 20 24.748C20.7843 25.9477 22.122 26.6696 23.5553 26.6667C23.942 26.665 24.3266 26.6109 24.6987 26.506L26.6667 28.8V38.6667C26.6667 39.403 27.2636 40 28 40H35.3333C36.0697 40 36.6667 39.403 36.6667 38.6667V28.8L39.362 25.658C39.7731 25.1747 39.9993 24.5612 40 23.9267V15.6667C40.0024 14.5055 39.1495 13.5198 38 13.3553ZM34.9587 7.622C35.2451 7.33481 35.6767 7.24911 36.0511 7.40506C36.4256 7.56101 36.6688 7.92771 36.6667 8.33333V13.586C35.8481 14.0084 35.3338 14.8522 35.3333 15.7733V16H34.6667V8.33333C34.6668 8.06786 34.7718 7.81318 34.9587 7.62467V7.622ZM31.3333 7C31.3319 6.73421 31.4371 6.47894 31.6253 6.29133C31.9115 6.00449 32.3424 5.91863 32.7166 6.07389C33.0908 6.22915 33.3343 6.59486 33.3333 7L33.3333 16H32.5627C32.4248 15.3826 32.1284 14.8119 31.7027 14.344C32.5261 12.964 32.3579 11.2091 31.2873 10.0107C31.3181 9.80857 31.3335 9.60443 31.3333 9.4V7ZM6.66667 7C6.66667 6.44772 7.11438 6 7.66667 6C8.21895 6 8.66667 6.44772 8.66667 7V9.4C8.66672 9.60373 8.68187 9.80718 8.712 10.0087C7.64164 11.2073 7.47372 12.9621 8.29733 14.342C7.87129 14.8104 7.57486 15.3819 7.43734 16H6.66667V7ZM4.33333 7.33333C4.59888 7.33226 4.85385 7.43728 5.04162 7.62505C5.22939 7.81282 5.3344 8.06779 5.33333 8.33333L5.33334 16H4.66667V15.7733C4.66625 14.8522 4.15186 14.0084 3.33333 13.586V8.33333C3.33333 7.78105 3.78105 7.33333 4.33333 7.33333ZM12.3147 27.94C12.1126 28.1812 12.0013 28.4854 12 28.8V38.6667H4.66667V28.8C4.66432 28.4825 4.55087 28.1759 4.346 27.9333L1.654 24.794C1.44758 24.5521 1.33392 24.2447 1.33333 23.9267V15.6667C1.33202 15.1408 1.73816 14.7038 2.26267 14.6667C2.34683 14.6629 2.43111 14.6703 2.51333 14.6887C3.00163 14.8215 3.33865 15.2673 3.33333 15.7733V19.3333C3.33333 19.7015 3.63181 20 4 20C4.73638 20 5.33333 20.597 5.33333 21.3333V23.3333C5.33333 23.7015 5.63181 24 6 24C6.36819 24 6.66667 23.7015 6.66667 23.3333V21.3333C6.6655 20.1177 5.84337 19.0564 4.66667 18.7513V17.3333H7.37134C7.55684 18.6129 8.38817 19.7067 9.57133 20.228C9.71118 21.9 10.8444 23.3232 12.4427 23.834C12.7341 24.6873 13.2958 25.4222 14.0427 25.9273L12.3147 27.94ZM20.6667 22.506V22C20.6667 21.6318 20.3682 21.3333 20 21.3333C19.6318 21.3333 19.3333 21.6318 19.3333 22V22.506C19.2974 23.9547 18.1968 25.154 16.7565 25.3139C15.3162 25.4737 13.9793 24.5449 13.6267 23.1393C13.5685 22.8911 13.3739 22.6978 13.1253 22.6413C11.8069 22.3524 10.8729 21.1769 10.8893 19.8273C10.9226 19.5062 10.7209 19.2073 10.4107 19.118C9.38611 18.8251 8.67641 17.8929 8.66667 16.8273C8.66529 16.095 9.00671 15.4043 9.58933 14.9607C9.73339 14.8487 9.82526 14.6826 9.84353 14.501C9.86179 14.3195 9.80486 14.1384 9.686 14C9.31306 13.5747 9.10865 13.0276 9.11133 12.462C9.11183 11.8002 9.39198 11.1694 9.88267 10.7253C10.0661 10.56 10.143 10.3068 10.0827 10.0673C10.0273 9.84922 9.99955 9.62503 10 9.4C10.0133 7.95654 11.1065 6.75232 12.542 6.6C12.7833 6.57271 12.9907 6.41634 13.0834 6.19183C13.176 5.96732 13.1392 5.71019 12.9873 5.52067C12.7793 5.2589 12.6663 4.93433 12.6667 4.6C12.6779 4.12365 12.9068 3.67872 13.2879 3.39268C13.669 3.10664 14.1601 3.01107 14.6207 3.13333C14.9634 3.22046 15.3155 3.02987 15.43 2.69533C15.7078 1.88094 16.4729 1.33346 17.3333 1.33333C18.4247 1.32185 19.3194 2.19598 19.3333 3.28733V4.66667C19.3333 5.03486 19.6318 5.33333 20 5.33333C20.3682 5.33333 20.6667 5.03486 20.6667 4.66667V3.28733C20.6806 2.19598 21.5753 1.32185 22.6667 1.33333C23.527 1.33337 24.292 1.88054 24.57 2.69467C24.6848 3.02899 25.0367 3.21945 25.3793 3.13267C25.84 3.01038 26.3313 3.10603 26.7124 3.39222C27.0935 3.67841 27.3223 4.12353 27.3333 4.6C27.3325 4.81068 27.287 5.0188 27.2 5.21067C27.161 5.29422 27.1165 5.37506 27.0667 5.45267C27.0372 5.48222 27.0104 5.51435 26.9867 5.54867C26.849 5.74082 26.8234 5.99151 26.9193 6.20755C27.0153 6.42358 27.2185 6.57264 27.4533 6.59933C28.8909 6.74947 29.9868 7.95468 30 9.4C30.0002 9.62146 29.9727 9.84207 29.918 10.0567C29.9047 10.1119 29.898 10.1685 29.898 10.2253C29.8979 10.4138 29.9776 10.5935 30.1173 10.72C30.608 11.1641 30.8882 11.7949 30.8887 12.4567C30.8927 13.0241 30.6882 13.5733 30.314 14C30.1938 14.1386 30.1361 14.3206 30.1544 14.5032C30.1727 14.6857 30.2654 14.8527 30.4107 14.9647C30.9922 15.4074 31.3335 16.0964 31.3333 16.8273C31.3236 17.8929 30.6139 18.8251 29.5893 19.118C29.2728 19.2334 29.0756 19.5497 29.1113 19.8847C29.1062 21.215 28.1754 22.3622 26.8747 22.6413C26.6268 22.7012 26.4332 22.8943 26.3727 23.142C26.3647 23.1747 26.356 23.2087 26.348 23.234L26.3193 23.328C26.294 23.4053 26.2693 23.4847 26.2373 23.562C25.7058 24.8206 24.368 25.5376 23.0257 25.2831C21.6833 25.0286 20.7007 23.8718 20.6667 22.506ZM38.6667 23.9267C38.6669 24.2444 38.5536 24.5517 38.3473 24.7933L35.648 27.94C35.446 28.1812 35.3347 28.4854 35.3333 28.8V38.6667H28V28.8C27.9982 28.4824 27.8847 28.1756 27.6793 27.9333L25.958 25.9267C26.6327 25.4675 27.1583 24.8209 27.47 24.0667C27.502 23.9893 27.5293 23.912 27.5567 23.832C29.1563 23.3218 30.2908 21.8978 30.4307 20.2247C31.6122 19.7034 32.4425 18.6112 32.6287 17.3333H35.3333V18.7513C34.1566 19.0564 33.3345 20.1177 33.3333 21.3333V23.3333C33.3333 23.7015 33.6318 24 34 24C34.3682 24 34.6667 23.7015 34.6667 23.3333V21.3333C34.6667 20.597 35.2636 20 36 20C36.3682 20 36.6667 19.7015 36.6667 19.3333V15.7733C36.6611 15.2689 36.9958 14.8239 37.482 14.6893C37.5614 14.6705 37.6431 14.6628 37.7247 14.6667C38.2542 14.6974 38.6676 15.1363 38.6667 15.6667V23.9267Z" fill="white"/>
<path d="M19.9999 6.66675C16.318 6.66675 13.3333 9.65152 13.3333 13.3334C13.3333 17.0153 16.318 20.0001 19.9999 20.0001C23.6818 20.0001 26.6666 17.0153 26.6666 13.3334C26.6625 9.65319 23.6801 6.67079 19.9999 6.66675ZM19.9999 18.6667C17.0544 18.6667 14.6666 16.2789 14.6666 13.3334C14.6666 10.3879 17.0544 8.00008 19.9999 8.00008C22.9454 8.00008 25.3333 10.3879 25.3333 13.3334C25.3299 16.2776 22.9441 18.6634 19.9999 18.6667Z" fill="white"/>
<path d="M21.4454 10.9633L19.23 14.2873L18.4714 13.5287C18.2098 13.276 17.794 13.2796 17.5368 13.5368C17.2797 13.794 17.276 14.2098 17.5287 14.4713L18.862 15.8047C18.987 15.9297 19.1566 16 19.3334 16H19.4C19.5986 15.9803 19.7779 15.8727 19.8887 15.7067L22.5554 11.7067C22.6876 11.5085 22.704 11.2549 22.5985 11.0413C22.4929 10.8278 22.2815 10.6867 22.0438 10.6713C21.8061 10.6559 21.5782 10.7685 21.446 10.9667L21.4454 10.9633Z" fill="white"/>
</g>
<defs>
<clipPath id="clip0_307_402">
<rect width="40" height="40" fill="white"/>
</clipPath>
</defs>
</svg>
