<svg width="61" height="61" viewBox="0 0 61 61" fill="none" xmlns="http://www.w3.org/2000/svg">
<g clip-path="url(#clip0_419_406)">
<path d="M6.09973 1.21997H28.0597C30.7547 1.21997 32.9397 3.40501 32.9397 6.09997V54.9C32.9397 57.5949 30.7547 59.78 28.0597 59.78H6.09973C3.40477 59.78 1.21973 57.5949 1.21973 54.9V6.09997C1.21973 3.40501 3.40477 1.21997 6.09973 1.21997Z" fill="#FFFE8C"/>
<path d="M28.06 61H6.1C2.73249 60.9958 0.00416993 58.2675 0 54.9V6.1C0.00416993 2.73249 2.73249 0.00416993 6.1 0H28.06C31.4275 0.00416993 34.1558 2.73249 34.16 6.1V54.9C34.1558 58.2675 31.4275 60.9958 28.06 61ZM6.1 2.44C4.07878 2.44 2.44 4.07878 2.44 6.1V54.9C2.44 56.9212 4.07878 58.56 6.1 58.56H28.06C30.0812 58.56 31.72 56.9212 31.72 54.9V6.1C31.72 4.07878 30.0812 2.44 28.06 2.44H6.1Z" fill="#0A400C"/>
<path d="M50.0198 14.6401C49.3461 14.6401 48.7998 14.0938 48.7998 13.4201C48.7998 12.7463 49.3461 12.2001 50.0198 12.2001C50.8175 12.2001 51.2398 10.9348 51.2398 8.54007C51.2398 7.86633 51.7861 7.32007 52.4598 7.32007C53.1335 7.32007 53.6798 7.86633 53.6798 8.54007C53.6798 12.5867 52.4491 14.6401 50.0198 14.6401Z" fill="#0A400C"/>
<path d="M52.46 8.53997C52.46 8.53997 52.46 1.21997 59.78 1.21997C59.78 1.21997 59.78 8.53997 52.46 8.53997Z" fill="#C0FF4E"/>
<path d="M52.4602 9.76C51.7865 9.76 51.2402 9.21374 51.2402 8.54C51.2402 5.5865 53.025 0 59.7802 0C60.454 0 61.0002 0.54626 61.0002 1.22C61.0002 4.1735 59.2155 9.76 52.4602 9.76ZM58.403 2.55318C56.0339 2.95171 54.1908 4.83056 53.8375 7.20682C56.2066 6.80829 58.0497 4.92944 58.403 2.55318Z" fill="#0A400C"/>
<path d="M52.4596 8.53997C52.4596 8.53997 45.1396 8.53997 45.1396 1.21997C45.1396 1.21997 52.4596 1.21997 52.4596 8.53997Z" fill="#C0FF4E"/>
<path d="M52.4599 9.76C49.5064 9.76 43.9199 7.97527 43.9199 1.22C43.9199 0.54626 44.4662 0 45.1399 0C48.0934 0 53.6799 1.78473 53.6799 8.54C53.6799 9.21374 53.1337 9.76 52.4599 9.76ZM46.4731 2.59727C46.8716 4.96638 48.7505 6.80948 51.1267 7.16273C50.7282 4.79362 48.8494 2.95052 46.4731 2.59727Z" fill="#0A400C"/>
<path d="M41.4799 7.31988H36.5999C35.9261 7.31988 35.3799 6.77362 35.3799 6.09988C35.3799 5.42614 35.9261 4.87988 36.5999 4.87988H41.4799C42.1536 4.87988 42.6999 5.42614 42.6999 6.09988C42.6999 6.77362 42.1536 7.31988 41.4799 7.31988Z" fill="#0A400C"/>
<path d="M41.4799 10.98H36.5999C35.9261 10.98 35.3799 10.4338 35.3799 9.76004C35.3799 9.0863 35.9261 8.54004 36.5999 8.54004H41.4799C42.1536 8.54004 42.6999 9.0863 42.6999 9.76004C42.6999 10.4338 42.1536 10.98 41.4799 10.98Z" fill="#0A400C"/>
<path d="M1.21973 8.54004H32.9397V50.02H1.21973V8.54004Z" fill="#30A064"/>
<path d="M32.94 51.2401H1.22C0.54626 51.2401 0 50.6938 0 50.0201V8.54007C0 7.86633 0.54626 7.32007 1.22 7.32007H32.94C33.6137 7.32007 34.16 7.86633 34.16 8.54007V50.0201C34.16 50.6938 33.6137 51.2401 32.94 51.2401ZM2.44 48.8001H31.72V9.76007H2.44V48.8001Z" fill="#0A400C"/>
<path d="M29.2799 29.2801C29.2799 36.0181 23.8179 41.4801 17.0799 41.4801C10.3419 41.4801 4.87988 36.0181 4.87988 29.2801C4.87988 22.5421 10.3419 17.0801 17.0799 17.0801C23.8179 17.0801 29.2799 22.5421 29.2799 29.2801Z" fill="#C0FF4E"/>
<path d="M17.0802 42.7001C9.66842 42.7001 3.66016 36.6918 3.66016 29.2801C3.66016 21.8684 9.66842 15.8601 17.0802 15.8601C24.4919 15.8601 30.5002 21.8684 30.5002 29.2801C30.4912 36.6883 24.4883 42.6912 17.0802 42.7001ZM17.0802 18.3001C11.0159 18.3001 6.10016 23.2159 6.10016 29.2801C6.10016 35.3444 11.0159 40.2601 17.0802 40.2601C23.1444 40.2601 28.0602 35.3444 28.0602 29.2801C28.0536 23.2188 23.1414 18.3067 17.0802 18.3001Z" fill="#0A400C"/>
<path d="M24.4 30.5C23.7263 30.5 23.18 29.9538 23.18 29.28C23.18 26.7507 21.6193 24.484 19.2561 23.5815C16.8935 22.679 14.2188 23.3284 12.533 25.2138C12.2435 25.5432 11.7997 25.6921 11.3702 25.6034C10.9407 25.5146 10.5916 25.2024 10.4564 24.7849C10.3206 24.3679 10.4194 23.9104 10.7155 23.5863C13.0757 20.9473 16.8203 20.0389 20.1276 21.3024C23.435 22.5659 25.62 25.7392 25.62 29.28C25.62 29.9538 25.0737 30.5 24.4 30.5Z" fill="#0A400C"/>
<path d="M28.0616 28.7898H20.7393L24.4004 32.4498L28.0616 28.7898Z" fill="#0A400C"/>
<path d="M17.08 37.8201C12.3656 37.8147 8.5454 33.9945 8.54004 29.2801C8.54004 28.6063 9.0863 28.0601 9.76004 28.0601C10.4338 28.0601 10.98 28.6063 10.98 29.2801C10.98 31.8094 12.5408 34.0761 14.9039 34.9786C17.2665 35.881 19.9412 35.2317 21.627 33.3463C21.9166 33.0169 22.3604 32.868 22.7899 32.9567C23.2194 33.0455 23.5684 33.3576 23.7037 33.7752C23.8395 34.1922 23.7406 34.6497 23.4445 34.9738C21.8236 36.7835 19.5093 37.8183 17.08 37.8201Z" fill="#0A400C"/>
<path d="M6.09863 29.7704H13.421L9.75982 26.1104L6.09863 29.7704Z" fill="#0A400C"/>
<path d="M21.9605 56.1202H12.2005C11.5267 56.1202 10.9805 55.5739 10.9805 54.9002C10.9805 54.2264 11.5267 53.6802 12.2005 53.6802H21.9605C22.6342 53.6802 23.1805 54.2264 23.1805 54.9002C23.1805 55.5739 22.6342 56.1202 21.9605 56.1202Z" fill="#0A400C"/>
<path d="M32.9404 47.58H37.8204V54.9C37.8204 57.5949 40.0055 59.78 42.7004 59.78C45.3954 59.78 47.5804 57.5949 47.5804 54.9V42.7" fill="white"/>
<path d="M42.6997 61C39.3322 60.9958 36.6039 58.2675 36.5997 54.9V48.8H32.9397C32.266 48.8 31.7197 48.2537 31.7197 47.58C31.7197 46.9062 32.266 46.36 32.9397 46.36H37.8197C38.4935 46.36 39.0397 46.9062 39.0397 47.58V54.9C39.0397 56.9212 40.6785 58.56 42.6997 58.56C44.7209 58.56 46.3597 56.9212 46.3597 54.9V42.7C46.3597 42.0262 46.906 41.48 47.5797 41.48C48.2535 41.48 48.7997 42.0262 48.7997 42.7V54.9C48.7956 58.2675 46.0672 60.9958 42.6997 61Z" fill="#0A400C"/>
<path d="M42.7002 32.9399H52.4602V40.2599C52.4602 41.6074 51.3677 42.6999 50.0202 42.6999H45.1402C43.7927 42.6999 42.7002 41.6074 42.7002 40.2599V32.9399Z" fill="#FFFE8C"/>
<path d="M50.0205 43.92H45.1405C43.1192 43.92 41.4805 42.2812 41.4805 40.26V32.94C41.4805 32.2662 42.0267 31.72 42.7005 31.72H52.4605C53.1342 31.72 53.6805 32.2662 53.6805 32.94V40.26C53.6805 42.2812 52.0417 43.92 50.0205 43.92ZM43.9205 34.16V40.26C43.9205 40.9337 44.4667 41.48 45.1405 41.48H50.0205C50.6942 41.48 51.2405 40.9337 51.2405 40.26V34.16H43.9205Z" fill="#0A400C"/>
<path d="M54.9 34.16H40.26C39.5863 34.16 39.04 33.6137 39.04 32.94C39.04 32.2662 39.5863 31.72 40.26 31.72H54.9C55.5738 31.72 56.12 32.2662 56.12 32.94C56.12 33.6137 55.5738 34.16 54.9 34.16Z" fill="#0A400C"/>
<path d="M45.1399 34.1601C44.4662 34.1601 43.9199 33.6138 43.9199 32.9401V28.0601C43.9199 27.3863 44.4662 26.8401 45.1399 26.8401C45.8137 26.8401 46.3599 27.3863 46.3599 28.0601V32.9401C46.3599 33.6138 45.8137 34.1601 45.1399 34.1601Z" fill="#0A400C"/>
<path d="M50.0198 34.1601C49.3461 34.1601 48.7998 33.6138 48.7998 32.9401V28.0601C48.7998 27.3863 49.3461 26.8401 50.0198 26.8401C50.6935 26.8401 51.2398 27.3863 51.2398 28.0601V32.9401C51.2398 33.6138 50.6935 34.1601 50.0198 34.1601Z" fill="#0A400C"/>
</g>
<defs>
<clipPath id="clip0_419_406">
<rect width="61" height="61" fill="white"/>
</clipPath>
</defs>
</svg>
