<svg width="80" height="80" viewBox="0 0 80 80" fill="none" xmlns="http://www.w3.org/2000/svg">
<path d="M19.1757 50C19.1757 52.0606 17.503 53.7455 15.4303 53.7455C13.3697 53.7455 11.6848 52.0727 11.6848 50H19.1757Z" fill="#51BFE7"/>
<path d="M58.0363 28.2545C58.8484 31.4788 56.8848 34.7272 53.6727 35.5394C50.4605 36.3394 47.1999 34.4 46.3878 31.1757C45.5878 27.9636 47.5393 24.703 50.7515 23.903C53.9636 23.103 57.2242 25.0545 58.0363 28.2545Z" fill="#FFCD57"/>
<path d="M58.1332 30.6788C57.7695 32.9819 56.0726 34.9334 53.6726 35.5395C50.4604 36.3395 47.1998 34.3879 46.3998 31.1758C45.5998 27.9879 47.515 24.7637 50.6665 23.9395C50.5332 24.7152 50.5574 25.5273 50.7635 26.3516C51.5756 29.5758 54.8241 31.5152 58.0362 30.7031C58.0726 30.691 58.0968 30.691 58.1332 30.6788Z" fill="#F4BA43"/>
<path d="M59.1513 76.1575H44.5574L49.2846 34.9575C50.5816 35.6727 52.121 35.9272 53.6604 35.5393C53.9392 35.4666 54.1937 35.3818 54.4483 35.2727L59.1513 76.1575Z" fill="#F5F5FA"/>
<path d="M56.4847 76.1575H47.2241C45.8059 76.1575 44.7029 74.909 44.8605 73.503L49.2847 34.9575C50.5817 35.6727 52.1211 35.9272 53.6605 35.5393C53.8302 35.4909 53.9877 35.4424 54.1453 35.3818C53.4665 38.7636 53.0665 42.8121 53.0665 47.1636C53.0665 57.406 55.2726 65.9636 58.2059 68.0242L58.8362 73.503C59.0059 74.9212 57.9029 76.1575 56.4847 76.1575Z" fill="#E5E8EC"/>
<path d="M57.7938 10.6668L55.3089 24.5941C53.9877 23.7941 52.3635 23.5032 50.7635 23.9032C50.4968 23.9759 50.2302 24.0608 49.9756 24.182L45.4908 6.37591C45.0544 4.6547 46.8847 3.23651 48.4483 4.07288L56.7392 8.49712C57.515 8.92136 57.9514 9.79409 57.7938 10.6668Z" fill="#EC5664"/>
<path d="M56.1695 19.7939L55.3089 24.5818C53.9756 23.7818 52.3513 23.4909 50.7513 23.8909C50.4846 23.9636 50.218 24.0485 49.9634 24.1697L45.5028 6.36364C45.0665 4.65455 46.8846 3.23637 48.4604 4.07273L53.2604 6.64243C53.0665 7.7091 52.9695 8.84849 52.9695 10.0485C52.9695 14.2909 54.2665 17.9758 56.1695 19.7939Z" fill="#DB4554"/>
<path d="M48.5089 34.4242L35.0665 47.4424C33.7816 48.6788 31.6483 47.8182 31.5877 46.0242L31.2847 36.6303C31.2483 35.7454 31.7938 34.9454 32.6422 34.6303L46.2301 29.7212C46.2301 30.1939 46.2786 30.6788 46.3998 31.1636C46.7392 32.5212 47.4907 33.6242 48.5089 34.4242Z" fill="#EC5664"/>
<path d="M45.2847 37.5515L35.0665 47.4424C33.7816 48.6788 31.6483 47.8182 31.5877 46.0364L31.2847 36.6545C31.2483 35.7576 31.7938 34.9697 32.6301 34.6545H32.6422C35.3089 35.9636 39.8059 37.0182 45.2847 37.5515Z" fill="#DB4554"/>
<path d="M76.3634 39.6485L68.3755 44.6182C67.624 45.0909 66.6422 45.0182 65.9755 44.4485L54.8967 35.0909C56.5695 34.2667 57.7331 32.6909 58.0967 30.897L75.8422 35.9394C77.5513 36.4364 77.8664 38.7152 76.3634 39.6485Z" fill="#EC5664"/>
<path d="M72.7149 41.9152L68.3876 44.6182C67.6361 45.0909 66.6664 45.0182 65.9876 44.4485L54.8967 35.0909C56.5695 34.2667 57.7452 32.6909 58.1088 30.897L61.4058 31.8424C60.9088 32.5939 60.6422 33.3818 60.6422 34.2182C60.6301 37.8182 65.6967 40.8727 72.7149 41.9152Z" fill="#DB4554"/>
<path d="M59.1514 77.0303H44.5574C44.3029 77.0303 44.0726 76.9212 43.9029 76.7394C43.7332 76.5576 43.6605 76.303 43.6847 76.0606L48.412 34.8606C48.4484 34.5697 48.6181 34.3151 48.8847 34.1818C49.1393 34.0485 49.4544 34.0485 49.709 34.1939C50.8605 34.8242 52.1938 35.006 53.4544 34.6909C53.6726 34.6303 53.8908 34.5575 54.109 34.4727C54.3635 34.3636 54.6544 34.3757 54.8968 34.5212C55.1393 34.6545 55.2968 34.8969 55.3211 35.1757L60.012 76.0606C60.0362 76.303 59.9635 76.5576 59.7938 76.7394C59.6362 76.9333 59.3938 77.0303 59.1514 77.0303ZM45.5393 75.2848H58.1696L53.709 36.4363C52.4726 36.703 51.212 36.6424 50.0241 36.2424L45.5393 75.2848Z" fill="#434753"/>
<path d="M52.2179 36.594C49.1392 36.594 46.327 34.5091 45.5513 31.394C45.1028 29.6122 45.3816 27.7697 46.327 26.194C47.2725 24.6182 48.7755 23.5031 50.5573 23.0546C52.3392 22.6061 54.1816 22.8849 55.7573 23.8182C57.3331 24.7637 58.4482 26.2546 58.8967 28.0364C59.8179 31.7091 57.5755 35.4546 53.9028 36.3758C53.3331 36.5334 52.7634 36.594 52.2179 36.594ZM52.2179 24.6061C51.7937 24.6061 51.3816 24.6546 50.9573 24.7637C49.624 25.0909 48.5088 25.9273 47.8058 27.1031C47.1028 28.2788 46.8967 29.6485 47.2361 30.9819C47.927 33.7212 50.727 35.394 53.4543 34.7031C56.1937 34.0122 57.8664 31.2243 57.1755 28.4849C56.8482 27.1637 56.0119 26.0485 54.8361 25.3455C54.0361 24.8485 53.1392 24.6061 52.2179 24.6061Z" fill="#434753"/>
<path d="M55.3091 25.4667C55.1515 25.4667 54.9939 25.4303 54.8606 25.3455C53.6848 24.6303 52.303 24.4243 50.9697 24.7637C50.7515 24.8243 50.5333 24.897 50.3273 24.994C50.097 25.1031 49.8182 25.0909 49.5879 24.9819C49.3576 24.8728 49.1879 24.6546 49.1273 24.4122L44.6424 6.58185C44.3636 5.44246 44.7515 4.29094 45.6727 3.57579C46.606 2.84852 47.8182 2.75155 48.8606 3.297L57.1515 7.72125C58.2667 8.31519 58.8727 9.56367 58.6545 10.8122L56.1697 24.7394C56.1212 25.0182 55.9273 25.2606 55.6727 25.3819C55.5515 25.4425 55.4303 25.4667 55.3091 25.4667ZM52.2182 22.8485C53.0424 22.8485 53.8667 23.0061 54.6424 23.297L56.9212 10.5091C57.006 10.0122 56.7636 9.51519 56.3151 9.27276L48.0363 4.84852C47.6121 4.61822 47.1394 4.6667 46.7515 4.95761C46.3757 5.24852 46.2182 5.697 46.3394 6.15761L50.5818 23.0425C51.1273 22.9091 51.6727 22.8485 52.2182 22.8485Z" fill="#434753"/>
<path d="M33.6483 48.897C33.2726 48.897 32.8968 48.8242 32.5332 48.6788C31.4544 48.2424 30.7514 47.2364 30.7029 46.0606L30.3999 36.6667C30.3514 35.4061 31.1271 34.2667 32.3271 33.8182L45.915 28.9091C46.1817 28.8121 46.4847 28.8485 46.715 29.0182C46.9453 29.1879 47.0908 29.4545 47.0786 29.7455C47.0786 30.1455 47.1271 30.5455 47.2241 30.9576C47.5029 32.0606 48.1211 33.0182 49.0302 33.7212C49.2241 33.8788 49.3453 34.1091 49.3574 34.3636C49.3696 34.6182 49.2726 34.8606 49.0908 35.0424L35.6726 48.0727C35.115 48.6182 34.3877 48.897 33.6483 48.897ZM45.4544 30.9455L32.9332 35.4667C32.4483 35.6485 32.1332 36.097 32.1574 36.6061L32.4605 46C32.4726 46.4849 32.7514 46.8727 33.1999 47.0545C33.6483 47.2364 34.1211 47.1394 34.4605 46.8121L47.2241 34.4364C46.412 33.5879 45.8302 32.5455 45.5392 31.3939C45.515 31.2485 45.4786 31.103 45.4544 30.9455Z" fill="#434753"/>
<path d="M67.2969 45.8061C66.6303 45.8061 65.9636 45.5758 65.4181 45.1152L54.3272 35.7576C54.0969 35.5637 53.9878 35.2728 54.0242 34.9819C54.0606 34.691 54.2424 34.4364 54.4969 34.3031C55.903 33.6122 56.9212 32.2667 57.2242 30.7152C57.2727 30.4728 57.4181 30.2667 57.6242 30.1455C57.8303 30.0122 58.0848 29.9879 58.3151 30.0485L76.0727 35.091C77.2 35.4182 78 36.3394 78.1697 37.5031C78.3272 38.6667 77.8181 39.7697 76.8242 40.3879L68.8363 45.3576C68.3636 45.6606 67.8303 45.8061 67.2969 45.8061ZM56.3757 35.2L66.5454 43.7819C66.9333 44.1091 67.503 44.1455 67.9151 43.8788L75.903 38.9091C76.303 38.6546 76.5091 38.2303 76.4484 37.7576C76.3878 37.2849 76.0727 36.9213 75.6121 36.7879L58.7151 31.9879C58.2545 33.2485 57.4424 34.3758 56.3757 35.2Z" fill="#434753"/>
<path d="M44.8362 70.0849H37.7453C35.224 70.0849 33.1877 68.0364 33.1877 65.5274V60.8001C33.1877 58.6183 31.418 56.8486 29.2362 56.8486C27.0543 56.8486 25.2846 58.6183 25.2846 60.8001V64.7274C25.2846 67.6849 22.8725 70.097 19.9271 70.097C16.9695 70.097 14.5574 67.6849 14.5574 64.7274V53.7455C14.5574 53.2607 14.9453 52.8728 15.4301 52.8728C15.9149 52.8728 16.3028 53.2607 16.3028 53.7455V64.7274C16.3028 66.7152 17.9271 68.3395 19.9149 68.3395C21.9028 68.3395 23.5271 66.7152 23.5271 64.7274V60.8001C23.5271 57.6607 26.0846 55.1031 29.224 55.1031C32.3634 55.1031 34.921 57.6607 34.921 60.8001V65.5274C34.921 67.0789 36.1816 68.3395 37.7331 68.3395H44.824C45.3089 68.3395 45.6968 68.7273 45.6968 69.2122C45.6968 69.697 45.321 70.0849 44.8362 70.0849Z" fill="#434753"/>
<path d="M75.018 77.0304H27.1513C26.6664 77.0304 26.2786 76.6425 26.2786 76.1576C26.2786 75.6728 26.6664 75.2849 27.1513 75.2849H75.0301C75.5149 75.2849 75.9028 75.6728 75.9028 76.1576C75.9028 76.6425 75.5028 77.0304 75.018 77.0304Z" fill="#434753"/>
<path d="M22.3879 42.0364V46.994C22.3879 48.6546 21.0424 50.0001 19.3818 50.0001H11.503C9.83032 50.0001 8.48486 48.6546 8.48486 46.994V42.0364C8.48486 41.6243 8.82426 41.2849 9.23638 41.2849H21.6243C22.0485 41.2849 22.3879 41.6243 22.3879 42.0364Z" fill="#CCD0D9"/>
<path d="M22.3879 46.7516V46.994C22.3879 48.6546 21.0424 50.0001 19.3818 50.0001H11.503C9.83032 50.0001 8.48486 48.6546 8.48486 46.994V42.0364C8.48486 41.6243 8.82426 41.2849 9.23638 41.2849H11.5758C12.4243 44.7637 15.5637 47.3576 19.3091 47.3576C20.4 47.3576 21.4424 47.1395 22.3879 46.7516Z" fill="#A9B1BC"/>
<path d="M10.0969 41.285H21.2969C21.9272 39.2728 23.0908 37.4425 24.6545 35.9516C27.1393 33.588 28.6787 30.2425 28.6787 26.5456C28.6787 19.2122 22.606 13.285 15.1999 13.5516C8.35145 13.7941 2.73933 19.5516 2.6666 26.4001C2.63024 30.2789 4.29084 33.7819 6.95751 36.1941C8.47266 37.5759 9.52721 39.3456 10.0969 41.285Z" fill="#FFCC54"/>
<path d="M26.2424 34.1213C25.7696 34.7758 25.2363 35.394 24.6424 35.9516C23.0787 37.4425 21.9151 39.2728 21.2848 41.2849H10.0969C9.53933 39.3455 8.48478 37.5758 6.95751 36.194C4.29084 33.7819 2.63024 30.291 2.6666 26.4001C2.72721 21.0183 6.19387 16.3152 10.9939 14.4243C10.8484 15.3092 10.7757 16.2183 10.7757 17.1273C10.7757 26.0243 17.5757 33.3334 26.2424 34.1213Z" fill="#F4BA43"/>
<path d="M21.2969 42.1697H10.0969C9.70899 42.1697 9.36959 41.9152 9.2605 41.5394C8.71505 39.6849 7.72111 38.0727 6.37565 36.8485C3.4302 34.1818 1.75747 30.3758 1.80596 26.4C1.87868 19.0909 7.87869 12.9455 15.1757 12.6788C18.9817 12.5576 22.5938 13.9273 25.3211 16.5576C28.0605 19.2 29.5635 22.7394 29.5635 26.5455C29.5635 30.3758 28.0363 33.9394 25.2726 36.5818C23.806 37.9879 22.7272 39.697 22.1454 41.5515C22.012 41.9152 21.6726 42.1697 21.2969 42.1697ZM10.7393 40.4121H20.6787C21.3817 38.5212 22.5454 36.7636 24.0605 35.3212C26.4847 33.0061 27.8181 29.8909 27.8181 26.5455C27.8181 23.2242 26.4969 20.1212 24.109 17.8182C21.7211 15.5152 18.6181 14.3152 15.2363 14.4242C8.8605 14.6546 3.62414 20.0364 3.55141 26.4121C3.51505 29.8909 4.96959 33.2121 7.55141 35.5394C8.96959 36.8364 10.0726 38.5091 10.7393 40.4121Z" fill="#434753"/>
<path d="M19.3816 50.8849H11.5028C9.35736 50.8849 7.62402 49.1395 7.62402 47.0061V42.0486C7.62402 41.1516 8.3513 40.4243 9.24827 40.4243H21.6361C22.5331 40.4243 23.2604 41.1516 23.2604 42.0486V47.0061C23.2604 49.1395 21.5149 50.8849 19.3816 50.8849ZM9.35736 42.1577V46.994C9.35736 48.1698 10.3149 49.1273 11.4907 49.1273H19.3695C20.5452 49.1273 21.5028 48.1698 21.5028 46.994V42.1577H9.35736Z" fill="#434753"/>
<path d="M12.4606 31.503C10.206 31.503 8.37573 29.6727 8.37573 27.4181C8.37573 26.9333 8.76361 26.5454 9.24846 26.5454C9.73331 26.5454 10.1212 26.9333 10.1212 27.4181C10.1212 28.703 11.1636 29.7575 12.4606 29.7575C13.7576 29.7575 14.8 28.703 14.8 27.4181C14.8 26.9333 15.1879 26.5454 15.6727 26.5454C16.1576 26.5454 16.5454 26.9333 16.5454 27.4181C16.5454 29.6727 14.7151 31.503 12.4606 31.503Z" fill="#434753"/>
<path d="M18.8849 31.503C16.6304 31.503 14.8 29.6727 14.8 27.4181C14.8 26.9333 15.1879 26.5454 15.6728 26.5454C16.1576 26.5454 16.5455 26.9333 16.5455 27.4181C16.5455 28.703 17.6 29.7575 18.8849 29.7575C20.1697 29.7575 21.2243 28.703 21.2243 27.4181C21.2243 26.9333 21.6122 26.5454 22.097 26.5454C22.5819 26.5454 22.9697 26.9333 22.9697 27.4181C22.9697 29.6727 21.1394 31.503 18.8849 31.503Z" fill="#434753"/>
<path d="M15.6725 41.7213C15.1877 41.7213 14.7998 41.3334 14.7998 40.8485V27.6728C14.7998 27.1879 15.1877 26.8 15.6725 26.8C16.1574 26.8 16.5453 27.1879 16.5453 27.6728V40.8485C16.5453 41.3334 16.1574 41.7213 15.6725 41.7213Z" fill="#434753"/>
<path d="M15.4302 54.6181C12.8847 54.6181 10.812 52.5454 10.812 49.9999C10.812 49.5151 11.1999 49.1272 11.6847 49.1272H19.1756C19.6605 49.1272 20.0484 49.5151 20.0484 49.9999C20.0605 52.5454 17.9756 54.6181 15.4302 54.6181ZM12.7029 50.8848C13.0787 52.0363 14.1575 52.8727 15.4302 52.8727C16.715 52.8727 17.7938 52.0363 18.1696 50.8848H12.7029Z" fill="#434753"/>
<path d="M69.6849 76.1698C70.2061 75.5274 70.5212 74.7153 70.5212 73.8304C70.5212 71.7941 68.8728 70.1335 66.8243 70.1335C66.2061 70.1335 65.6243 70.2789 65.1152 70.5456C65.0667 68.2183 63.1758 66.3638 60.8364 66.3638C58.9212 66.3638 57.3091 67.6244 56.7637 69.3577C54.4243 69.382 52.5212 71.285 52.5212 73.6486C52.5212 74.5941 52.8364 75.4668 53.3455 76.1698H69.6849Z" fill="#A0CE69"/>
<path d="M70.5212 73.8303C70.5212 74.7152 70.206 75.5273 69.6848 76.1697H53.3454C52.8242 75.4546 52.509 74.5818 52.509 73.6364C52.509 71.3091 54.3636 69.4303 56.6545 69.3455C58.0242 71.6606 63.6848 73.4182 70.4969 73.4424C70.5212 73.5758 70.5212 73.7091 70.5212 73.8303Z" fill="#8ABF4F"/>
<path d="M69.6848 77.0425H53.3454C53.0666 77.0425 52.8 76.9091 52.6424 76.6788C51.9878 75.7819 51.6484 74.7395 51.6484 73.6364C51.6484 71.0182 53.6121 68.8364 56.1454 68.5213C56.9696 66.691 58.7878 65.491 60.8363 65.491C63.2242 65.491 65.2606 67.1516 65.8303 69.3698C66.1575 69.297 66.4848 69.2607 66.8242 69.2607C69.3454 69.2607 71.3939 71.3092 71.3939 73.8304C71.3939 74.8849 71.0303 75.9152 70.3636 76.7273C70.1939 76.9334 69.9393 77.0425 69.6848 77.0425ZM53.8181 75.297H69.2242C69.4909 74.8607 69.6363 74.3637 69.6363 73.8304C69.6363 72.2788 68.3757 71.0061 66.8242 71.0061C66.3636 71.0061 65.9272 71.1152 65.5151 71.3213C65.2484 71.4667 64.9212 71.4546 64.6666 71.297C64.4 71.1395 64.2424 70.8607 64.2424 70.5576C64.206 68.7273 62.6787 67.2243 60.8363 67.2243C59.3454 67.2243 58.0363 68.1819 57.5878 69.6001C57.4787 69.9637 57.1393 70.2061 56.7636 70.2061C54.909 70.2182 53.3939 71.7455 53.3939 73.6122C53.3939 74.2304 53.5393 74.7879 53.8181 75.297Z" fill="#434753"/>
<path d="M15.6725 9.62419C15.1877 9.62419 14.7998 9.23631 14.7998 8.75146V7.17571C14.7998 6.69086 15.1877 6.30298 15.6725 6.30298C16.1574 6.30298 16.5453 6.69086 16.5453 7.17571V8.73934C16.5453 9.23631 16.1574 9.62419 15.6725 9.62419Z" fill="#434753"/>
<path d="M9.92713 9.98786C9.6241 9.98786 9.32107 9.83028 9.1635 9.53937L8.39986 8.15755C8.15744 7.74543 8.31501 7.2121 8.73926 6.96968C9.1635 6.73937 9.69683 6.88483 9.92713 7.30907L10.6908 8.67877C10.9211 9.10301 10.7756 9.63634 10.3514 9.86665C10.218 9.95149 10.0605 9.98786 9.92713 9.98786Z" fill="#434753"/>
<path d="M21.4181 9.98794C21.2727 9.98794 21.1272 9.95158 20.9939 9.87885C20.5696 9.64855 20.4242 9.11522 20.6545 8.69097L21.4181 7.32128C21.6484 6.89703 22.1818 6.75158 22.606 6.98188C23.0302 7.21219 23.1757 7.74552 22.9454 8.16976L22.1818 9.53946C22.0242 9.81825 21.7333 9.98794 21.4181 9.98794Z" fill="#434753"/>
</svg>
