<svg width="21" height="15" viewBox="0 0 21 15" fill="none" xmlns="http://www.w3.org/2000/svg">
<path d="M20.6251 12.1403V9.29034C20.2019 9.26929 19.789 9.1526 19.4175 8.94905L18.7501 8.5801V12.1403C18.754 12.3772 18.6639 12.6059 18.4995 12.7764C18.3351 12.9469 18.1098 13.0453 17.873 13.05H2.75213C2.51532 13.0453 2.29002 12.9469 2.12561 12.7764C1.9612 12.6059 1.8711 12.3772 1.87505 12.1403V6.06769C1.86431 4.94841 2.2979 3.87055 3.08074 3.07051C3.86358 2.27046 4.93176 1.81354 6.05101 1.79995H7.80929C6.79785 1.4121 5.88952 0.796144 5.15494 0C3.71304 0.229911 2.40089 0.967902 1.45553 2.08066C0.510171 3.19342 -0.00607245 4.60758 5.39062e-05 6.06769V12.1403C-0.00337791 12.8743 0.284434 13.5796 0.800359 14.1017C1.31628 14.6237 2.0182 14.9198 2.75213 14.925H17.873C18.6069 14.9198 19.3088 14.6237 19.8247 14.1017C20.3407 13.5796 20.6285 12.8743 20.6251 12.1403Z" fill="white"/>
</svg>
